<?xml version="1.0" standalone="no"?>
<!DOCTYPE svg PUBLIC "-//W3C//DTD SVG 1.1//EN" "http://www.w3.org/Graphics/SVG/1.1/DTD/svg11.dtd" >
<svg>
<metadata>
Created by FontForge 20090622 at Thu Aug 10 06:48:35 2017
 By deploy user
Copyright 2015 Nissan Motors Co., Ltd. All rights reserved.
</metadata>
<defs>
<font id="NissanBrand-Bold" horiz-adv-x="400" >
  <font-face 
    font-family="Nissan Brand Bold"
    font-weight="700"
    font-stretch="normal"
    units-per-em="1000"
    panose-1="2 11 8 4 2 2 4 3 2 4"
    ascent="746"
    descent="-254"
    x-height="513"
    cap-height="650"
    bbox="-233 -300 1275 1058"
    underline-thickness="50"
    underline-position="-75"
    unicode-range="U+000D-U+FEFF"
  />
<missing-glyph horiz-adv-x="542" 
d="M542 750v-750h-542v750h542zM394 145v460h-246v-460h246z" />
    <glyph glyph-name="f_i.liga" unicode="fi" horiz-adv-x="671" 
d="M294 723q62 0 109 -17v-122q-37 15 -77 15q-48 0 -63.5 -13.5t-15.5 -49.5v-23h159v-120h-159v-393h-151v393h-106v120h106v32q0 91 55.5 134.5t142.5 43.5zM615 586h-169v129h169v-129zM606 0h-151v513h151v-513z" />
    <glyph glyph-name="f_l.liga" unicode="fl" horiz-adv-x="671" 
d="M294 723q62 0 109 -17v-122q-37 15 -77 15q-48 0 -63.5 -13.5t-15.5 -49.5v-23h159v-120h-159v-393h-151v393h-106v120h106v32q0 91 55.5 134.5t142.5 43.5zM606 0h-151v691h151v-691z" />
    <glyph glyph-name="f_f.liga" unicode="ff" horiz-adv-x="760" 
d="M776 513v-120h-159v-393h-151v393h-219v-393h-151v393h-106v120h106v32q0 91 55.5 134.5t142.5 43.5q62 0 109 -17v-122q-37 15 -77 15q-48 0 -63.5 -13.5t-15.5 -49.5v-23h219v32q0 91 55.5 134.5t142.5 43.5q62 0 109 -17v-122q-37 15 -77 15q-48 0 -63.5 -13.5
t-15.5 -49.5v-23h159z" />
    <glyph glyph-name="f_f_i.liga" unicode="ffi" horiz-adv-x="1041" 
d="M617 513h159v-120h-159v-393h-151v393h-219v-393h-151v393h-106v120h106v32q0 91 55.5 134.5t142.5 43.5q62 0 109 -17v-122q-37 15 -77 15q-48 0 -63.5 -13.5t-15.5 -49.5v-23h219v32q0 91 55.5 134.5t142.5 43.5q62 0 109 -17v-122q-37 15 -77 15q-48 0 -63.5 -13.5
t-15.5 -49.5v-23zM985 715v-129h-169v129h169zM825 513h151v-513h-151v513z" />
    <glyph glyph-name="f_f_l.liga" unicode="ffl" horiz-adv-x="1041" 
d="M617 513h159v-120h-159v-393h-151v393h-219v-393h-151v393h-106v120h106v32q0 91 55.5 134.5t142.5 43.5q62 0 109 -17v-122q-37 15 -77 15q-48 0 -63.5 -13.5t-15.5 -49.5v-23h219v32q0 91 55.5 134.5t142.5 43.5q62 0 109 -17v-122q-37 15 -77 15q-48 0 -63.5 -13.5
t-15.5 -49.5v-23zM976 691v-691h-151v691h151z" />
    <glyph glyph-name=".notdef" horiz-adv-x="542" 
d="M542 750v-750h-542v750h542zM394 145v460h-246v-460h246z" />
    <glyph glyph-name=".null" horiz-adv-x="0" 
 />
    <glyph glyph-name="nonmarkingreturn" horiz-adv-x="333" 
 />
    <glyph glyph-name="CR" unicode="&#xd;" horiz-adv-x="241" 
 />
    <glyph glyph-name="space" unicode=" " horiz-adv-x="241" 
 />
    <glyph glyph-name="exclam" unicode="!" horiz-adv-x="259" 
d="M45 650h169l-12 -416h-145zM211 155v-155h-162v155h162z" />
    <glyph glyph-name="quotedbl" unicode="&#x22;" horiz-adv-x="517" 
d="M209 478h-101l-23 245h146zM410 478h-101l-22 245h145z" />
    <glyph glyph-name="numbersign" unicode="#" horiz-adv-x="600" 
d="M508 527h91v-100h-108l-25 -139h91v-100h-109l-34 -188h-111l33 188h-105l-33 -188h-112l34 188h-91v100h109l24 139h-91v100h109l35 196h112l-35 -196h105l34 196h112zM274 427l-25 -139h105l25 139h-105z" />
    <glyph glyph-name="dollar" unicode="$" horiz-adv-x="643" 
d="M601 194q0 -90 -61.5 -142.5t-181.5 -61.5v-90h-76v89q-108 3 -234 36v141q146 -38 234 -42v141l-94 24q-72 19 -111 65.5t-39 112.5q0 177 244 192v91h76v-91q83 -3 198 -32v-136q-128 30 -198 33v-134l77 -20q166 -43 166 -176zM282 410v114q-85 -8 -85 -55
q0 -36 67 -54zM358 246v-119q83 9 83 53t-83 66z" />
    <glyph glyph-name="percent" unicode="%" horiz-adv-x="865" 
d="M180 663q81 0 123 -51t42 -136q0 -87 -42 -140.5t-126 -53.5q-83 0 -125 53.5t-42 138.5q0 86 42.5 137.5t127.5 51.5zM326 0h-122l337 650h120zM179 579q-61 0 -61 -113q0 -99 59 -99t59 104q0 108 -57 108zM688 368q83 0 125 -53.5t42 -138.5q0 -86 -42.5 -137.5
t-127.5 -51.5q-81 0 -123 51t-42 136q0 87 42 140.5t126 53.5zM688 283q-59 0 -59 -104q0 -108 57 -108q61 0 61 113q0 99 -59 99z" />
    <glyph glyph-name="ampersand" unicode="&#x26;" horiz-adv-x="729" 
d="M364 664q96 0 161 -25v-138q-76 34 -147 34q-96 0 -96 -64q0 -34 37.5 -80t142.5 -149q43 45 83 110h164q-58 -98 -139 -195q117 -110 174 -157h-207q-38 28 -73 58q-103 -76 -220 -76q-104 0 -159 49.5t-55 123.5q0 127 148 212q-46 57 -46 124q0 77 58.5 125t173.5 48z
M239 263q-30 -17 -48 -42.5t-18 -49.5q0 -26 20 -43.5t58 -17.5q24 0 54 11.5t49 29.5q-89 84 -115 112z" />
    <glyph glyph-name="quotesingle" unicode="'" horiz-adv-x="316" 
d="M209 478h-101l-23 245h146z" />
    <glyph glyph-name="parenleft" unicode="(" horiz-adv-x="323" 
d="M161 708h157q-63 -121 -93 -219.5t-30 -208.5q0 -109 30 -207.5t93 -219.5h-157q-61 114 -88.5 213.5t-27.5 213.5q0 115 27.5 214.5t88.5 213.5z" />
    <glyph glyph-name="parenright" unicode=")" horiz-adv-x="323" 
d="M5 708h157q61 -114 88.5 -213.5t27.5 -214.5q0 -114 -27.5 -213.5t-88.5 -213.5h-157q63 121 93 219.5t30 207.5q0 110 -30 208.5t-93 219.5z" />
    <glyph glyph-name="asterisk" unicode="*" horiz-adv-x="365" 
d="M291 609l-71 -86l110 18v-79l-109 17l72 -89l-72 -38l-39 104l-40 -105l-68 39l71 89l-110 -17v79l111 -18l-72 87l69 40l40 -105l39 105z" />
    <glyph glyph-name="plus" unicode="+" horiz-adv-x="547" 
d="M346 214v-166h-145v166h-166v145h166v166h145v-166h166v-145h-166z" />
    <glyph glyph-name="comma" unicode="," horiz-adv-x="233" 
d="M127 -131h-132l56 286h162z" />
    <glyph glyph-name="hyphen" unicode="-" horiz-adv-x="460" 
d="M425 223h-390v145h390v-145z" />
    <glyph glyph-name="period" unicode="." horiz-adv-x="252" 
d="M207 0h-162v155h162v-155z" />
    <glyph glyph-name="slash" unicode="/" horiz-adv-x="528" 
d="M175 -80h-155l329 764h159z" />
    <glyph glyph-name="zero" unicode="0" horiz-adv-x="690" 
d="M341 662q150 0 227.5 -89t77.5 -250q0 -156 -80.5 -245.5t-226.5 -89.5q-141 0 -218 89t-77 246q0 161 75 250t222 89zM341 534q-65 0 -102.5 -55t-37.5 -157q0 -105 39 -154.5t101 -49.5q64 0 106 50t42 154q0 100 -41.5 156t-106.5 56z" />
    <glyph glyph-name="one" unicode="1" horiz-adv-x="450" 
d="M355 0h-150v500l-178 -26v122l328 66v-662z" />
    <glyph glyph-name="two" unicode="2" horiz-adv-x="610" 
d="M325 660q101 0 171.5 -55t70.5 -165q0 -87 -73.5 -160.5t-213.5 -149.5h276v-130h-505v134q180 100 269.5 172t89.5 129q0 95 -135 95q-89 0 -198 -30v127q110 33 248 33z" />
    <glyph glyph-name="three" unicode="3" horiz-adv-x="629" 
d="M568 545l-154 -149q64 -12 115.5 -62.5t51.5 -119.5q0 -226 -296 -226q-98 0 -223 31v131q128 -32 212 -32q67 0 108.5 25t41.5 72q0 55 -48.5 74.5t-163.5 20.5h-9v60l163 150h-299v130h501v-105z" />
    <glyph glyph-name="four" unicode="4" horiz-adv-x="672" 
d="M384 650h188q-257 -251 -360 -406h188v142h151v-142h96v-130h-96v-114h-151v114h-361v121q114 180 345 415z" />
    <glyph glyph-name="five" unicode="5" horiz-adv-x="606" 
d="M516 520h-300l-7 -114q56 10 99 10q119 0 186.5 -56.5t67.5 -147.5q0 -103 -74.5 -163t-214.5 -60q-108 0 -225 31v132q134 -33 210 -33q147 0 147 94q0 78 -133 78q-102 0 -213 -23l29 382h428v-130z" />
    <glyph glyph-name="six" unicode="6" horiz-adv-x="650" 
d="M551 660v-138q-60 3 -114 3.5t-110.5 -21.5t-98.5 -68q41 31 126 31q119 0 186 -66t67 -171q0 -110 -74 -176t-201 -66q-130 0 -208.5 70t-78.5 214q0 82 27.5 151t84.5 125t158 86t236 26zM326 344q-57 0 -90.5 -30t-33.5 -85q0 -54 31.5 -83.5t89.5 -29.5q65 0 96 33.5
t31 81.5q0 47 -30.5 80t-93.5 33z" />
    <glyph glyph-name="seven" unicode="7" horiz-adv-x="577" 
d="M551 650v-103q-92 -133 -178.5 -289.5t-124.5 -257.5h-168q67 155 158 312.5t132 207.5h-334v130h515z" />
    <glyph glyph-name="eight" unicode="8" horiz-adv-x="650" 
d="M324 662q115 0 185 -47.5t70 -141.5q0 -84 -90 -135q44 -13 75 -53.5t31 -89.5q0 -207 -271 -207q-270 0 -270 207q0 49 31 89.5t75 53.5q-90 52 -90 135q0 93 70 140.5t184 48.5zM325 543q-47 0 -72.5 -22.5t-25.5 -53.5q0 -30 26 -54t71 -24t71.5 24t26.5 54
q0 31 -25.5 53.5t-71.5 22.5zM325 283q-60 0 -87 -25.5t-27 -59.5q0 -38 32 -61.5t81 -23.5q50 0 82 23.5t32 61.5q0 34 -26.5 59.5t-86.5 25.5z" />
    <glyph glyph-name="nine" unicode="9" horiz-adv-x="650" 
d="M316 662q130 0 208.5 -70t78.5 -214q0 -65 -16.5 -122t-54.5 -108.5t-95 -87.5t-144 -55.5t-196 -16.5v138q60 -3 114 -3t110.5 22.5t98.5 68.5q-41 -31 -126 -31q-119 0 -186 66t-67 171q0 110 74 176t201 66zM325 534q-65 0 -96 -33.5t-31 -81.5q0 -47 30.5 -80
t93.5 -33q57 0 90.5 30t33.5 85q0 54 -31.5 83.5t-89.5 29.5z" />
    <glyph glyph-name="colon" unicode=":" horiz-adv-x="252" 
d="M207 325h-162v155h162v-155zM207 0h-162v155h162v-155z" />
    <glyph glyph-name="semicolon" unicode=";" horiz-adv-x="286" 
d="M241 325h-162v155h162v-155zM153 -131h-132l56 286h162z" />
    <glyph glyph-name="less" unicode="&#x3c;" horiz-adv-x="594" 
d="M559 450l-391 -135l391 -134v-140l-524 196v157l524 196v-140z" />
    <glyph glyph-name="equal" unicode="=" horiz-adv-x="560" 
d="M525 508v-145h-490v145h490zM525 258v-145h-490v145h490z" />
    <glyph glyph-name="greater" unicode="&#x3e;" horiz-adv-x="594" 
d="M559 394v-157l-524 -196v140l391 134l-391 135v140z" />
    <glyph glyph-name="question" unicode="?" horiz-adv-x="535" 
d="M241 660q133 0 206 -45t73 -130q0 -55 -28 -95.5t-62.5 -59l-75 -39t-54.5 -35.5q-9 -9 -10 -26h-152q-4 19 -4 36q0 37 22 64t53.5 42.5t63.5 28.5t54 30t22 39q0 30 -27 41.5t-84 11.5q-90 0 -227 -33v139q131 31 230 31zM298 0h-162v155h162v-155z" />
    <glyph glyph-name="at" unicode="@" horiz-adv-x="957" 
d="M490 700q118 0 213 -41.5t154.5 -131.5t59.5 -216q0 -128 -57 -204.5t-142 -76.5q-39 0 -72 21.5t-46 45.5q-68 -44 -132 -43q-91 1 -154.5 58.5t-63.5 158.5q0 94 59.5 155t143.5 61q75 0 127 -38l11 32h90v-299q0 -34 32 -34t55.5 45.5t23.5 113.5q0 72 -23.5 125.5
t-65.5 85.5t-95 47.5t-117 15.5q-146 0 -235 -83.5t-89 -226.5q0 -139 97 -231.5t257 -92.5q59 0 117 8v-113q-70 -10 -113 -10q-218 0 -351.5 123t-133.5 316q0 196 124.5 312.5t325.5 116.5zM478 371q-50 0 -77.5 -26t-27.5 -74t29.5 -76t79.5 -28q49 0 76 21v163
q-33 20 -80 20z" />
    <glyph glyph-name="A" unicode="A" horiz-adv-x="683" 
d="M527 0l-38 118h-307l-36 -118h-161q112 365 246 650h216q145 -306 251 -650h-171zM225 249h220q-55 157 -111 286q-54 -124 -109 -286z" />
    <glyph glyph-name="B" unicode="B" horiz-adv-x="702" 
d="M70 650h267q291 0 291 -166q0 -46 -29 -86t-86 -60v-3q58 -9 101 -47.5t43 -97.5q0 -190 -282 -190h-305v650zM225 525v-139h118q57 0 89.5 15t32.5 57q0 41 -32 54t-86 13h-122zM225 275v-150h149q62 0 91.5 16.5t29.5 56.5q0 45 -33.5 61t-98.5 16h-138z" />
    <glyph glyph-name="C" unicode="C" horiz-adv-x="657" 
d="M421 662q104 0 195 -28v-138q-92 30 -182 30q-113 0 -172.5 -52t-59.5 -148q0 -100 64 -151.5t165 -50.5q79 1 186 32v-146q-104 -22 -198 -22q-168 0 -273.5 83.5t-105.5 253.5q0 84 32 150.5t86 106t121 60t142 20.5z" />
    <glyph glyph-name="D" unicode="D" horiz-adv-x="727" 
d="M70 650h259q72 0 131.5 -15t111.5 -49.5t81 -99t29 -155.5q0 -89 -29.5 -155t-81 -103.5t-114 -55t-137.5 -17.5h-250v650zM225 519v-388h93q202 0 202 197q0 92 -52 141.5t-144 49.5h-99z" />
    <glyph glyph-name="E" unicode="E" horiz-adv-x="627" 
d="M575 519h-350v-124h317v-126h-317v-138h357v-131h-512v650h505v-131z" />
    <glyph glyph-name="F" unicode="F" horiz-adv-x="615" 
d="M575 519h-350v-161h317v-131h-317v-227h-155v650h505v-131z" />
    <glyph glyph-name="G" unicode="G" horiz-adv-x="707" 
d="M421 662q108 0 195 -28v-138q-103 30 -182 30q-112 0 -172 -52t-60 -148q0 -104 60 -152.5t148 -48.5q47 0 88 13v206h149v-321q-132 -33 -252 -33q-71 0 -133 19.5t-112.5 59t-80 106t-29.5 152.5t31.5 152t85.5 105t120.5 58.5t143.5 19.5z" />
    <glyph glyph-name="H" unicode="H" horiz-adv-x="737" 
d="M667 0h-155v252h-287v-252h-155v650h155v-267h287v267h155v-650z" />
    <glyph glyph-name="I" unicode="I" horiz-adv-x="295" 
d="M225 0h-155v650h155v-650z" />
    <glyph glyph-name="J" unicode="J" horiz-adv-x="496" 
d="M431 650v-435q0 -107 -63.5 -166t-183.5 -59q-89 0 -179 22v136q81 -23 156 -23q69 0 92 28.5t23 91.5v405h155z" />
    <glyph glyph-name="K" unicode="K" horiz-adv-x="695" 
d="M225 0h-155v650h155v-650zM474 650h208q-187 -214 -262 -326q42 -40 92 -96t83.5 -97.5l67.5 -84.5t37 -46h-205q-114 155 -256 313q79 142 235 337z" />
    <glyph glyph-name="L" unicode="L" horiz-adv-x="536" 
d="M225 131h306v-131h-461v650h155v-519z" />
    <glyph glyph-name="M" unicode="M" horiz-adv-x="910" 
d="M564 650h224q50 -259 87 -650h-151q-25 283 -60 496q-80 -232 -136 -435h-146q-56 203 -136 435q-35 -213 -60 -496h-151q37 391 87 650h224q95 -302 109 -365q16 71 109 365z" />
    <glyph glyph-name="N" unicode="N" horiz-adv-x="749" 
d="M679 0h-154l-303 438v-438h-152v649h179l278 -407v407h152v-649z" />
    <glyph glyph-name="O" unicode="O" horiz-adv-x="781" 
d="M391 662q65 0 125.5 -20.5t111.5 -59.5t82 -104t31 -147q0 -90 -29 -158t-79.5 -107t-111.5 -58.5t-131 -19.5t-131 19.5t-111 58.5t-79 107t-29 158q0 82 31 147.5t82 104.5t112 59t126 20zM390 524q-81 0 -134.5 -51.5t-53.5 -142.5q0 -104 56 -155t133 -51t132.5 51
t55.5 155q0 91 -54 142.5t-135 51.5z" />
    <glyph glyph-name="P" unicode="P" horiz-adv-x="689" 
d="M70 650h302q285 0 285 -235q0 -65 -26 -113t-69 -73.5t-90 -37.5t-99 -12h-148v-179h-155v650zM225 519v-209h134q66 0 101 22.5t35 86.5q0 57 -36 78.5t-103 21.5h-131z" />
    <glyph glyph-name="Q" unicode="Q" horiz-adv-x="781" 
d="M391 662q65 0 125.5 -20.5t111.5 -59.5t82 -104t31 -147q0 -167 -100 -259l85 -97l-115 -95l-111 119q-51 -13 -110 -13q-70 0 -131 19.5t-111 59.5t-79 108t-29 158q0 82 31 147.5t82 104.5t112 59t126 20zM390 524q-81 0 -134.5 -51.5t-53.5 -142.5q0 -104 56 -156
t133 -52t132.5 52t55.5 156q0 91 -54 142.5t-135 51.5z" />
    <glyph glyph-name="R" unicode="R" horiz-adv-x="692" 
d="M675 0h-194q-82 135 -152 207h-104v-207h-155v650h306q41 0 77 -5.5t73 -20t62.5 -38t42 -63t16.5 -90.5q0 -72 -44.5 -125.5t-113.5 -69.5q97 -102 186 -238zM228 338h121q68 0 102 22.5t34 72.5q0 86 -139 86h-118v-181z" />
    <glyph glyph-name="S" unicode="S" horiz-adv-x="643" 
d="M332 662q89 0 226 -33v-136q-54 13 -80 18.5t-69 10.5t-88 5q-122 0 -122 -58q0 -36 67 -54l171 -45q166 -43 166 -176q0 -99 -73 -152.5t-215 -53.5q-130 0 -265 36v141q161 -42 246 -42q78 0 112.5 13t34.5 43q0 46 -88 68l-165 42q-72 19 -111 65.5t-39 112.5
q0 195 292 195z" />
    <glyph glyph-name="T" unicode="T" horiz-adv-x="623" 
d="M603 519h-214v-519h-155v519h-214v131h583v-131z" />
    <glyph glyph-name="U" unicode="U" horiz-adv-x="738" 
d="M673 650v-352q0 -310 -306 -310q-302 0 -302 310v352h155v-353q0 -85 39.5 -128t109.5 -43t109.5 43t39.5 128v353h155z" />
    <glyph glyph-name="V" unicode="V" horiz-adv-x="673" 
d="M518 650h170q-111 -374 -243 -650h-225q-144 308 -235 650h167q102 -351 182 -528q86 193 184 528z" />
    <glyph glyph-name="W" unicode="W" horiz-adv-x="938" 
d="M779 650h154q-59 -322 -141 -650h-215q-78 241 -108 371q-27 -108 -112 -371h-210q-79 319 -142 650h155q38 -262 99 -492q89 250 126 403h170q36 -146 125 -403q61 230 99 492z" />
    <glyph glyph-name="X" unicode="X" horiz-adv-x="652" 
d="M424 327l248 -327h-193l-154 213l-158 -213h-187l247 327l-246 323h198l144 -216l143 216h194z" />
    <glyph glyph-name="Y" unicode="Y" horiz-adv-x="632" 
d="M469 650h178q-26 -56 -102 -189.5t-154 -246.5v-214h-154v217q-31 42 -60 85.5t-52.5 83l-43 73.5t-36.5 67.5l-27 54l-21 43.5t-12 26h176q10 -31 63 -136t90 -153q53 69 155 289z" />
    <glyph glyph-name="Z" unicode="Z" horiz-adv-x="625" 
d="M595 562l-347 -431h339v-131h-557v88l347 431h-332v131h550v-88z" />
    <glyph glyph-name="bracketleft" unicode="[" horiz-adv-x="342" 
d="M342 708v-121h-121v-611h121v-122h-272v854h272z" />
    <glyph glyph-name="backslash" unicode="\" horiz-adv-x="528" 
d="M179 684l329 -764h-155l-333 764h159z" />
    <glyph glyph-name="bracketright" unicode="]" horiz-adv-x="342" 
d="M272 -146h-272v122h121v611h-121v121h272v-854z" />
    <glyph glyph-name="asciicircum" unicode="^" horiz-adv-x="499" 
d="M459 271h-120l-90 243l-88 -243h-121l158 379h103z" />
    <glyph glyph-name="underscore" unicode="_" horiz-adv-x="520" 
d="M520 -300h-520v136h520v-136z" />
    <glyph glyph-name="grave" unicode="`" horiz-adv-x="277" 
d="M247 591h-116l-101 145h143z" />
    <glyph glyph-name="a" unicode="a" horiz-adv-x="629" 
d="M298 524q266 0 266 -212v-312h-119l-14 45q-85 -57 -186 -57q-95 0 -150 48.5t-55 122.5q0 57 34.5 94.5t80.5 51t100 13.5q84 0 158 -27v20q0 95 -160 95q-63 0 -171 -30v123q84 25 216 25zM196 156q0 -26 24.5 -41.5t71.5 -15.5q49 0 121 35v62q-46 22 -124 22
q-93 0 -93 -62z" />
    <glyph glyph-name="b" unicode="b" horiz-adv-x="671" 
d="M359 524q119 0 198 -67t79 -197q0 -125 -80 -198.5t-191 -73.5q-94 0 -178 48l-11 -36h-111v691h151v-201q72 34 143 34zM337 112q62 0 102 38t40 110q0 68 -37.5 104t-100.5 36q-68 0 -125 -32v-222q53 -34 121 -34z" />
    <glyph glyph-name="c" unicode="c" horiz-adv-x="553" 
d="M323 524q104 0 190 -29v-129q-76 33 -163 33q-68 0 -113 -35.5t-45 -105.5q0 -72 48.5 -108.5t110.5 -36.5q89 0 162 23v-127q-98 -21 -168 -21q-138 0 -224 66.5t-86 199.5q0 129 83.5 199.5t204.5 70.5z" />
    <glyph glyph-name="d" unicode="d" horiz-adv-x="671" 
d="M606 691v-691h-112l-14 44q-81 -54 -174 -54q-115 0 -193 73t-78 196q0 131 78.5 198t198.5 67q71 0 143 -36v203h151zM192 260q0 -73 40 -109.5t102 -36.5q63 0 121 39v210q-60 37 -125 37q-63 0 -100.5 -36t-37.5 -104z" />
    <glyph glyph-name="e" unicode="e" horiz-adv-x="612" 
d="M577 201h-387q5 -36 32 -58t56.5 -28.5t63.5 -6.5q95 0 208 35v-118q-117 -37 -212 -37q-143 0 -223 67.5t-80 204.5q0 128 83 196t202 68q126 0 191.5 -65t65.5 -188v-70zM191 295h231q-1 52 -27 81.5t-74 29.5q-118 0 -130 -111z" />
    <glyph glyph-name="f" unicode="f" horiz-adv-x="390" 
d="M294 723q62 0 109 -17v-122q-37 15 -77 15q-48 0 -63.5 -13.5t-15.5 -49.5v-23h159v-120h-159v-393h-151v393h-106v120h106v32q0 91 55.5 134.5t142.5 43.5z" />
    <glyph glyph-name="g" unicode="g" horiz-adv-x="671" 
d="M606 513v-469q0 -69 -24 -120.5t-66.5 -80t-94.5 -42t-114 -13.5q-123 0 -220 33v127q114 -36 203 -36q73 0 119 26t46 80v12q-73 -40 -149 -40q-115 0 -193 72.5t-78 195.5q0 131 78.5 198t198.5 67q91 0 169 -50l13 40h112zM334 114q63 0 121 39v209q-60 37 -125 37
q-63 0 -100.5 -35.5t-37.5 -103.5q0 -73 40 -109.5t102 -36.5z" />
    <glyph glyph-name="h" unicode="h" horiz-adv-x="668" 
d="M412 524q92 -2 141.5 -48t49.5 -157v-319h-151v300q0 50 -20.5 74.5t-68.5 24.5q-81 0 -146 -48l-1 -351h-151v691h152v-223q97 58 195 56z" />
    <glyph glyph-name="i" unicode="i" horiz-adv-x="281" 
d="M225 586h-169v129h169v-129zM216 0h-151v513h151v-513z" />
    <glyph glyph-name="j" unicode="j" horiz-adv-x="285" 
d="M229 586h-169v129h169v-129zM220 513v-547q0 -91 -58.5 -134.5t-146.5 -43.5q-72 0 -125 19v124q39 -19 93 -19q49 0 67.5 17.5t18.5 53.5v530h151z" />
    <glyph glyph-name="k" unicode="k" horiz-adv-x="614" 
d="M216 0h-151v691h151v-691zM413 513h182q-128 -148 -201 -247q85 -78 230 -266h-184q-83 122 -214 257q96 152 187 256z" />
    <glyph glyph-name="l" unicode="l" horiz-adv-x="281" 
d="M216 0h-151v691h151v-691z" />
    <glyph glyph-name="m" unicode="m" horiz-adv-x="1025" 
d="M769 524q91 0 141 -47t50 -158v-319h-151v300q0 50 -20.5 74.5t-68.5 24.5q-40 0 -76.5 -16t-56.5 -33q1 -10 1 -31v-319h-151v300q0 50 -20.5 74.5t-68.5 24.5q-39 0 -75.5 -16t-56.5 -32v-351h-151v513h122l16 -54q84 65 194 65q119 0 163 -78q96 78 209 78z" />
    <glyph glyph-name="n" unicode="n" horiz-adv-x="668" 
d="M412 524q91 0 141 -47t50 -158v-319h-151v300q0 50 -20.5 74.5t-68.5 24.5q-80 0 -147 -48v-351h-151v513h122l16 -54q99 65 209 65z" />
    <glyph glyph-name="o" unicode="o" horiz-adv-x="658" 
d="M330 524q133 0 213 -70t80 -198t-80 -198t-213 -70q-134 0 -214.5 69.5t-80.5 198.5q0 128 80.5 198t214.5 70zM326 399q-60 0 -97 -38.5t-37 -104.5q0 -63 38.5 -103t101.5 -40q60 0 97 40.5t37 102.5q0 68 -38.5 105.5t-101.5 37.5z" />
    <glyph glyph-name="p" unicode="p" horiz-adv-x="671" 
d="M359 524q118 0 197.5 -67t79.5 -197q0 -125 -80 -198.5t-191 -73.5q-80 0 -149 31v-219h-151v713h112l11 -37q90 48 171 48zM337 112q62 0 102 38t40 110q0 68 -37.5 104t-100.5 36q-66 0 -125 -33v-223q52 -32 121 -32z" />
    <glyph glyph-name="q" unicode="q" horiz-adv-x="671" 
d="M606 513v-713h-151v230q-73 -40 -149 -40q-115 0 -193 73t-78 196q0 131 78.5 198t198.5 67q90 0 170 -50l12 39h112zM334 115q63 0 121 39v209q-60 37 -125 37q-63 0 -100.5 -36t-37.5 -104q0 -72 40 -108.5t102 -36.5z" />
    <glyph glyph-name="r" unicode="r" horiz-adv-x="426" 
d="M187 513l17 -56q94 65 204 67v-144q-102 1 -192 -51v-329h-151v513h122z" />
    <glyph glyph-name="s" unicode="s" horiz-adv-x="547" 
d="M288 524q112 0 191 -33v-120q-99 34 -181 34q-117 0 -117 -37q0 -15 11 -20.5t50 -14.5l15 -3l104 -23q79 -18 115 -54.5t36 -95.5q0 -78 -63 -123.5t-199 -45.5q-47 0 -108.5 10.5t-96.5 22.5v124q105 -35 201 -35q67 0 91.5 10t24.5 32q0 15 -15 25t-63 20l-112 23
q-78 16 -107.5 53.5t-29.5 94.5q0 80 68 118t185 38z" />
    <glyph glyph-name="t" unicode="t" horiz-adv-x="413" 
d="M388 513v-120h-160v-200q0 -40 16.5 -60t60.5 -20q41 0 83 14v-120q-53 -19 -115 -19q-89 0 -142.5 41.5t-53.5 136.5v227h-87v120h93l17 131h128v-131h160z" />
    <glyph glyph-name="u" unicode="u" horiz-adv-x="658" 
d="M593 513v-513h-122l-16 54q-100 -66 -199 -66q-91 0 -141 47t-50 159v319h151v-300q0 -50 20.5 -75t68.5 -25q69 0 137 49v351h151z" />
    <glyph glyph-name="v" unicode="v" horiz-adv-x="570" 
d="M419 513h161q-14 -45 -36.5 -109.5t-76 -190.5t-104.5 -213h-156q-51 87 -104.5 213t-76 190.5t-36.5 109.5h161q15 -53 58 -183t76 -202q33 72 76 202t58 183z" />
    <glyph glyph-name="w" unicode="w" horiz-adv-x="880" 
d="M726 513h159q-9 -39 -28.5 -108t-64 -193.5t-88.5 -211.5h-164q-71 180 -100 290q-32 -121 -100 -290h-165q-44 87 -88.5 212t-63 192.5t-28.5 108.5h159q13 -63 44.5 -184t59.5 -193q20 49 43 129t43 163t20 85h152q0 -2 20 -85t43 -163t43 -129q28 72 59.5 193
t44.5 184z" />
    <glyph glyph-name="x" unicode="x" horiz-adv-x="583" 
d="M384 253l209 -253h-183l-124 159l-113 -159h-182l198 253l-199 260h188l110 -171l115 171h180z" />
    <glyph glyph-name="y" unicode="y" horiz-adv-x="590" 
d="M436 513h164q-35 -99 -147 -346t-197 -367h-157q72 116 118 199q-70 131 -140.5 297.5t-86.5 216.5h164q17 -60 138 -370q76 159 144 370z" />
    <glyph glyph-name="z" unicode="z" horiz-adv-x="571" 
d="M529 415l-292 -295h294v-120h-491v98l292 295h-284v120h481v-98z" />
    <glyph glyph-name="braceleft" unicode="{" horiz-adv-x="393" 
d="M5 346v-129q47 -1 81 -26q38 -29 38 -101v-34q0 -97 65.5 -146.5t213.5 -55.5v121q-81 4 -104.5 24.5t-23.5 62.5v38q0 79 -19 116q-27 54 -108 65q82 11 109 65q18 35 18 115v36q0 42 23.5 63.5t104.5 26.5v121q-279 -10 -279 -202v-36q0 -71 -38 -100q-22 -16 -37 -20
t-44 -4z" />
    <glyph glyph-name="bar" unicode="|" horiz-adv-x="291" 
d="M221 -250h-151v1000h151v-1000z" />
    <glyph glyph-name="braceright" unicode="}" horiz-adv-x="393" 
d="M388 217v129q-29 0 -44 4t-37 20q-38 29 -38 100v36q0 192 -279 202v-121q81 -5 104.5 -26.5t23.5 -63.5v-36q0 -80 18 -115q27 -54 109 -65q-81 -11 -108 -65q-19 -37 -19 -116v-38q0 -42 -23.5 -62.5t-104.5 -24.5v-121q148 6 213.5 55.5t65.5 146.5v34q0 72 38 101
q34 25 81 26z" />
    <glyph glyph-name="asciitilde" unicode="~" horiz-adv-x="559" 
d="M417 405h107q0 -68 -40.5 -114t-105.5 -46q-41 0 -97 21.5t-82 21.5q-48 0 -63 -47h-101q0 68 43 114t109 46q42 0 98 -23t83 -23q40 0 49 50z" />
    <glyph glyph-name="uni00A0" unicode="&#xa0;" horiz-adv-x="241" 
 />
    <glyph glyph-name="exclamdown" unicode="&#xa1;" horiz-adv-x="253" 
d="M46 358v155h162v-155h-162zM54 279h145l12 -416h-169z" />
    <glyph glyph-name="cent" unicode="&#xa2;" horiz-adv-x="553" 
d="M350 464q-68 0 -113 -35.5t-45 -105.5t48.5 -106.5t110.5 -36.5q89 0 162 23v-127q-66 -14 -118 -18v-87h-151v94q-97 21 -153 85t-56 169q0 106 58 173t151 88v101h151v-95q56 -5 118 -26v-129q-76 33 -163 33z" />
    <glyph glyph-name="sterling" unicode="&#xa3;" horiz-adv-x="556" 
d="M551 0h-481v88q75 60 75 170v34h-89v120h89v58q0 192 202 192q75 0 134 -17v-122q-50 15 -102 15q-48 0 -63.5 -15.5t-15.5 -51.5v-59h124v-120h-124v-16q0 -66 -10 -93t-39 -52h300v-131z" />
    <glyph glyph-name="currency" unicode="&#xa4;" horiz-adv-x="600" 
d="M564 516l-65 -66q34 -58 34 -118t-34 -116l66 -65l-68 -69l-66 66q-56 -34 -116 -34q-61 0 -117 34l-67 -66l-68 68l66 66q-34 55 -34 117q0 60 34 118l-66 65l68 68l66 -66q61 35 116 35q57 0 119 -35l65 65zM314 452q-50 0 -84 -35t-34 -85q0 -49 34.5 -83t83.5 -34
q50 0 84 33.5t34 83.5q0 49 -35.5 84.5t-82.5 35.5z" />
    <glyph glyph-name="yen" unicode="&#xa5;" horiz-adv-x="703" 
d="M490 650h180q-37 -70 -147 -227h131v-120h-223v-67h223v-116h-223v-120h-152v120h-221v116h221v67h-221v120h128q-105 147 -143 227h174q25 -53 66 -123.5t72 -111.5q61 82 135 235z" />
    <glyph glyph-name="brokenbar" unicode="&#xa6;" horiz-adv-x="291" 
d="M70 751h151v-421h-151v421zM221 -250h-151v420h151v-420z" />
    <glyph glyph-name="section" unicode="&#xa7;" horiz-adv-x="524" 
d="M366 186q51 -25 74.5 -54t23.5 -70q0 -72 -49 -109t-165 -37q-84 0 -170 22v127q81 -25 167 -25q27 0 41.5 2.5t18 6t3.5 10.5q0 16 -41 35l-101 46q-108 49 -108 133q0 39 21.5 67t71.5 50q-93 45 -93 135q0 137 207 137q80 0 157 -18v-127q-73 21 -153 21
q-34 0 -45 -4.5t-11 -14.5q0 -9 7.5 -15.5t38.5 -21.5l95 -47q60 -30 84 -59.5t24 -68.5q0 -41 -22.5 -70t-75.5 -51zM263 343l-13 6q-36 -25 -36 -62q0 -19 10.5 -31t36.5 -23l11 -5q38 26 38 63q0 18 -10 29t-37 23z" />
    <glyph glyph-name="dieresis" unicode="&#xa8;" horiz-adv-x="439" 
d="M179 586h-149v129h149v-129zM409 586h-149v129h149v-129z" />
    <glyph glyph-name="copyright" unicode="&#xa9;" horiz-adv-x="832" 
d="M792 362q0 159 -107.5 267.5t-268.5 108.5t-268.5 -108.5t-107.5 -267.5q0 -160 107 -266.5t269 -106.5q160 0 268 108t108 265zM738 362q0 -135 -94 -227t-228 -92q-136 0 -228.5 93.5t-92.5 225.5q0 135 93 228t228 93q134 0 228 -94t94 -227zM422 568q79 0 146 -22
v-99q-61 25 -126 25q-52 0 -86.5 -27.5t-34.5 -80.5q0 -55 37 -82.5t85 -27.5q71 0 125 17v-97q-76 -16 -129 -16q-107 0 -173 51t-66 152q0 99 64 153t158 54z" />
    <glyph glyph-name="ordfeminine" unicode="&#xaa;" horiz-adv-x="570" 
d="M282 663q223 0 223 -182v-258h-119l-9 28q-66 -36 -136 -36q-82 0 -129 41t-47 105q0 69 54.5 101.5t129.5 32.5q51 0 109 -15q0 66 -111 66q-47 0 -148 -29v123q74 23 183 23zM217 359q0 -29 61 -29q32 0 80 22v29q-34 13 -83 13q-58 0 -58 -35zM65 147h440v-145h-440
v145z" />
    <glyph glyph-name="guillemotleft" unicode="&#xab;" horiz-adv-x="583" 
d="M181 265l109 -194h-118l-117 196l116 194h119zM418 265l110 -194h-119l-117 196l117 194h118z" />
    <glyph glyph-name="logicalnot" unicode="&#xac;" horiz-adv-x="560" 
d="M380 77v168h-345v145h490v-313h-145z" />
    <glyph glyph-name="softhyphen" unicode="&#xad;" horiz-adv-x="460" 
d="M425 223h-390v145h390v-145z" />
    <glyph glyph-name="registered" unicode="&#xae;" horiz-adv-x="522" 
d="M261 662q95 0 158 -64t63 -157t-63.5 -156.5t-157.5 -63.5q-95 0 -158 62.5t-63 157.5q0 93 63 157t158 64zM261 267q73 0 124 50t51 124q0 72 -51 123t-124 51t-124 -50.5t-51 -123.5q0 -72 50.5 -123t124.5 -51zM369 483q0 -25 -15.5 -44t-38.5 -26q35 -42 64 -90h-74
q-21 39 -54 77h-28v-77h-63v237h111q98 0 98 -77zM224 454h37q24 0 33 6t9 23q0 24 -43 24h-36v-53z" />
    <glyph glyph-name="macron" unicode="&#xaf;" horiz-adv-x="382" 
d="M352 592h-322v106h322v-106z" />
    <glyph glyph-name="degree" unicode="&#xb0;" horiz-adv-x="350" 
d="M135 514q-52 0 -88.5 36.5t-36.5 88.5t36.5 88.5t88.5 36.5t88.5 -36.5t36.5 -88.5t-36.5 -88.5t-88.5 -36.5zM135 578q25 0 43 18t18 43t-18 43t-43 18t-43 -18t-18 -43t18 -43t43 -18z" />
    <glyph glyph-name="plusminus" unicode="&#xb1;" horiz-adv-x="569" 
d="M352 176h-145v88h-156v145h156v144h145v-144h166v-145h-166v-88zM518 0h-467v145h467v-145z" />
    <glyph glyph-name="twosuperior" unicode="&#xb2;" 
d="M206 754q57 0 97.5 -31.5t40.5 -89.5q0 -52 -38.5 -90.5t-113.5 -79.5h146v-79h-287v80q101 57 148.5 93t47.5 65q0 52 -69 52q-33 0 -113 -22v80q73 22 141 22z" />
    <glyph glyph-name="threesuperior" unicode="&#xb3;" 
d="M334 683l-82 -83q45 -8 69 -36t24 -68q0 -121 -171 -121q-59 0 -127 18v80q69 -18 121 -18q36 0 58 11t22 31q0 26 -27 37t-88 11h-9v39l83 82h-157v78h284v-61z" />
    <glyph glyph-name="acute" unicode="&#xb4;" horiz-adv-x="277" 
d="M146 591h-116l74 145h143z" />
    <glyph glyph-name="uni00B5" unicode="&#xb5;" horiz-adv-x="658" 
d="M593 0h-122l-16 54q-97 -64 -199 -64q-19 0 -40 7v-197h-151v713h151v-300q0 -50 20.5 -74.5t68.5 -24.5q70 0 137 48v351h151v-513z" />
    <glyph glyph-name="paragraph" unicode="&#xb6;" horiz-adv-x="671" 
d="M601 -75h-151v605h-69v-605h-151v311q-95 8 -147.5 61.5t-52.5 138.5q0 107 71 160.5t191 53.5h309v-725z" />
    <glyph glyph-name="periodcentered" unicode="&#xb7;" horiz-adv-x="252" 
d="M207 217h-162v155h162v-155z" />
    <glyph glyph-name="cedilla" unicode="&#xb8;" horiz-adv-x="268" 
d="M176 5l-13 -37q75 -13 75 -82q0 -93 -115 -93q-43 0 -93 14v73q55 -17 93 -17q39 0 39 25t-43 25q-24 0 -42 -3l31 95h68z" />
    <glyph glyph-name="onesuperior" unicode="&#xb9;" 
d="M194 384v261l-119 -17v82l214 42v-368h-95z" />
    <glyph glyph-name="ordmasculine" unicode="&#xba;" horiz-adv-x="561" 
d="M282 663q110 0 177 -59t67 -166q0 -106 -66.5 -164.5t-177.5 -58.5q-112 0 -179.5 58t-67.5 165q0 108 67.5 166.5t179.5 58.5zM279 543q-44 0 -71 -28.5t-27 -76.5q0 -45 28 -74t75 -29q43 0 70 29.5t27 73.5q0 50 -28 77.5t-74 27.5zM501 0h-440v145h440v-145z" />
    <glyph glyph-name="guillemotright" unicode="&#xbb;" horiz-adv-x="583" 
d="M291 267l-117 -196h-119l110 194l-109 196h118zM528 267l-117 -196h-118l109 194l-109 196h119z" />
    <glyph glyph-name="onequarter" unicode="&#xbc;" horiz-adv-x="911" 
d="M194 284v261l-119 -17v82l214 42v-368h-95zM343 0h-122l337 650h120zM895 69h-59v-69h-95v69h-207v70q74 116 159 221h116q-99 -113 -161 -212h93v86h95v-86h59v-79z" />
    <glyph glyph-name="onehalf" unicode="&#xbd;" horiz-adv-x="935" 
d="M194 284v261l-119 -17v82l214 42v-368h-95zM343 0h-122l337 650h120zM741 370q57 0 97.5 -31.5t40.5 -89.5q0 -52 -38.5 -90.5t-113.5 -79.5h146v-79h-287v80q101 57 148.5 93t47.5 65q0 52 -69 52q-33 0 -113 -22v80q73 22 141 22z" />
    <glyph glyph-name="threequarters" unicode="&#xbe;" horiz-adv-x="920" 
d="M334 589l-82 -83q45 -8 69 -36t24 -68q0 -121 -171 -121q-59 0 -127 18v80q69 -18 121 -18q36 0 58 11t22 31q0 26 -27 37t-88 11h-9v39l83 82h-157v78h284v-61zM229 0h122l335 650h-120zM904 69h-59v-69h-95v69h-207v70q74 116 159 221h116q-99 -113 -161 -212h93v86h95
v-86h59v-79z" />
    <glyph glyph-name="questiondown" unicode="&#xbf;" horiz-adv-x="555" 
d="M257 513h162v-155h-162v155zM314 -147q-133 0 -206 45t-73 130q0 55 28 95.5t62.5 59l75 39t54.5 35.5q9 9 10 26h152q4 -19 4 -36q0 -37 -22 -64t-53.5 -42.5t-63.5 -28.5t-54 -30t-22 -39q0 -30 27 -41.5t84 -11.5q89 0 227 33v-139q-131 -31 -230 -31z" />
    <glyph glyph-name="Agrave" unicode="&#xc0;" horiz-adv-x="683" 
d="M295 710l-101 145h143l74 -145h-116zM527 0l-38 118h-307l-36 -118h-161q112 365 246 650h216q145 -306 251 -650h-171zM225 249h220q-55 157 -111 286q-54 -124 -109 -286z" />
    <glyph glyph-name="Aacute" unicode="&#xc1;" horiz-adv-x="683" 
d="M386 710h-116l74 145h143zM527 0l-38 118h-307l-36 -118h-161q112 365 246 650h216q145 -306 251 -650h-171zM225 249h220q-55 157 -111 286q-54 -124 -109 -286z" />
    <glyph glyph-name="Acircumflex" unicode="&#xc2;" horiz-adv-x="683" 
d="M273 710h-116l107 145h155l107 -145h-116l-68 73zM527 0l-38 118h-307l-36 -118h-161q112 365 246 650h216q145 -306 251 -650h-171zM225 249h220q-55 157 -111 286q-54 -124 -109 -286z" />
    <glyph glyph-name="Atilde" unicode="&#xc3;" horiz-adv-x="683" 
d="M281 756q-17 0 -24 -8t-13 -28h-88q6 56 35 91t82 35q30 0 66.5 -19t49.5 -19q17 0 24 8t13 28h88q-6 -56 -35 -91t-82 -35q-30 0 -66.5 19t-49.5 19zM527 0l-38 118h-307l-36 -118h-161q112 365 246 650h216q145 -306 251 -650h-171zM225 249h220q-55 157 -111 286
q-54 -124 -109 -286z" />
    <glyph glyph-name="Adieresis" unicode="&#xc4;" horiz-adv-x="683" 
d="M301 706h-149v129h149v-129zM531 706h-149v129h149v-129zM527 0l-38 118h-307l-36 -118h-161q112 365 246 650h216q145 -306 251 -650h-171zM225 249h220q-55 157 -111 286q-54 -124 -109 -286z" />
    <glyph glyph-name="Aring" unicode="&#xc5;" horiz-adv-x="683" 
d="M342 693q-52 0 -80.5 25t-28.5 67t28.5 67t80.5 25t80.5 -25t28.5 -67t-28.5 -67t-80.5 -25zM342 821q-49 0 -49 -36t49 -36t49 36t-49 36zM527 0l-38 118h-307l-36 -118h-161q112 365 246 650h216q145 -306 251 -650h-171zM225 249h220q-55 157 -111 286
q-54 -124 -109 -286z" />
    <glyph glyph-name="AE" unicode="&#xc6;" horiz-adv-x="1021" 
d="M976 131v-131h-472v118h-275l-71 -118h-178q254 422 450 650h539v-131h-310v-124h277v-126h-277v-138h317zM504 249l1 276q-99 -132 -193 -276h192z" />
    <glyph glyph-name="Ccedilla" unicode="&#xc7;" horiz-adv-x="657" 
d="M617 156v-146q-101 -22 -194 -22l-7 -20q75 -13 75 -82q0 -93 -115 -93q-43 0 -93 14v73q55 -17 93 -17q39 0 39 25t-43 25q-24 0 -42 -3l26 81q-143 14 -229.5 97t-86.5 237q0 84 32 150.5t86 106t121 60t142 20.5q104 0 195 -28v-138q-92 30 -182 30q-113 0 -172.5 -52
t-59.5 -148q0 -100 64 -151.5t165 -50.5q79 1 186 32z" />
    <glyph glyph-name="Egrave" unicode="&#xc8;" horiz-adv-x="627" 
d="M394 710h-116l-101 145h143zM575 519h-350v-124h317v-126h-317v-138h357v-131h-512v650h505v-131z" />
    <glyph glyph-name="Eacute" unicode="&#xc9;" horiz-adv-x="627" 
d="M369 710h-116l74 145h143zM575 519h-350v-124h317v-126h-317v-138h357v-131h-512v650h505v-131z" />
    <glyph glyph-name="Ecircumflex" unicode="&#xca;" horiz-adv-x="627" 
d="M509 710h-116l-68 73l-69 -73h-116l107 145h155zM575 519h-350v-124h317v-126h-317v-138h357v-131h-512v650h505v-131z" />
    <glyph glyph-name="Edieresis" unicode="&#xcb;" horiz-adv-x="627" 
d="M284 706h-149v129h149v-129zM514 706h-149v129h149v-129zM575 519h-350v-124h317v-126h-317v-138h357v-131h-512v650h505v-131z" />
    <glyph glyph-name="Igrave" unicode="&#xcc;" horiz-adv-x="295" 
d="M217 710h-116l-101 145h143zM225 0h-155v650h155v-650z" />
    <glyph glyph-name="Iacute" unicode="&#xcd;" horiz-adv-x="295" 
d="M192 710h-116l74 145h143zM225 0h-155v650h155v-650z" />
    <glyph glyph-name="Icircumflex" unicode="&#xce;" horiz-adv-x="295" 
d="M332 710h-116l-68 73l-69 -73h-116l107 145h155zM225 0h-155v650h155v-650z" />
    <glyph glyph-name="Idieresis" unicode="&#xcf;" horiz-adv-x="295" 
d="M107 706h-149v129h149v-129zM337 706h-149v129h149v-129zM225 0h-155v650h155v-650z" />
    <glyph glyph-name="Eth" unicode="&#xd0;" horiz-adv-x="727" 
d="M70 650h259q72 0 131.5 -15t111.5 -49.5t81 -99t29 -155.5q0 -89 -29.5 -155t-81 -103.5t-114 -55t-137.5 -17.5h-250v258h-70v131h70v261zM225 131h93q202 0 202 197q0 92 -52 141.5t-144 49.5h-99v-130h115v-131h-115v-127z" />
    <glyph glyph-name="Ntilde" unicode="&#xd1;" horiz-adv-x="749" 
d="M474 844h88q-6 -56 -35 -91t-82 -35q-30 0 -66.5 19t-49.5 19q-17 0 -24 -8t-13 -28h-88q6 56 35 91t82 35q30 0 66.5 -19t49.5 -19q17 0 24 8t13 28zM679 0h-154l-303 438v-438h-152v649h179l278 -407v407h152v-649z" />
    <glyph glyph-name="Ograve" unicode="&#xd2;" horiz-adv-x="781" 
d="M460 710h-116l-101 145h143zM391 662q65 0 125.5 -20.5t111.5 -59.5t82 -104t31 -147q0 -90 -29 -158t-79.5 -107t-111.5 -58.5t-131 -19.5t-131 19.5t-111 58.5t-79 107t-29 158q0 82 31 147.5t82 104.5t112 59t126 20zM390 524q-81 0 -134.5 -51.5t-53.5 -142.5
q0 -104 56 -155t133 -51t132.5 51t55.5 155q0 91 -54 142.5t-135 51.5z" />
    <glyph glyph-name="Oacute" unicode="&#xd3;" horiz-adv-x="781" 
d="M435 710h-116l74 145h143zM391 662q65 0 125.5 -20.5t111.5 -59.5t82 -104t31 -147q0 -90 -29 -158t-79.5 -107t-111.5 -58.5t-131 -19.5t-131 19.5t-111 58.5t-79 107t-29 158q0 82 31 147.5t82 104.5t112 59t126 20zM390 524q-81 0 -134.5 -51.5t-53.5 -142.5
q0 -104 56 -155t133 -51t132.5 51t55.5 155q0 91 -54 142.5t-135 51.5z" />
    <glyph glyph-name="Ocircumflex" unicode="&#xd4;" horiz-adv-x="781" 
d="M575 710h-116l-68 73l-69 -73h-116l107 145h155zM391 662q65 0 125.5 -20.5t111.5 -59.5t82 -104t31 -147q0 -90 -29 -158t-79.5 -107t-111.5 -58.5t-131 -19.5t-131 19.5t-111 58.5t-79 107t-29 158q0 82 31 147.5t82 104.5t112 59t126 20zM390 524q-81 0 -134.5 -51.5
t-53.5 -142.5q0 -104 56 -155t133 -51t132.5 51t55.5 155q0 91 -54 142.5t-135 51.5z" />
    <glyph glyph-name="Otilde" unicode="&#xd5;" horiz-adv-x="781" 
d="M475 844h88q-6 -56 -35 -91t-82 -35q-30 0 -66.5 19t-49.5 19q-17 0 -24 -8t-13 -28h-88q6 56 35 91t82 35q30 0 66.5 -19t49.5 -19q17 0 24 8t13 28zM391 662q65 0 125.5 -20.5t111.5 -59.5t82 -104t31 -147q0 -90 -29 -158t-79.5 -107t-111.5 -58.5t-131 -19.5
t-131 19.5t-111 58.5t-79 107t-29 158q0 82 31 147.5t82 104.5t112 59t126 20zM390 524q-81 0 -134.5 -51.5t-53.5 -142.5q0 -104 56 -155t133 -51t132.5 51t55.5 155q0 91 -54 142.5t-135 51.5z" />
    <glyph glyph-name="Odieresis" unicode="&#xd6;" horiz-adv-x="781" 
d="M350 706h-149v129h149v-129zM580 706h-149v129h149v-129zM391 662q65 0 125.5 -20.5t111.5 -59.5t82 -104t31 -147q0 -90 -29 -158t-79.5 -107t-111.5 -58.5t-131 -19.5t-131 19.5t-111 58.5t-79 107t-29 158q0 82 31 147.5t82 104.5t112 59t126 20zM390 524
q-81 0 -134.5 -51.5t-53.5 -142.5q0 -104 56 -155t133 -51t132.5 51t55.5 155q0 91 -54 142.5t-135 51.5z" />
    <glyph glyph-name="multiply" unicode="&#xd7;" horiz-adv-x="547" 
d="M493 169l-102 -102l-117 117l-118 -117l-102 102l117 118l-117 117l102 102l118 -117l117 117l102 -102l-117 -117z" />
    <glyph glyph-name="Oslash" unicode="&#xd8;" horiz-adv-x="781" 
d="M707 600l-44 -52q78 -86 78 -217q0 -90 -29 -158t-79.5 -107t-111.5 -58.5t-131 -19.5q-94 0 -171 34l-50 -60l-95 79l45 53q-79 89 -79 237q0 82 31 147.5t82 104.5t112 59t126 20q92 0 173 -39l48 56zM202 330q0 -62 23 -110l244 289q-36 15 -79 15q-81 0 -134.5 -51.5
t-53.5 -142.5zM391 124q77 0 132.5 51t55.5 155q0 53 -20 95l-242 -288q35 -13 74 -13z" />
    <glyph glyph-name="Ugrave" unicode="&#xd9;" horiz-adv-x="738" 
d="M438 710h-116l-101 145h143zM673 650v-352q0 -310 -306 -310q-302 0 -302 310v352h155v-353q0 -85 39.5 -128t109.5 -43t109.5 43t39.5 128v353h155z" />
    <glyph glyph-name="Uacute" unicode="&#xda;" horiz-adv-x="738" 
d="M413 710h-116l74 145h143zM673 650v-352q0 -310 -306 -310q-302 0 -302 310v352h155v-353q0 -85 39.5 -128t109.5 -43t109.5 43t39.5 128v353h155z" />
    <glyph glyph-name="Ucircumflex" unicode="&#xdb;" horiz-adv-x="738" 
d="M553 710h-116l-68 73l-69 -73h-116l107 145h155zM673 650v-352q0 -310 -306 -310q-302 0 -302 310v352h155v-353q0 -85 39.5 -128t109.5 -43t109.5 43t39.5 128v353h155z" />
    <glyph glyph-name="Udieresis" unicode="&#xdc;" horiz-adv-x="738" 
d="M328 706h-149v129h149v-129zM558 706h-149v129h149v-129zM673 650v-352q0 -310 -306 -310q-302 0 -302 310v352h155v-353q0 -85 39.5 -128t109.5 -43t109.5 43t39.5 128v353h155z" />
    <glyph glyph-name="Yacute" unicode="&#xdd;" horiz-adv-x="632" 
d="M360 710h-116l74 145h143zM469 650h178q-26 -56 -102 -189.5t-154 -246.5v-214h-154v217q-31 42 -60 85.5t-52.5 83l-43 73.5t-36.5 67.5l-27 54l-21 43.5t-12 26h176q10 -31 63 -136t90 -153q53 69 155 289z" />
    <glyph glyph-name="Thorn" unicode="&#xde;" horiz-adv-x="689" 
d="M225 561h147q285 0 285 -235q0 -65 -26 -113t-69 -73.5t-90 -37.5t-99 -12h-148v-90h-155v650h155v-89zM225 430v-209h134q66 0 101 22.5t35 86.5q0 57 -36 78.5t-103 21.5h-131z" />
    <glyph glyph-name="germandbls" unicode="&#xdf;" horiz-adv-x="655" 
d="M301 723q102 0 172 -41t70 -112q0 -44 -13.5 -73t-32 -42t-37.5 -21.5t-32.5 -19.5t-13.5 -29q0 -16 11 -25t48 -25l61 -25q49 -20 76 -57.5t27 -85.5q0 -179 -235 -179q-72 0 -151 28v136q30 -18 73.5 -29t78.5 -11q77 0 77 48q0 18 -13 31t-47 25l-83 30
q-80 30 -80 121q0 35 13.5 59.5t33 37t38.5 22.5t32.5 23.5t12.5 32.5q-1 57 -85 57q-52 0 -69 -19t-17 -64v-516h-151v510q0 112 58 162.5t178 50.5z" />
    <glyph glyph-name="agrave" unicode="&#xe0;" horiz-adv-x="629" 
d="M269 591l-101 145h143l74 -145h-116zM298 524q266 0 266 -212v-312h-119l-14 45q-85 -57 -186 -57q-95 0 -150 48.5t-55 122.5q0 57 34.5 94.5t80.5 51t100 13.5q84 0 158 -27v20q0 95 -160 95q-63 0 -171 -30v123q84 25 216 25zM196 156q0 -26 24.5 -41.5t71.5 -15.5
q49 0 121 35v62q-46 22 -124 22q-93 0 -93 -62z" />
    <glyph glyph-name="aacute" unicode="&#xe1;" horiz-adv-x="629" 
d="M361 591h-116l74 145h143zM298 524q266 0 266 -212v-312h-119l-14 45q-85 -57 -186 -57q-95 0 -150 48.5t-55 122.5q0 57 34.5 94.5t80.5 51t100 13.5q84 0 158 -27v20q0 95 -160 95q-63 0 -171 -30v123q84 25 216 25zM196 156q0 -26 24.5 -41.5t71.5 -15.5q49 0 121 35
v62q-46 22 -124 22q-93 0 -93 -62z" />
    <glyph glyph-name="acircumflex" unicode="&#xe2;" horiz-adv-x="629" 
d="M246 591h-116l107 145h155l107 -145h-116l-68 73zM298 524q266 0 266 -212v-312h-119l-14 45q-85 -57 -186 -57q-95 0 -150 48.5t-55 122.5q0 57 34.5 94.5t80.5 51t100 13.5q84 0 158 -27v20q0 95 -160 95q-63 0 -171 -30v123q84 25 216 25zM196 156q0 -26 24.5 -41.5
t71.5 -15.5q49 0 121 35v62q-46 22 -124 22q-93 0 -93 -62z" />
    <glyph glyph-name="atilde" unicode="&#xe3;" horiz-adv-x="629" 
d="M261 636q-17 0 -24 -8t-13 -28h-88q6 56 35 91t82 35q30 0 66.5 -19t49.5 -19q17 0 24 8t13 28h88q-6 -56 -35 -91t-82 -35q-30 0 -66.5 19t-49.5 19zM298 524q266 0 266 -212v-312h-119l-14 45q-85 -57 -186 -57q-95 0 -150 48.5t-55 122.5q0 57 34.5 94.5t80.5 51
t100 13.5q84 0 158 -27v20q0 95 -160 95q-63 0 -171 -30v123q84 25 216 25zM196 156q0 -26 24.5 -41.5t71.5 -15.5q49 0 121 35v62q-46 22 -124 22q-93 0 -93 -62z" />
    <glyph glyph-name="adieresis" unicode="&#xe4;" horiz-adv-x="629" 
d="M274 586h-149v129h149v-129zM504 586h-149v129h149v-129zM298 524q266 0 266 -212v-312h-119l-14 45q-85 -57 -186 -57q-95 0 -150 48.5t-55 122.5q0 57 34.5 94.5t80.5 51t100 13.5q84 0 158 -27v20q0 95 -160 95q-63 0 -171 -30v123q84 25 216 25zM196 156
q0 -26 24.5 -41.5t71.5 -15.5q49 0 121 35v62q-46 22 -124 22q-93 0 -93 -62z" />
    <glyph glyph-name="aring" unicode="&#xe5;" horiz-adv-x="629" 
d="M315 574q-52 0 -80.5 25t-28.5 67t28.5 67t80.5 25t80.5 -25t28.5 -67t-28.5 -67t-80.5 -25zM315 702q-49 0 -49 -36t49 -36t49 36t-49 36zM298 524q266 0 266 -212v-312h-119l-14 45q-85 -57 -186 -57q-95 0 -150 48.5t-55 122.5q0 57 34.5 94.5t80.5 51t100 13.5
q84 0 158 -27v20q0 95 -160 95q-63 0 -171 -30v123q84 25 216 25zM196 156q0 -26 24.5 -41.5t71.5 -15.5q49 0 121 35v62q-46 22 -124 22q-93 0 -93 -62z" />
    <glyph glyph-name="ae" unicode="&#xe6;" horiz-adv-x="991" 
d="M694 524q130 0 196 -65t66 -188v-70h-387q7 -51 52 -72t100 -21q95 0 208 35v-118q-117 -37 -212 -37q-151 0 -232 77q-109 -77 -240 -77q-95 0 -150 48.5t-55 122.5q0 57 34.5 94.5t80.5 51t100 13.5q84 0 158 -27v20q0 95 -160 95q-63 0 -171 -30v123q84 25 216 25
q144 0 208 -71q75 71 188 71zM700 406q-117 0 -130 -111h231q-1 52 -27 81.5t-74 29.5zM289 218q-93 0 -93 -62q0 -26 24.5 -41.5t71.5 -15.5q58 0 141 46q-8 20 -13 48q-47 25 -131 25z" />
    <glyph glyph-name="ccedilla" unicode="&#xe7;" horiz-adv-x="553" 
d="M350 399q-68 0 -113 -35.5t-45 -105.5q0 -72 48.5 -108.5t110.5 -36.5q89 0 162 23v-127q-96 -21 -166 -21l-7 -20q75 -13 75 -82q0 -93 -115 -93q-43 0 -93 14v73q55 -17 93 -17q39 0 39 25t-43 25q-24 0 -42 -3l27 82q-112 14 -179 80t-67 182q0 129 83.5 199.5
t204.5 70.5q104 0 190 -29v-129q-76 33 -163 33z" />
    <glyph glyph-name="egrave" unicode="&#xe8;" horiz-adv-x="612" 
d="M271 591l-101 145h143l74 -145h-116zM577 201h-387q5 -36 32 -58t56.5 -28.5t63.5 -6.5q95 0 208 35v-118q-117 -37 -212 -37q-143 0 -223 67.5t-80 204.5q0 128 83 196t202 68q126 0 191.5 -65t65.5 -188v-70zM191 295h231q-1 52 -27 81.5t-74 29.5q-118 0 -130 -111z
" />
    <glyph glyph-name="eacute" unicode="&#xe9;" horiz-adv-x="612" 
d="M363 591h-116l74 145h143zM577 201h-387q5 -36 32 -58t56.5 -28.5t63.5 -6.5q95 0 208 35v-118q-117 -37 -212 -37q-143 0 -223 67.5t-80 204.5q0 128 83 196t202 68q126 0 191.5 -65t65.5 -188v-70zM191 295h231q-1 52 -27 81.5t-74 29.5q-118 0 -130 -111z" />
    <glyph glyph-name="ecircumflex" unicode="&#xea;" horiz-adv-x="612" 
d="M248 591h-116l107 145h155l107 -145h-116l-68 73zM577 201h-387q5 -36 32 -58t56.5 -28.5t63.5 -6.5q95 0 208 35v-118q-117 -37 -212 -37q-143 0 -223 67.5t-80 204.5q0 128 83 196t202 68q126 0 191.5 -65t65.5 -188v-70zM191 295h231q-1 52 -27 81.5t-74 29.5
q-118 0 -130 -111z" />
    <glyph glyph-name="edieresis" unicode="&#xeb;" horiz-adv-x="612" 
d="M276 586h-149v129h149v-129zM506 586h-149v129h149v-129zM577 201h-387q5 -36 32 -58t56.5 -28.5t63.5 -6.5q95 0 208 35v-118q-117 -37 -212 -37q-143 0 -223 67.5t-80 204.5q0 128 83 196t202 68q126 0 191.5 -65t65.5 -188v-70zM191 295h231q-1 52 -27 81.5t-74 29.5
q-118 0 -130 -111z" />
    <glyph glyph-name="igrave" unicode="&#xec;" horiz-adv-x="281" 
d="M211 591h-116l-101 145h143zM216 0h-151v513h151v-513z" />
    <glyph glyph-name="iacute" unicode="&#xed;" horiz-adv-x="281" 
d="M187 591h-116l74 145h143zM216 0h-151v513h151v-513z" />
    <glyph glyph-name="icircumflex" unicode="&#xee;" horiz-adv-x="281" 
d="M141 664l-69 -73h-116l107 145h155l107 -145h-116zM216 0h-151v513h151v-513z" />
    <glyph glyph-name="idieresis" unicode="&#xef;" horiz-adv-x="281" 
d="M100 586h-149v129h149v-129zM330 586h-149v129h149v-129zM216 0h-151v513h151v-513z" />
    <glyph glyph-name="eth" unicode="&#xf0;" horiz-adv-x="658" 
d="M524 657l-52 -29q151 -108 151 -322q0 -156 -79.5 -237t-213.5 -81q-132 0 -213.5 67t-81.5 181q0 123 71.5 185.5t173.5 62.5q98 0 164 -47q-29 76 -106 118l-92 -51l-44 66l37 20q-31 8 -73 13l41 120q106 -14 184 -49l89 49zM332 113q60 0 95.5 46t38.5 134
q-66 66 -147 66q-127 0 -127 -123q0 -48 39.5 -85.5t100.5 -37.5z" />
    <glyph glyph-name="ntilde" unicode="&#xf1;" horiz-adv-x="668" 
d="M280 636q-17 0 -24 -8t-13 -28h-88q6 56 35 91t82 35q30 0 66.5 -19t49.5 -19q17 0 24 8t13 28h88q-6 -56 -35 -91t-82 -35q-30 0 -66.5 19t-49.5 19zM412 524q91 0 141 -47t50 -158v-319h-151v300q0 50 -20.5 74.5t-68.5 24.5q-80 0 -147 -48v-351h-151v513h122l16 -54
q99 65 209 65z" />
    <glyph glyph-name="ograve" unicode="&#xf2;" horiz-adv-x="658" 
d="M400 591h-116l-101 145h143zM330 524q133 0 213 -70t80 -198t-80 -198t-213 -70q-134 0 -214.5 69.5t-80.5 198.5q0 128 80.5 198t214.5 70zM326 399q-60 0 -97 -38.5t-37 -104.5q0 -63 38.5 -103t101.5 -40q60 0 97 40.5t37 102.5q0 68 -38.5 105.5t-101.5 37.5z" />
    <glyph glyph-name="oacute" unicode="&#xf3;" horiz-adv-x="658" 
d="M376 591h-116l74 145h143zM330 524q133 0 213 -70t80 -198t-80 -198t-213 -70q-134 0 -214.5 69.5t-80.5 198.5q0 128 80.5 198t214.5 70zM326 399q-60 0 -97 -38.5t-37 -104.5q0 -63 38.5 -103t101.5 -40q60 0 97 40.5t37 102.5q0 68 -38.5 105.5t-101.5 37.5z" />
    <glyph glyph-name="ocircumflex" unicode="&#xf4;" horiz-adv-x="658" 
d="M330 664l-69 -73h-116l107 145h155l107 -145h-116zM330 524q133 0 213 -70t80 -198t-80 -198t-213 -70q-134 0 -214.5 69.5t-80.5 198.5q0 128 80.5 198t214.5 70zM326 399q-60 0 -97 -38.5t-37 -104.5q0 -63 38.5 -103t101.5 -40q60 0 97 40.5t37 102.5
q0 68 -38.5 105.5t-101.5 37.5z" />
    <glyph glyph-name="otilde" unicode="&#xf5;" horiz-adv-x="658" 
d="M421 724h88q-6 -56 -35 -91t-82 -35q-30 0 -66.5 19t-49.5 19q-17 0 -24 -8t-13 -28h-88q6 56 35 91t82 35q30 0 66.5 -19t49.5 -19q17 0 24 8t13 28zM330 524q133 0 213 -70t80 -198t-80 -198t-213 -70q-134 0 -214.5 69.5t-80.5 198.5q0 128 80.5 198t214.5 70z
M326 399q-60 0 -97 -38.5t-37 -104.5q0 -63 38.5 -103t101.5 -40q60 0 97 40.5t37 102.5q0 68 -38.5 105.5t-101.5 37.5z" />
    <glyph glyph-name="odieresis" unicode="&#xf6;" horiz-adv-x="658" 
d="M289 586h-149v129h149v-129zM519 586h-149v129h149v-129zM330 524q133 0 213 -70t80 -198t-80 -198t-213 -70q-134 0 -214.5 69.5t-80.5 198.5q0 128 80.5 198t214.5 70zM326 399q-60 0 -97 -38.5t-37 -104.5q0 -63 38.5 -103t101.5 -40q60 0 97 40.5t37 102.5
q0 68 -38.5 105.5t-101.5 37.5z" />
    <glyph glyph-name="divide" unicode="&#xf7;" horiz-adv-x="560" 
d="M361 409h-162v135h162v-135zM35 359h490v-145h-490v145zM361 29h-162v135h162v-135z" />
    <glyph glyph-name="oslash" unicode="&#xf8;" horiz-adv-x="658" 
d="M593 490l-39 -46q69 -71 69 -188q0 -128 -80 -198t-213 -70q-81 0 -141 25l-45 -54l-79 61l40 47q-70 72 -70 189q0 128 80.5 198t214.5 70q76 0 140 -25l44 52zM192 256q0 -38 15 -68l172 203q-26 8 -53 8q-60 0 -97 -38.5t-37 -104.5zM332 113q60 0 97 40.5t37 102.5
q0 37 -13 68l-172 -203q24 -8 51 -8z" />
    <glyph glyph-name="ugrave" unicode="&#xf9;" horiz-adv-x="658" 
d="M283 591l-101 145h143l74 -145h-116zM593 513v-513h-122l-16 54q-100 -66 -199 -66q-91 0 -141 47t-50 159v319h151v-300q0 -50 20.5 -75t68.5 -25q69 0 137 49v351h151z" />
    <glyph glyph-name="uacute" unicode="&#xfa;" horiz-adv-x="658" 
d="M375 591h-116l74 145h143zM593 513v-513h-122l-16 54q-100 -66 -199 -66q-91 0 -141 47t-50 159v319h151v-300q0 -50 20.5 -75t68.5 -25q69 0 137 49v351h151z" />
    <glyph glyph-name="ucircumflex" unicode="&#xfb;" horiz-adv-x="658" 
d="M260 591h-116l107 145h155l107 -145h-116l-68 73zM593 513v-513h-122l-16 54q-100 -66 -199 -66q-91 0 -141 47t-50 159v319h151v-300q0 -50 20.5 -75t68.5 -25q69 0 137 49v351h151z" />
    <glyph glyph-name="udieresis" unicode="&#xfc;" horiz-adv-x="658" 
d="M288 586h-149v129h149v-129zM518 586h-149v129h149v-129zM593 513v-513h-122l-16 54q-100 -66 -199 -66q-91 0 -141 47t-50 159v319h151v-300q0 -50 20.5 -75t68.5 -25q69 0 137 49v351h151z" />
    <glyph glyph-name="yacute" unicode="&#xfd;" horiz-adv-x="590" 
d="M341 591h-116l74 145h143zM436 513h164q-35 -99 -147 -346t-197 -367h-157q72 116 118 199q-70 131 -140.5 297.5t-86.5 216.5h164q17 -60 138 -370q76 159 144 370z" />
    <glyph glyph-name="thorn" unicode="&#xfe;" horiz-adv-x="671" 
d="M359 523q118 0 197.5 -66.5t79.5 -196.5q0 -125 -80 -197.5t-191 -72.5q-80 0 -149 31v-221h-151v891h151v-201q75 33 143 33zM337 114q62 0 102 37t40 109q0 68 -37.5 103.5t-100.5 35.5q-68 0 -125 -32v-221q52 -32 121 -32z" />
    <glyph glyph-name="ydieresis" unicode="&#xff;" horiz-adv-x="590" 
d="M254 586h-149v129h149v-129zM484 586h-149v129h149v-129zM436 513h164q-35 -99 -147 -346t-197 -367h-157q72 116 118 199q-70 131 -140.5 297.5t-86.5 216.5h164q17 -60 138 -370q76 159 144 370z" />
    <glyph glyph-name="Amacron" unicode="&#x100;" horiz-adv-x="683" 
d="M497 722h-322v106h322v-106zM527 0l-38 118h-307l-36 -118h-161q112 365 246 650h216q145 -306 251 -650h-171zM225 249h220q-55 157 -111 286q-54 -124 -109 -286z" />
    <glyph glyph-name="amacron" unicode="&#x101;" horiz-adv-x="629" 
d="M476 592h-322v106h322v-106zM298 524q266 0 266 -212v-312h-119l-14 45q-85 -57 -186 -57q-95 0 -150 48.5t-55 122.5q0 57 34.5 94.5t80.5 51t100 13.5q84 0 158 -27v20q0 95 -160 95q-63 0 -171 -30v123q84 25 216 25zM196 156q0 -26 24.5 -41.5t71.5 -15.5
q49 0 121 35v62q-46 22 -124 22q-93 0 -93 -62z" />
    <glyph glyph-name="Abreve" unicode="&#x102;" horiz-adv-x="683" 
d="M337 708q-152 0 -164 139h101q6 -28 20 -41.5t43 -13.5q31 0 44 13t19 42h101q-4 -60 -42 -99.5t-122 -39.5zM527 0l-38 118h-307l-36 -118h-161q112 365 246 650h216q145 -306 251 -650h-171zM225 249h220q-55 157 -111 286q-54 -124 -109 -286z" />
    <glyph glyph-name="abreve" unicode="&#x103;" horiz-adv-x="629" 
d="M315 584q-152 0 -164 139h101q6 -28 20 -41.5t43 -13.5q31 0 44 13t19 42h101q-4 -60 -42 -99.5t-122 -39.5zM298 524q266 0 266 -212v-312h-119l-14 45q-85 -57 -186 -57q-95 0 -150 48.5t-55 122.5q0 57 34.5 94.5t80.5 51t100 13.5q84 0 158 -27v20q0 95 -160 95
q-63 0 -171 -30v123q84 25 216 25zM196 156q0 -26 24.5 -41.5t71.5 -15.5q49 0 121 35v62q-46 22 -124 22q-93 0 -93 -62z" />
    <glyph glyph-name="Aogonek" unicode="&#x104;" horiz-adv-x="683" 
d="M543 -99q42 0 88 23l1 -86q-45 -20 -100 -20q-113 0 -113 76q0 38 34 69t72 43l-36 112h-307l-36 -118h-161q112 365 246 650h216q145 -306 251 -650h-81q-47 -20 -75 -42t-28 -39q0 -10 6 -14t23 -4zM225 249h220q-55 157 -111 286q-54 -124 -109 -286z" />
    <glyph glyph-name="aogonek" unicode="&#x105;" horiz-adv-x="629" 
d="M564 0h-28q-47 -20 -75 -42t-28 -39q0 -10 6 -14t23 -4q42 0 88 23l1 -86q-45 -20 -100 -20q-113 0 -113 76q0 38 33.5 68.5t71.5 43.5l-12 39q-85 -57 -186 -57q-95 0 -150 48.5t-55 122.5q0 57 34.5 94.5t80.5 51t100 13.5q84 0 158 -27v20q0 95 -160 95
q-63 0 -171 -30v123q84 25 216 25q266 0 266 -212v-312zM196 156q0 -26 24.5 -41.5t71.5 -15.5q49 0 121 35v62q-46 22 -124 22q-93 0 -93 -62z" />
    <glyph glyph-name="Cacute" unicode="&#x106;" horiz-adv-x="657" 
d="M446 710h-116l74 145h143zM421 662q104 0 195 -28v-138q-92 30 -182 30q-113 0 -172.5 -52t-59.5 -148q0 -100 64 -151.5t165 -50.5q79 1 186 32v-146q-104 -22 -198 -22q-168 0 -273.5 83.5t-105.5 253.5q0 84 32 150.5t86 106t121 60t142 20.5z" />
    <glyph glyph-name="cacute" unicode="&#x107;" horiz-adv-x="553" 
d="M366 591h-116l74 145h143zM323 524q104 0 190 -29v-129q-76 33 -163 33q-68 0 -113 -35.5t-45 -105.5q0 -72 48.5 -108.5t110.5 -36.5q89 0 162 23v-127q-98 -21 -168 -21q-138 0 -224 66.5t-86 199.5q0 129 83.5 199.5t204.5 70.5z" />
    <glyph glyph-name="Ccircumflex" unicode="&#x108;" horiz-adv-x="657" 
d="M586 710h-116l-68 73l-69 -73h-116l107 145h155zM421 662q104 0 195 -28v-138q-92 30 -182 30q-113 0 -172.5 -52t-59.5 -148q0 -100 64 -151.5t165 -50.5q79 1 186 32v-146q-104 -22 -198 -22q-168 0 -273.5 83.5t-105.5 253.5q0 84 32 150.5t86 106t121 60t142 20.5z
" />
    <glyph glyph-name="ccircumflex" unicode="&#x109;" horiz-adv-x="553" 
d="M320 664l-69 -73h-116l107 145h155l107 -145h-116zM323 524q104 0 190 -29v-129q-76 33 -163 33q-68 0 -113 -35.5t-45 -105.5q0 -72 48.5 -108.5t110.5 -36.5q89 0 162 23v-127q-98 -21 -168 -21q-138 0 -224 66.5t-86 199.5q0 129 83.5 199.5t204.5 70.5z" />
    <glyph glyph-name="Cdotaccent" unicode="&#x10a;" horiz-adv-x="657" 
d="M476 706h-149v129h149v-129zM421 662q104 0 195 -28v-138q-92 30 -182 30q-113 0 -172.5 -52t-59.5 -148q0 -100 64 -151.5t165 -50.5q79 1 186 32v-146q-104 -22 -198 -22q-168 0 -273.5 83.5t-105.5 253.5q0 84 32 150.5t86 106t121 60t142 20.5z" />
    <glyph glyph-name="cdotaccent" unicode="&#x10b;" horiz-adv-x="553" 
d="M394 586h-149v129h149v-129zM323 524q104 0 190 -29v-129q-76 33 -163 33q-68 0 -113 -35.5t-45 -105.5q0 -72 48.5 -108.5t110.5 -36.5q89 0 162 23v-127q-98 -21 -168 -21q-138 0 -224 66.5t-86 199.5q0 129 83.5 199.5t204.5 70.5z" />
    <glyph glyph-name="Ccaron" unicode="&#x10c;" horiz-adv-x="657" 
d="M479 710h-155l-107 145h116l69 -73l68 73h116zM421 662q104 0 195 -28v-138q-92 30 -182 30q-113 0 -172.5 -52t-59.5 -148q0 -100 64 -151.5t165 -50.5q79 1 186 32v-146q-104 -22 -198 -22q-168 0 -273.5 83.5t-105.5 253.5q0 84 32 150.5t86 106t121 60t142 20.5z" />
    <glyph glyph-name="ccaron" unicode="&#x10d;" horiz-adv-x="553" 
d="M397 591h-155l-107 145h116l69 -73l68 73h116zM323 524q104 0 190 -29v-129q-76 33 -163 33q-68 0 -113 -35.5t-45 -105.5q0 -72 48.5 -108.5t110.5 -36.5q89 0 162 23v-127q-98 -21 -168 -21q-138 0 -224 66.5t-86 199.5q0 129 83.5 199.5t204.5 70.5z" />
    <glyph glyph-name="Dcaron" unicode="&#x10e;" horiz-adv-x="727" 
d="M401 710h-155l-107 145h116l69 -73l68 73h116zM70 650h259q72 0 131.5 -15t111.5 -49.5t81 -99t29 -155.5q0 -89 -29.5 -155t-81 -103.5t-114 -55t-137.5 -17.5h-250v650zM225 519v-388h93q202 0 202 197q0 92 -52 141.5t-144 49.5h-99z" />
    <glyph glyph-name="dcaron" unicode="&#x10f;" horiz-adv-x="836" 
d="M455 691h151v-691h-112l-14 44q-81 -54 -174 -54q-115 0 -193 73t-78 196q0 131 78.5 198t198.5 67q71 0 143 -36v203zM836 691l-66 -195h-124l37 195h153zM192 260q0 -73 40 -109.5t102 -36.5q63 0 121 39v210q-60 37 -125 37q-63 0 -100.5 -36t-37.5 -104z" />
    <glyph glyph-name="Dcroat" unicode="&#x110;" horiz-adv-x="727" 
d="M70 650h259q72 0 131.5 -15t111.5 -49.5t81 -99t29 -155.5q0 -89 -29.5 -155t-81 -103.5t-114 -55t-137.5 -17.5h-250v258h-70v131h70v261zM225 131h93q202 0 202 197q0 92 -52 141.5t-144 49.5h-99v-130h115v-131h-115v-127z" />
    <glyph glyph-name="dcroat" unicode="&#x111;" horiz-adv-x="671" 
d="M693 560h-87v-560h-112l-14 44q-81 -54 -174 -54q-115 0 -193 73t-78 196q0 131 78.5 198t198.5 67q71 0 143 -36v72h-130v90h130v41h151v-41h87v-90zM192 260q0 -73 40 -109.5t102 -36.5q63 0 121 39v210q-60 37 -125 37q-63 0 -100.5 -36t-37.5 -104z" />
    <glyph glyph-name="Emacron" unicode="&#x112;" horiz-adv-x="627" 
d="M480 722h-322v106h322v-106zM575 519h-350v-124h317v-126h-317v-138h357v-131h-512v650h505v-131z" />
    <glyph glyph-name="emacron" unicode="&#x113;" horiz-adv-x="612" 
d="M478 592h-322v106h322v-106zM577 201h-387q5 -36 32 -58t56.5 -28.5t63.5 -6.5q95 0 208 35v-118q-117 -37 -212 -37q-143 0 -223 67.5t-80 204.5q0 128 83 196t202 68q126 0 191.5 -65t65.5 -188v-70zM191 295h231q-1 52 -27 81.5t-74 29.5q-118 0 -130 -111z" />
    <glyph glyph-name="Ebreve" unicode="&#x114;" horiz-adv-x="627" 
d="M383 847h101q-4 -60 -42 -99.5t-122 -39.5q-152 0 -164 139h101q6 -28 20 -41.5t43 -13.5q31 0 44 13t19 42zM575 519h-350v-124h317v-126h-317v-138h357v-131h-512v650h505v-131z" />
    <glyph glyph-name="ebreve" unicode="&#x115;" horiz-adv-x="612" 
d="M317 584q-152 0 -164 139h101q6 -28 20 -41.5t43 -13.5q31 0 44 13t19 42h101q-4 -60 -42 -99.5t-122 -39.5zM577 201h-387q5 -36 32 -58t56.5 -28.5t63.5 -6.5q95 0 208 35v-118q-117 -37 -212 -37q-143 0 -223 67.5t-80 204.5q0 128 83 196t202 68q126 0 191.5 -65
t65.5 -188v-70zM191 295h231q-1 52 -27 81.5t-74 29.5q-118 0 -130 -111z" />
    <glyph glyph-name="Edotaccent" unicode="&#x116;" horiz-adv-x="627" 
d="M399 706h-149v129h149v-129zM575 519h-350v-124h317v-126h-317v-138h357v-131h-512v650h505v-131z" />
    <glyph glyph-name="edotaccent" unicode="&#x117;" horiz-adv-x="612" 
d="M391 586h-149v129h149v-129zM577 201h-387q5 -36 32 -58t56.5 -28.5t63.5 -6.5q95 0 208 35v-118q-117 -37 -212 -37q-143 0 -223 67.5t-80 204.5q0 128 83 196t202 68q126 0 191.5 -65t65.5 -188v-70zM191 295h231q-1 52 -27 81.5t-74 29.5q-118 0 -130 -111z" />
    <glyph glyph-name="Eogonek" unicode="&#x118;" horiz-adv-x="627" 
d="M582 0h-91q-47 -20 -75 -42t-28 -39q0 -10 6 -14t23 -4q42 0 88 23l1 -86q-45 -20 -100 -20q-113 0 -113 76q0 34 27 62t63 44h-313v650h505v-131h-350v-124h317v-126h-317v-138h357v-131z" />
    <glyph glyph-name="eogonek" unicode="&#x119;" horiz-adv-x="612" 
d="M577 201h-387q5 -36 32 -58t56.5 -28.5t63.5 -6.5q95 0 208 35v-118q-26 -9 -69 -19q-53 -20 -85.5 -44t-32.5 -43q0 -10 6 -14t23 -4q42 0 88 23l1 -86q-45 -20 -100 -20q-113 0 -113 76q0 53 67 94q-142 1 -221 68t-79 204q0 128 83 196t202 68q126 0 191.5 -65
t65.5 -188v-70zM191 295h231q-1 52 -27 81.5t-74 29.5q-118 0 -130 -111z" />
    <glyph glyph-name="Ecaron" unicode="&#x11a;" horiz-adv-x="627" 
d="M402 710h-155l-107 145h116l69 -73l68 73h116zM575 519h-350v-124h317v-126h-317v-138h357v-131h-512v650h505v-131z" />
    <glyph glyph-name="ecaron" unicode="&#x11b;" horiz-adv-x="612" 
d="M239 591l-107 145h116l69 -73l68 73h116l-107 -145h-155zM577 201h-387q5 -36 32 -58t56.5 -28.5t63.5 -6.5q95 0 208 35v-118q-117 -37 -212 -37q-143 0 -223 67.5t-80 204.5q0 128 83 196t202 68q126 0 191.5 -65t65.5 -188v-70zM191 295h231q-1 52 -27 81.5t-74 29.5
q-118 0 -130 -111z" />
    <glyph glyph-name="Gcircumflex" unicode="&#x11c;" horiz-adv-x="707" 
d="M558 710h-116l-68 73l-69 -73h-116l107 145h155zM421 662q108 0 195 -28v-138q-103 30 -182 30q-112 0 -172 -52t-60 -148q0 -104 60 -152.5t148 -48.5q47 0 88 13v206h149v-321q-132 -33 -252 -33q-71 0 -133 19.5t-112.5 59t-80 106t-29.5 152.5t31.5 152t85.5 105
t120.5 58.5t143.5 19.5z" />
    <glyph glyph-name="gcircumflex" unicode="&#x11d;" horiz-adv-x="671" 
d="M250 591h-116l107 145h155l107 -145h-116l-68 73zM606 513v-469q0 -69 -24 -120.5t-66.5 -80t-94.5 -42t-114 -13.5q-123 0 -220 33v127q114 -36 203 -36q73 0 119 26t46 80v12q-73 -40 -149 -40q-115 0 -193 72.5t-78 195.5q0 131 78.5 198t198.5 67q91 0 169 -50l13 40
h112zM334 114q63 0 121 39v209q-60 37 -125 37q-63 0 -100.5 -35.5t-37.5 -103.5q0 -73 40 -109.5t102 -36.5z" />
    <glyph glyph-name="Gbreve" unicode="&#x11e;" horiz-adv-x="707" 
d="M432 847h101q-4 -60 -42 -99.5t-122 -39.5q-152 0 -164 139h101q6 -28 20 -41.5t43 -13.5q31 0 44 13t19 42zM421 662q108 0 195 -28v-138q-103 30 -182 30q-112 0 -172 -52t-60 -148q0 -104 60 -152.5t148 -48.5q47 0 88 13v206h149v-321q-132 -33 -252 -33
q-71 0 -133 19.5t-112.5 59t-80 106t-29.5 152.5t31.5 152t85.5 105t120.5 58.5t143.5 19.5z" />
    <glyph glyph-name="gbreve" unicode="&#x11f;" horiz-adv-x="671" 
d="M319 584q-152 0 -164 139h101q6 -28 20 -41.5t43 -13.5q31 0 44 13t19 42h101q-4 -60 -42 -99.5t-122 -39.5zM606 513v-469q0 -69 -24 -120.5t-66.5 -80t-94.5 -42t-114 -13.5q-123 0 -220 33v127q114 -36 203 -36q73 0 119 26t46 80v12q-73 -40 -149 -40
q-115 0 -193 72.5t-78 195.5q0 131 78.5 198t198.5 67q91 0 169 -50l13 40h112zM334 114q63 0 121 39v209q-60 37 -125 37q-63 0 -100.5 -35.5t-37.5 -103.5q0 -73 40 -109.5t102 -36.5z" />
    <glyph glyph-name="Gdotaccent" unicode="&#x120;" horiz-adv-x="707" 
d="M448 706h-149v129h149v-129zM421 662q108 0 195 -28v-138q-103 30 -182 30q-112 0 -172 -52t-60 -148q0 -104 60 -152.5t148 -48.5q47 0 88 13v206h149v-321q-132 -33 -252 -33q-71 0 -133 19.5t-112.5 59t-80 106t-29.5 152.5t31.5 152t85.5 105t120.5 58.5t143.5 19.5z
" />
    <glyph glyph-name="gdotaccent" unicode="&#x121;" horiz-adv-x="671" 
d="M393 586h-149v129h149v-129zM606 513v-469q0 -69 -24 -120.5t-66.5 -80t-94.5 -42t-114 -13.5q-123 0 -220 33v127q114 -36 203 -36q73 0 119 26t46 80v12q-73 -40 -149 -40q-115 0 -193 72.5t-78 195.5q0 131 78.5 198t198.5 67q91 0 169 -50l13 40h112zM334 114
q63 0 121 39v209q-60 37 -125 37q-63 0 -100.5 -35.5t-37.5 -103.5q0 -73 40 -109.5t102 -36.5z" />
    <glyph glyph-name="Gcommaaccent" unicode="&#x122;" horiz-adv-x="707" 
d="M421 662q108 0 195 -28v-138q-103 30 -182 30q-112 0 -172 -52t-60 -148q0 -104 60 -152.5t148 -48.5q47 0 88 13v206h149v-321q-132 -33 -252 -33q-71 0 -133 19.5t-112.5 59t-80 106t-29.5 152.5t31.5 152t85.5 105t120.5 58.5t143.5 19.5zM406 -250h-124l37 195h153z
" />
    <glyph glyph-name="gcommaaccent" unicode="&#x123;" horiz-adv-x="671" 
d="M377 591h-153l66 195h124zM606 513v-469q0 -69 -24 -120.5t-66.5 -80t-94.5 -42t-114 -13.5q-123 0 -220 33v127q114 -36 203 -36q73 0 119 26t46 80v12q-73 -40 -149 -40q-115 0 -193 72.5t-78 195.5q0 131 78.5 198t198.5 67q91 0 169 -50l13 40h112zM334 114
q63 0 121 39v209q-60 37 -125 37q-63 0 -100.5 -35.5t-37.5 -103.5q0 -73 40 -109.5t102 -36.5z" />
    <glyph glyph-name="Hcircumflex" unicode="&#x124;" horiz-adv-x="737" 
d="M553 710h-116l-68 73l-69 -73h-116l107 145h155zM667 0h-155v252h-287v-252h-155v650h155v-267h287v267h155v-650z" />
    <glyph glyph-name="hcircumflex" unicode="&#x125;" horiz-adv-x="668" 
d="M185 731h-116l107 145h155l107 -145h-116l-68 73zM412 524q92 -2 141.5 -48t49.5 -157v-319h-151v300q0 50 -20.5 74.5t-68.5 24.5q-81 0 -146 -48l-1 -351h-151v691h152v-223q97 58 195 56z" />
    <glyph glyph-name="Hbar" unicode="&#x126;" horiz-adv-x="737" 
d="M737 478h-70v-478h-155v252h-287v-252h-155v478h-70v90h70v82h155v-82h287v82h155v-82h70v-90zM512 478h-287v-95h287v95z" />
    <glyph glyph-name="hbar" unicode="&#x127;" horiz-adv-x="668" 
d="M412 524q92 -2 141.5 -48t49.5 -157v-319h-151v300q0 50 -20.5 74.5t-68.5 24.5q-81 0 -146 -48l-1 -351h-151v560h-86v90h86v41h152v-41h130v-90h-130v-92q97 58 195 56z" />
    <glyph glyph-name="Itilde" unicode="&#x128;" horiz-adv-x="295" 
d="M232 844h88q-6 -56 -35 -91t-82 -35q-30 0 -66.5 19t-49.5 19q-17 0 -24 -8t-13 -28h-88q6 56 35 91t82 35q30 0 66.5 -19t49.5 -19q17 0 24 8t13 28zM225 0h-155v650h155v-650z" />
    <glyph glyph-name="itilde" unicode="&#x129;" horiz-adv-x="281" 
d="M232 724h88q-6 -56 -35 -91t-82 -35q-30 0 -66.5 19t-49.5 19q-17 0 -24 -8t-13 -28h-88q6 56 35 91t82 35q30 0 66.5 -19t49.5 -19q17 0 24 8t13 28zM216 0h-151v513h151v-513z" />
    <glyph glyph-name="Imacron" unicode="&#x12a;" horiz-adv-x="295" 
d="M303 722h-322v106h322v-106zM225 0h-155v650h155v-650z" />
    <glyph glyph-name="imacron" unicode="&#x12b;" horiz-adv-x="281" 
d="M302 592h-322v106h322v-106zM216 0h-151v513h151v-513z" />
    <glyph glyph-name="Ibreve" unicode="&#x12c;" horiz-adv-x="295" 
d="M206 847h101q-4 -60 -42 -99.5t-122 -39.5q-152 0 -164 139h101q6 -28 20 -41.5t43 -13.5q31 0 44 13t19 42zM225 0h-155v650h155v-650z" />
    <glyph glyph-name="ibreve" unicode="&#x12d;" horiz-adv-x="281" 
d="M204 723h101q-4 -60 -42 -99.5t-122 -39.5q-152 0 -164 139h101q6 -28 20 -41.5t43 -13.5q31 0 44 13t19 42zM216 0h-151v513h151v-513z" />
    <glyph glyph-name="Iogonek" unicode="&#x12e;" horiz-adv-x="295" 
d="M225 0h-63q-47 -20 -75 -42t-28 -39q0 -10 6 -14t23 -4q42 0 88 23l1 -86q-45 -20 -100 -20q-113 0 -113 76q0 38 34 69t72 43v644h155v-650z" />
    <glyph glyph-name="iogonek" unicode="&#x12f;" horiz-adv-x="281" 
d="M215 586h-149v129h149v-129zM216 0h-59q-47 -20 -75 -42t-28 -39q0 -10 6 -14t23 -4q42 0 88 23l1 -86q-45 -20 -100 -20q-113 0 -113 76q0 38 34 69t72 43v507h151v-513z" />
    <glyph glyph-name="Idotaccent" unicode="&#x130;" horiz-adv-x="295" 
d="M222 706h-149v129h149v-129zM225 0h-155v650h155v-650z" />
    <glyph glyph-name="dotlessi" unicode="&#x131;" horiz-adv-x="281" 
d="M216 0h-151v513h151v-513z" />
    <glyph glyph-name="IJ" unicode="&#x132;" horiz-adv-x="791" 
d="M225 0h-155v650h155v-650zM726 650v-435q0 -107 -63.5 -166t-183.5 -59q-89 0 -179 22v136q80 -23 156 -23q69 0 92 28.5t23 91.5v405h155z" />
    <glyph glyph-name="ij" unicode="&#x133;" horiz-adv-x="566" 
d="M225 586h-169v129h169v-129zM510 586h-169v129h169v-129zM216 0h-151v513h151v-513zM501 513v-547q0 -91 -58.5 -134.5t-146.5 -43.5q-72 0 -125 19v124q39 -19 93 -19q49 0 67.5 17.5t18.5 53.5v530h151z" />
    <glyph glyph-name="Jcircumflex" unicode="&#x134;" horiz-adv-x="496" 
d="M422 710h-116l-68 73l-69 -73h-116l107 145h155zM431 650v-435q0 -107 -63.5 -166t-183.5 -59q-89 0 -179 22v136q81 -23 156 -23q69 0 92 28.5t23 91.5v405h155z" />
    <glyph glyph-name="jcircumflex" unicode="&#x135;" horiz-adv-x="285" 
d="M143 664l-69 -73h-116l107 145h155l107 -145h-116zM220 513v-547q0 -91 -58.5 -134.5t-146.5 -43.5q-72 0 -125 19v124q39 -19 93 -19q49 0 67.5 17.5t18.5 53.5v530h151z" />
    <glyph glyph-name="Kcommaaccent" unicode="&#x136;" horiz-adv-x="695" 
d="M225 0h-155v650h155v-650zM474 650h208q-187 -214 -262 -326q42 -40 92 -96t83.5 -97.5l67.5 -84.5t37 -46h-205q-114 155 -256 313q79 142 235 337zM365 -250h-124l37 195h153z" />
    <glyph glyph-name="kcommaaccent" unicode="&#x137;" horiz-adv-x="614" 
d="M216 0h-151v691h151v-691zM413 513h182q-128 -148 -201 -247q85 -78 230 -266h-184q-83 122 -214 257q96 152 187 256zM338 -250h-124l37 195h153z" />
    <glyph glyph-name="kgreenlandic" unicode="&#x138;" horiz-adv-x="614" 
d="M216 0h-151v513h151v-513zM413 513h182q-128 -148 -201 -247q85 -78 230 -266h-184q-83 122 -214 257q96 152 187 256z" />
    <glyph glyph-name="Lacute" unicode="&#x139;" horiz-adv-x="536" 
d="M203 710h-116l74 145h143zM225 131h306v-131h-461v650h155v-519z" />
    <glyph glyph-name="lacute" unicode="&#x13a;" horiz-adv-x="281" 
d="M187 731h-116l74 145h143zM216 0h-151v691h151v-691z" />
    <glyph glyph-name="Lcommaaccent" unicode="&#x13b;" horiz-adv-x="536" 
d="M225 131h306v-131h-461v650h155v-519zM315 -250h-124l37 195h153z" />
    <glyph glyph-name="lcommaaccent" unicode="&#x13c;" horiz-adv-x="281" 
d="M216 0h-151v691h151v-691zM149 -250h-124l37 195h153z" />
    <glyph glyph-name="Lcaron" unicode="&#x13d;" horiz-adv-x="536" 
d="M225 131h306v-131h-461v650h155v-519zM427 455h-124l37 195h153z" />
    <glyph glyph-name="lcaron" unicode="&#x13e;" horiz-adv-x="476" 
d="M216 0h-151v691h151v-691zM410 496h-124l37 195h153z" />
    <glyph glyph-name="Ldot" unicode="&#x13f;" horiz-adv-x="536" 
d="M225 131h306v-131h-461v650h155v-519zM481 320h-162v155h162v-155z" />
    <glyph glyph-name="ldot" unicode="&#x140;" horiz-adv-x="456" 
d="M216 0h-151v691h151v-691zM446 392h-162v155h162v-155z" />
    <glyph glyph-name="Lslash" unicode="&#x141;" horiz-adv-x="536" 
d="M531 131v-131h-461v276l-70 -18v131l70 18v243h155v-205l175 44v-131l-175 -44v-183h306z" />
    <glyph glyph-name="lslash" unicode="&#x142;" horiz-adv-x="301" 
d="M321 355l-95 -26v-329h-151v287l-95 -26v130l95 26v274h151v-232l95 26v-130z" />
    <glyph glyph-name="Nacute" unicode="&#x143;" horiz-adv-x="749" 
d="M434 710h-116l74 145h143zM679 0h-154l-303 438v-438h-152v649h179l278 -407v407h152v-649z" />
    <glyph glyph-name="nacute" unicode="&#x144;" horiz-adv-x="668" 
d="M380 591h-116l74 145h143zM412 524q91 0 141 -47t50 -158v-319h-151v300q0 50 -20.5 74.5t-68.5 24.5q-80 0 -147 -48v-351h-151v513h122l16 -54q99 65 209 65z" />
    <glyph glyph-name="Ncommaaccent" unicode="&#x145;" horiz-adv-x="749" 
d="M679 0h-154l-303 438v-438h-152v649h179l278 -407v407h152v-649zM422 -250h-124l37 195h153z" />
    <glyph glyph-name="ncommaaccent" unicode="&#x146;" horiz-adv-x="668" 
d="M412 524q91 0 141 -47t50 -158v-319h-151v300q0 50 -20.5 74.5t-68.5 24.5q-80 0 -147 -48v-351h-151v513h122l16 -54q99 65 209 65zM258 -55h153l-66 -195h-124z" />
    <glyph glyph-name="Ncaron" unicode="&#x147;" horiz-adv-x="749" 
d="M467 710h-155l-107 145h116l69 -73l68 73h116zM679 0h-154l-303 438v-438h-152v649h179l278 -407v407h152v-649z" />
    <glyph glyph-name="ncaron" unicode="&#x148;" horiz-adv-x="668" 
d="M256 591l-107 145h116l69 -73l68 73h116l-107 -145h-155zM412 524q91 0 141 -47t50 -158v-319h-151v300q0 50 -20.5 74.5t-68.5 24.5q-80 0 -147 -48v-351h-151v513h122l16 -54q99 65 209 65z" />
    <glyph glyph-name="napostrophe" unicode="&#x149;" horiz-adv-x="758" 
d="M180 691l-66 -195h-124l37 195h153zM502 524q91 0 141 -47t50 -158v-319h-151v300q0 50 -20.5 74.5t-68.5 24.5q-80 0 -147 -48v-351h-151v513h122l16 -54q99 65 209 65z" />
    <glyph glyph-name="Eng" unicode="&#x14a;" horiz-adv-x="749" 
d="M679 649v-644q0 -139 -59 -197t-185 -58q-89 0 -179 22v136q80 -23 156 -23q70 0 94 27t24 83v5l-308 438v-438h-152v649h179l278 -407v407h152z" />
    <glyph glyph-name="eng" unicode="&#x14b;" horiz-adv-x="668" 
d="M412 524q91 0 141 -47t50 -158v-353q0 -91 -58.5 -134.5t-146.5 -43.5q-72 0 -125 19v124q39 -19 93 -19q49 0 67.5 17.5t18.5 53.5v317q0 50 -20.5 74.5t-68.5 24.5q-80 0 -147 -48v-351h-151v513h122l16 -54q99 65 209 65z" />
    <glyph glyph-name="Omacron" unicode="&#x14c;" horiz-adv-x="781" 
d="M546 722h-322v106h322v-106zM391 662q65 0 125.5 -20.5t111.5 -59.5t82 -104t31 -147q0 -90 -29 -158t-79.5 -107t-111.5 -58.5t-131 -19.5t-131 19.5t-111 58.5t-79 107t-29 158q0 82 31 147.5t82 104.5t112 59t126 20zM390 524q-81 0 -134.5 -51.5t-53.5 -142.5
q0 -104 56 -155t133 -51t132.5 51t55.5 155q0 91 -54 142.5t-135 51.5z" />
    <glyph glyph-name="omacron" unicode="&#x14d;" horiz-adv-x="658" 
d="M491 592h-322v106h322v-106zM330 524q133 0 213 -70t80 -198t-80 -198t-213 -70q-134 0 -214.5 69.5t-80.5 198.5q0 128 80.5 198t214.5 70zM326 399q-60 0 -97 -38.5t-37 -104.5q0 -63 38.5 -103t101.5 -40q60 0 97 40.5t37 102.5q0 68 -38.5 105.5t-101.5 37.5z" />
    <glyph glyph-name="Obreve" unicode="&#x14e;" horiz-adv-x="781" 
d="M449 847h101q-4 -60 -42 -99.5t-122 -39.5q-152 0 -164 139h101q6 -28 20 -41.5t43 -13.5q31 0 44 13t19 42zM391 662q65 0 125.5 -20.5t111.5 -59.5t82 -104t31 -147q0 -90 -29 -158t-79.5 -107t-111.5 -58.5t-131 -19.5t-131 19.5t-111 58.5t-79 107t-29 158
q0 82 31 147.5t82 104.5t112 59t126 20zM390 524q-81 0 -134.5 -51.5t-53.5 -142.5q0 -104 56 -155t133 -51t132.5 51t55.5 155q0 91 -54 142.5t-135 51.5z" />
    <glyph glyph-name="obreve" unicode="&#x14f;" horiz-adv-x="658" 
d="M393 723h101q-4 -60 -42 -99.5t-122 -39.5q-152 0 -164 139h101q6 -28 20 -41.5t43 -13.5q31 0 44 13t19 42zM330 524q133 0 213 -70t80 -198t-80 -198t-213 -70q-134 0 -214.5 69.5t-80.5 198.5q0 128 80.5 198t214.5 70zM326 399q-60 0 -97 -38.5t-37 -104.5
q0 -63 38.5 -103t101.5 -40q60 0 97 40.5t37 102.5q0 68 -38.5 105.5t-101.5 37.5z" />
    <glyph glyph-name="Ohungarumlaut" unicode="&#x150;" horiz-adv-x="781" 
d="M345 711h-113l74 145h143zM541 711h-113l74 145h143zM391 662q65 0 125.5 -20.5t111.5 -59.5t82 -104t31 -147q0 -90 -29 -158t-79.5 -107t-111.5 -58.5t-131 -19.5t-131 19.5t-111 58.5t-79 107t-29 158q0 82 31 147.5t82 104.5t112 59t126 20zM390 524
q-81 0 -134.5 -51.5t-53.5 -142.5q0 -104 56 -155t133 -51t132.5 51t55.5 155q0 91 -54 142.5t-135 51.5z" />
    <glyph glyph-name="ohungarumlaut" unicode="&#x151;" horiz-adv-x="658" 
d="M297 591h-113l74 145h143zM493 591h-113l74 145h143zM330 524q133 0 213 -70t80 -198t-80 -198t-213 -70q-134 0 -214.5 69.5t-80.5 198.5q0 128 80.5 198t214.5 70zM326 399q-60 0 -97 -38.5t-37 -104.5q0 -63 38.5 -103t101.5 -40q60 0 97 40.5t37 102.5
q0 68 -38.5 105.5t-101.5 37.5z" />
    <glyph glyph-name="OE" unicode="&#x152;" horiz-adv-x="1038" 
d="M993 0h-499q-54 -14 -112 -14q-67 0 -126.5 19.5t-108.5 59.5t-78 108.5t-29 157.5q0 82 30.5 147.5t80.5 104.5t109.5 59t122.5 20q56 0 107 -12h496v-131h-350v-124h317v-126h-317v-138h357v-131zM202 330q0 -104 55 -156t128 -52q53 0 96 18v365q-44 19 -98 19
q-76 0 -128.5 -52t-52.5 -142z" />
    <glyph glyph-name="oe" unicode="&#x153;" horiz-adv-x="1039" 
d="M1004 201h-387q7 -51 51.5 -71t100.5 -20q95 0 208 35v-118q-117 -37 -212 -37q-146 0 -225 74q-79 -74 -210 -74q-134 0 -214.5 69.5t-80.5 196.5q0 128 80.5 198t214.5 70q132 0 212 -77q80 77 202 77q128 0 194 -65t66 -188v-70zM618 295h231q-1 52 -27 81.5t-74 29.5
q-118 0 -130 -111zM332 115q60 0 97 40.5t37 100.5q0 68 -38.5 105.5t-101.5 37.5q-60 0 -97 -38.5t-37 -104.5q0 -62 38.5 -101.5t101.5 -39.5z" />
    <glyph glyph-name="Racute" unicode="&#x154;" horiz-adv-x="692" 
d="M380 710h-116l74 145h143zM675 0h-194q-82 135 -152 207h-104v-207h-155v650h306q41 0 77 -5.5t73 -20t62.5 -38t42 -63t16.5 -90.5q0 -72 -44.5 -125.5t-113.5 -69.5q97 -102 186 -238zM228 338h121q68 0 102 22.5t34 72.5q0 86 -139 86h-118v-181z" />
    <glyph glyph-name="racute" unicode="&#x155;" horiz-adv-x="426" 
d="M289 591h-116l74 145h143zM187 513l17 -56q94 65 204 67v-144q-102 1 -192 -51v-329h-151v513h122z" />
    <glyph glyph-name="Rcommaaccent" unicode="&#x156;" horiz-adv-x="692" 
d="M489 238q97 -102 186 -238h-194q-82 135 -152 207h-104v-207h-155v650h306q41 0 77 -5.5t73 -20t62.5 -38t42 -63t16.5 -90.5q0 -72 -44.5 -125.5t-113.5 -69.5zM228 338h121q68 0 102 22.5t34 72.5q0 86 -139 86h-118v-181zM276 -55h153l-66 -195h-124z" />
    <glyph glyph-name="rcommaaccent" unicode="&#x157;" horiz-adv-x="426" 
d="M187 513l17 -56q94 65 204 67v-144q-102 1 -192 -51v-329h-151v513h122zM60 -55h153l-66 -195h-124z" />
    <glyph glyph-name="Rcaron" unicode="&#x158;" horiz-adv-x="692" 
d="M258 710l-107 145h116l69 -73l68 73h116l-107 -145h-155zM675 0h-194q-82 135 -152 207h-104v-207h-155v650h306q41 0 77 -5.5t73 -20t62.5 -38t42 -63t16.5 -90.5q0 -72 -44.5 -125.5t-113.5 -69.5q97 -102 186 -238zM228 338h121q68 0 102 22.5t34 72.5q0 86 -139 86
h-118v-181z" />
    <glyph glyph-name="rcaron" unicode="&#x159;" horiz-adv-x="426" 
d="M165 591l-107 145h116l69 -73l68 73h116l-107 -145h-155zM187 513l17 -56q94 65 204 67v-144q-102 1 -192 -51v-329h-151v513h122z" />
    <glyph glyph-name="Sacute" unicode="&#x15a;" horiz-adv-x="643" 
d="M366 710h-116l74 145h143zM332 662q89 0 226 -33v-136q-54 13 -80 18.5t-69 10.5t-88 5q-122 0 -122 -58q0 -36 67 -54l171 -45q166 -43 166 -176q0 -99 -73 -152.5t-215 -53.5q-130 0 -265 36v141q161 -42 246 -42q78 0 112.5 13t34.5 43q0 46 -88 68l-165 42
q-72 19 -111 65.5t-39 112.5q0 195 292 195z" />
    <glyph glyph-name="sacute" unicode="&#x15b;" horiz-adv-x="547" 
d="M314 591h-116l74 145h143zM288 524q112 0 191 -33v-120q-99 34 -181 34q-117 0 -117 -37q0 -15 11 -20.5t50 -14.5l15 -3l104 -23q79 -18 115 -54.5t36 -95.5q0 -78 -63 -123.5t-199 -45.5q-47 0 -108.5 10.5t-96.5 22.5v124q105 -35 201 -35q67 0 91.5 10t24.5 32
q0 15 -15 25t-63 20l-112 23q-78 16 -107.5 53.5t-29.5 94.5q0 80 68 118t185 38z" />
    <glyph glyph-name="Scircumflex" unicode="&#x15c;" horiz-adv-x="643" 
d="M506 710h-116l-68 73l-69 -73h-116l107 145h155zM332 662q89 0 226 -33v-136q-54 13 -80 18.5t-69 10.5t-88 5q-122 0 -122 -58q0 -36 67 -54l171 -45q166 -43 166 -176q0 -99 -73 -152.5t-215 -53.5q-130 0 -265 36v141q161 -42 246 -42q78 0 112.5 13t34.5 43
q0 46 -88 68l-165 42q-72 19 -111 65.5t-39 112.5q0 195 292 195z" />
    <glyph glyph-name="scircumflex" unicode="&#x15d;" horiz-adv-x="547" 
d="M268 664l-69 -73h-116l107 145h155l107 -145h-116zM288 524q112 0 191 -33v-120q-99 34 -181 34q-117 0 -117 -37q0 -15 11 -20.5t50 -14.5l15 -3l104 -23q79 -18 115 -54.5t36 -95.5q0 -78 -63 -123.5t-199 -45.5q-47 0 -108.5 10.5t-96.5 22.5v124q105 -35 201 -35
q67 0 91.5 10t24.5 32q0 15 -15 25t-63 20l-112 23q-78 16 -107.5 53.5t-29.5 94.5q0 80 68 118t185 38z" />
    <glyph glyph-name="Scedilla" unicode="&#x15e;" horiz-adv-x="643" 
d="M603 194q0 -87 -57 -139.5t-169 -63.5l-8 -23q75 -13 75 -82q0 -93 -115 -93q-43 0 -93 14v73q55 -17 93 -17q39 0 39 25t-43 25q-24 0 -42 -3l25 78q-129 1 -258 36v141q161 -42 246 -42q78 0 112.5 13t34.5 43q0 46 -88 68l-165 42q-72 19 -111 65.5t-39 112.5
q0 195 292 195q89 0 226 -33v-136q-54 13 -80 18.5t-69 10.5t-88 5q-122 0 -122 -58q0 -36 67 -54l171 -45q166 -43 166 -176z" />
    <glyph glyph-name="scedilla" unicode="&#x15f;" horiz-adv-x="547" 
d="M512 157q0 -150 -210 -167l-8 -22q75 -13 75 -82q0 -93 -115 -93q-43 0 -93 14v73q55 -17 93 -17q39 0 39 25t-43 25q-24 0 -42 -3l26 78q-104 5 -189 33v124q105 -35 201 -35q67 0 91.5 10t24.5 32q0 15 -15 25t-63 20l-112 23q-78 16 -107.5 53.5t-29.5 94.5
q0 80 68 118t185 38q112 0 191 -33v-120q-99 34 -181 34q-117 0 -117 -37q0 -15 11 -20.5t50 -14.5l15 -3l104 -23q79 -18 115 -54.5t36 -95.5z" />
    <glyph glyph-name="Scaron" unicode="&#x160;" horiz-adv-x="643" 
d="M399 710h-155l-107 145h116l69 -73l68 73h116zM332 662q89 0 226 -33v-136q-54 13 -80 18.5t-69 10.5t-88 5q-122 0 -122 -58q0 -36 67 -54l171 -45q166 -43 166 -176q0 -99 -73 -152.5t-215 -53.5q-130 0 -265 36v141q161 -42 246 -42q78 0 112.5 13t34.5 43
q0 46 -88 68l-165 42q-72 19 -111 65.5t-39 112.5q0 195 292 195z" />
    <glyph glyph-name="scaron" unicode="&#x161;" horiz-adv-x="547" 
d="M345 591h-155l-107 145h116l69 -73l68 73h116zM288 524q112 0 191 -33v-120q-99 34 -181 34q-117 0 -117 -37q0 -15 11 -20.5t50 -14.5l15 -3l104 -23q79 -18 115 -54.5t36 -95.5q0 -78 -63 -123.5t-199 -45.5q-47 0 -108.5 10.5t-96.5 22.5v124q105 -35 201 -35
q67 0 91.5 10t24.5 32q0 15 -15 25t-63 20l-112 23q-78 16 -107.5 53.5t-29.5 94.5q0 80 68 118t185 38z" />
    <glyph glyph-name="Tcedilla" unicode="&#x162;" horiz-adv-x="623" 
d="M603 519h-214v-519h-155v519h-214v131h583v-131zM319 -250h-124l37 195h153z" />
    <glyph glyph-name="tcedilla" unicode="&#x163;" horiz-adv-x="413" 
d="M388 513v-120h-160v-200q0 -40 16.5 -60t60.5 -20q41 0 83 14v-120q-53 -19 -115 -19q-89 0 -142.5 41.5t-53.5 136.5v227h-87v120h93l17 131h128v-131h160zM252 -250h-124l37 195h153z" />
    <glyph glyph-name="Tcaron" unicode="&#x164;" horiz-adv-x="623" 
d="M389 710h-155l-107 145h116l69 -73l68 73h116zM603 519h-214v-519h-155v519h-214v131h583v-131z" />
    <glyph glyph-name="tcaron" unicode="&#x165;" horiz-adv-x="413" 
d="M422 546h-124l37 195h153zM388 513v-120h-160v-200q0 -40 16.5 -60t60.5 -20q41 0 83 14v-120q-53 -19 -115 -19q-89 0 -142.5 41.5t-53.5 136.5v227h-87v120h93l17 131h128v-131h160z" />
    <glyph glyph-name="Tbar" unicode="&#x166;" horiz-adv-x="623" 
d="M389 519v-130h113v-131h-113v-258h-155v258h-113v131h113v130h-214v131h583v-131h-214z" />
    <glyph glyph-name="tbar" unicode="&#x167;" horiz-adv-x="413" 
d="M228 393v-40h160v-120h-160v-40q0 -40 16.5 -60t60.5 -20q41 0 83 14v-120q-53 -19 -115 -19q-89 0 -142.5 41.5t-53.5 136.5v67h-87v120h87v40h-87v120h93l17 131h128v-131h160v-120h-160z" />
    <glyph glyph-name="Utilde" unicode="&#x168;" horiz-adv-x="738" 
d="M453 844h88q-6 -56 -35 -91t-82 -35q-30 0 -66.5 19t-49.5 19q-17 0 -24 -8t-13 -28h-88q6 56 35 91t82 35q30 0 66.5 -19t49.5 -19q17 0 24 8t13 28zM673 650v-352q0 -310 -306 -310q-302 0 -302 310v352h155v-353q0 -85 39.5 -128t109.5 -43t109.5 43t39.5 128v353h155
z" />
    <glyph glyph-name="utilde" unicode="&#x169;" horiz-adv-x="658" 
d="M275 636q-17 0 -24 -8t-13 -28h-88q6 56 35 91t82 35q30 0 66.5 -19t49.5 -19q17 0 24 8t13 28h88q-6 -56 -35 -91t-82 -35q-30 0 -66.5 19t-49.5 19zM593 513v-513h-122l-16 54q-100 -66 -199 -66q-91 0 -141 47t-50 159v319h151v-300q0 -50 20.5 -75t68.5 -25
q69 0 137 49v351h151z" />
    <glyph glyph-name="Umacron" unicode="&#x16a;" horiz-adv-x="738" 
d="M524 722h-322v106h322v-106zM673 650v-352q0 -310 -306 -310q-302 0 -302 310v352h155v-353q0 -85 39.5 -128t109.5 -43t109.5 43t39.5 128v353h155z" />
    <glyph glyph-name="umacron" unicode="&#x16b;" horiz-adv-x="658" 
d="M490 592h-322v106h322v-106zM593 513v-513h-122l-16 54q-100 -66 -199 -66q-91 0 -141 47t-50 159v319h151v-300q0 -50 20.5 -75t68.5 -25q69 0 137 49v351h151z" />
    <glyph glyph-name="Ubreve" unicode="&#x16c;" horiz-adv-x="738" 
d="M427 847h101q-4 -60 -42 -99.5t-122 -39.5q-152 0 -164 139h101q6 -28 20 -41.5t43 -13.5q31 0 44 13t19 42zM673 650v-352q0 -310 -306 -310q-302 0 -302 310v352h155v-353q0 -85 39.5 -128t109.5 -43t109.5 43t39.5 128v353h155z" />
    <glyph glyph-name="ubreve" unicode="&#x16d;" horiz-adv-x="658" 
d="M329 584q-152 0 -164 139h101q6 -28 20 -41.5t43 -13.5q31 0 44 13t19 42h101q-4 -60 -42 -99.5t-122 -39.5zM593 513v-513h-122l-16 54q-100 -66 -199 -66q-91 0 -141 47t-50 159v319h151v-300q0 -50 20.5 -75t68.5 -25q69 0 137 49v351h151z" />
    <glyph glyph-name="Uring" unicode="&#x16e;" horiz-adv-x="738" 
d="M369 693q-52 0 -80.5 25t-28.5 67t28.5 67t80.5 25t80.5 -25t28.5 -67t-28.5 -67t-80.5 -25zM369 821q-49 0 -49 -36t49 -36t49 36t-49 36zM673 650v-352q0 -310 -306 -310q-302 0 -302 310v352h155v-353q0 -85 39.5 -128t109.5 -43t109.5 43t39.5 128v353h155z" />
    <glyph glyph-name="uring" unicode="&#x16f;" horiz-adv-x="658" 
d="M329 574q-52 0 -80.5 25t-28.5 67t28.5 67t80.5 25t80.5 -25t28.5 -67t-28.5 -67t-80.5 -25zM329 702q-49 0 -49 -36t49 -36t49 36t-49 36zM593 513v-513h-122l-16 54q-100 -66 -199 -66q-91 0 -141 47t-50 159v319h151v-300q0 -50 20.5 -75t68.5 -25q69 0 137 49v351
h151z" />
    <glyph glyph-name="Uhungarumlaut" unicode="&#x170;" horiz-adv-x="738" 
d="M323 711h-113l74 145h143zM519 711h-113l74 145h143zM673 650v-352q0 -310 -306 -310q-302 0 -302 310v352h155v-353q0 -85 39.5 -128t109.5 -43t109.5 43t39.5 128v353h155z" />
    <glyph glyph-name="uhungarumlaut" unicode="&#x171;" horiz-adv-x="658" 
d="M296 591h-113l74 145h143zM379 591l74 145h143l-104 -145h-113zM442 513h151v-513h-122l-16 54q-100 -66 -199 -66q-91 0 -141 47t-50 159v319h151v-300q0 -50 20.5 -75t68.5 -25q69 0 137 49v351z" />
    <glyph glyph-name="Uogonek" unicode="&#x172;" horiz-adv-x="738" 
d="M673 650v-352q0 -250 -199 -298q-46 -20 -74 -42t-28 -39q0 -10 6 -14t23 -4q42 0 88 23l1 -86q-45 -20 -100 -20q-113 0 -113 76q0 55 68 94q-280 13 -280 310v352h155v-353q0 -85 39.5 -128t109.5 -43t109.5 43t39.5 128v353h155z" />
    <glyph glyph-name="uogonek" unicode="&#x173;" horiz-adv-x="658" 
d="M593 513v-513h-14q-107 -45 -107 -81q0 -26 32 -26q42 0 88 23l1 -75q-45 -20 -100 -20q-57 0 -81.5 17.5t-24.5 55.5q0 33 25.5 62t58.5 44l-16 54q-100 -66 -199 -66q-91 0 -141 47t-50 159v319h151v-300q0 -50 20.5 -75t68.5 -25q69 0 137 49v351h151z" />
    <glyph glyph-name="Wcircumflex" unicode="&#x174;" horiz-adv-x="938" 
d="M653 710h-116l-68 73l-69 -73h-116l107 145h155zM779 650h154q-59 -322 -141 -650h-215q-78 241 -108 371q-27 -108 -112 -371h-210q-79 319 -142 650h155q38 -262 99 -492q89 250 126 403h170q36 -146 125 -403q61 230 99 492z" />
    <glyph glyph-name="wcircumflex" unicode="&#x175;" horiz-adv-x="880" 
d="M440 664l-69 -73h-116l107 145h155l107 -145h-116zM726 513h159q-9 -39 -28.5 -108t-64 -193.5t-88.5 -211.5h-164q-71 180 -100 290q-32 -121 -100 -290h-165q-44 87 -88.5 212t-63 192.5t-28.5 108.5h159q13 -63 44.5 -184t59.5 -193q20 49 43 129t43 163t20 85h152
q0 -2 20 -85t43 -163t43 -129q28 72 59.5 193t44.5 184z" />
    <glyph glyph-name="Ycircumflex" unicode="&#x176;" horiz-adv-x="632" 
d="M500 710h-116l-68 73l-69 -73h-116l107 145h155zM469 650h178q-26 -56 -102 -189.5t-154 -246.5v-214h-154v217q-31 42 -60 85.5t-52.5 83l-43 73.5t-36.5 67.5l-27 54l-21 43.5t-12 26h176q10 -31 63 -136t90 -153q53 69 155 289z" />
    <glyph glyph-name="ycircumflex" unicode="&#x177;" horiz-adv-x="590" 
d="M226 591h-116l107 145h155l107 -145h-116l-68 73zM436 513h164q-35 -99 -147 -346t-197 -367h-157q72 116 118 199q-70 131 -140.5 297.5t-86.5 216.5h164q17 -60 138 -370q76 159 144 370z" />
    <glyph glyph-name="Ydieresis" unicode="&#x178;" horiz-adv-x="632" 
d="M275 706h-149v129h149v-129zM505 706h-149v129h149v-129zM469 650h178q-26 -56 -102 -189.5t-154 -246.5v-214h-154v217q-31 42 -60 85.5t-52.5 83l-43 73.5t-36.5 67.5l-27 54l-21 43.5t-12 26h176q10 -31 63 -136t90 -153q53 69 155 289z" />
    <glyph glyph-name="Zacute" unicode="&#x179;" horiz-adv-x="625" 
d="M357 710h-116l74 145h143zM595 562l-347 -431h339v-131h-557v88l347 431h-332v131h550v-88z" />
    <glyph glyph-name="zacute" unicode="&#x17a;" horiz-adv-x="571" 
d="M341 591h-116l74 145h143zM529 415l-292 -295h294v-120h-491v98l292 295h-284v120h481v-98z" />
    <glyph glyph-name="Zdotaccent" unicode="&#x17b;" horiz-adv-x="625" 
d="M387 706h-149v129h149v-129zM595 562l-347 -431h339v-131h-557v88l347 431h-332v131h550v-88z" />
    <glyph glyph-name="zdotaccent" unicode="&#x17c;" horiz-adv-x="571" 
d="M369 586h-149v129h149v-129zM529 415l-292 -295h294v-120h-491v98l292 295h-284v120h481v-98z" />
    <glyph glyph-name="Zcaron" unicode="&#x17d;" horiz-adv-x="625" 
d="M390 710h-155l-107 145h116l69 -73l68 73h116zM595 562l-347 -431h339v-131h-557v88l347 431h-332v131h550v-88z" />
    <glyph glyph-name="zcaron" unicode="&#x17e;" horiz-adv-x="571" 
d="M372 591h-155l-107 145h116l69 -73l68 73h116zM529 415l-292 -295h294v-120h-491v98l292 295h-284v120h481v-98z" />
    <glyph glyph-name="longs" unicode="&#x17f;" horiz-adv-x="387" 
d="M294 723q62 0 109 -17v-122q-37 15 -77 15q-48 0 -63.5 -13.5t-15.5 -49.5v-536h-151v393h-106v120h106v32q0 91 55.5 134.5t142.5 43.5z" />
    <glyph glyph-name="Schwa" unicode="&#x18f;" horiz-adv-x="761" 
d="M375 662q159 0 252.5 -82.5t93.5 -246.5q0 -89 -27 -157t-74.5 -108t-107 -60t-129.5 -20q-153 0 -248 84.5t-95 259.5v62h515q-24 130 -181 130q-106 0 -251 -30v141q143 27 252 27zM384 124q68 0 115 33.5t55 105.5h-342q0 -49 29 -82t65.5 -45t77.5 -12z" />
    <glyph glyph-name="florin" unicode="&#x192;" horiz-adv-x="490" 
d="M374 538q-30 0 -44 -14t-19 -49l-4 -23h159l-17 -120h-159l-41 -281q-26 -178 -213 -178q-52 0 -116 17l17 122q57 -15 99 -15q30 0 44 14t19 49l40 272h-106l17 120h106l5 32q25 178 213 178q52 0 116 -17l-17 -122q-57 15 -99 15z" />
    <glyph glyph-name="Aringacute" unicode="&#x1fa;" horiz-adv-x="683" 
d="M400 913h-116l74 145h143zM342 693q-52 0 -80.5 25t-28.5 67t28.5 67t80.5 25t80.5 -25t28.5 -67t-28.5 -67t-80.5 -25zM342 821q-49 0 -49 -36t49 -36t49 36t-49 36zM527 0l-38 118h-307l-36 -118h-161q112 365 246 650h216q145 -306 251 -650h-171zM225 249h220
q-55 157 -111 286q-54 -124 -109 -286z" />
    <glyph glyph-name="aringacute" unicode="&#x1fb;" horiz-adv-x="629" 
d="M371 796h-116l74 145h143zM315 574q-52 0 -80.5 25t-28.5 67t28.5 67t80.5 25t80.5 -25t28.5 -67t-28.5 -67t-80.5 -25zM315 702q-49 0 -49 -36t49 -36t49 36t-49 36zM298 524q266 0 266 -212v-312h-119l-14 45q-85 -57 -186 -57q-95 0 -150 48.5t-55 122.5
q0 57 34.5 94.5t80.5 51t100 13.5q84 0 158 -27v20q0 95 -160 95q-63 0 -171 -30v123q84 25 216 25zM196 156q0 -26 24.5 -41.5t71.5 -15.5q49 0 121 35v62q-46 22 -124 22q-93 0 -93 -62z" />
    <glyph glyph-name="AEacute" unicode="&#x1fc;" horiz-adv-x="1021" 
d="M746 710h-116l74 145h143zM976 131v-131h-472v118h-275l-71 -118h-178q254 422 450 650h539v-131h-310v-124h277v-126h-277v-138h317zM504 249l1 276q-99 -132 -193 -276h192z" />
    <glyph glyph-name="aeacute" unicode="&#x1fd;" horiz-adv-x="991" 
d="M581 591h-116l74 145h143zM694 524q130 0 196 -65t66 -188v-70h-387q7 -51 52 -72t100 -21q95 0 208 35v-118q-117 -37 -212 -37q-151 0 -232 77q-109 -77 -240 -77q-95 0 -150 48.5t-55 122.5q0 57 34.5 94.5t80.5 51t100 13.5q84 0 158 -27v20q0 95 -160 95
q-63 0 -171 -30v123q84 25 216 25q144 0 208 -71q75 71 188 71zM700 406q-117 0 -130 -111h231q-1 52 -27 81.5t-74 29.5zM289 218q-93 0 -93 -62q0 -26 24.5 -41.5t71.5 -15.5q58 0 141 46q-8 20 -13 48q-47 25 -131 25z" />
    <glyph glyph-name="Oslashacute" unicode="&#x1fe;" horiz-adv-x="781" 
d="M435 710h-116l74 145h143zM707 600l-44 -52q78 -86 78 -217q0 -90 -29 -158t-79.5 -107t-111.5 -58.5t-131 -19.5q-94 0 -171 34l-50 -60l-95 79l45 53q-79 89 -79 237q0 82 31 147.5t82 104.5t112 59t126 20q92 0 173 -39l48 56zM202 330q0 -62 23 -110l244 289
q-36 15 -79 15q-81 0 -134.5 -51.5t-53.5 -142.5zM391 124q77 0 132.5 51t55.5 155q0 53 -20 95l-242 -288q35 -13 74 -13z" />
    <glyph glyph-name="oslashacute" unicode="&#x1ff;" horiz-adv-x="658" 
d="M376 591h-116l74 145h143zM593 490l-39 -46q69 -71 69 -188q0 -128 -80 -198t-213 -70q-81 0 -141 25l-45 -54l-79 61l40 47q-70 72 -70 189q0 128 80.5 198t214.5 70q76 0 140 -25l44 52zM192 256q0 -38 15 -68l172 203q-26 8 -53 8q-60 0 -97 -38.5t-37 -104.5z
M332 113q60 0 97 40.5t37 102.5q0 37 -13 68l-172 -203q24 -8 51 -8z" />
    <glyph glyph-name="Scommaaccent" unicode="&#x218;" horiz-adv-x="643" 
d="M332 662q89 0 226 -33v-136q-54 13 -80 18.5t-69 10.5t-88 5q-122 0 -122 -58q0 -36 67 -54l171 -45q166 -43 166 -176q0 -99 -73 -152.5t-215 -53.5q-130 0 -265 36v141q161 -42 246 -42q78 0 112.5 13t34.5 43q0 46 -88 68l-165 42q-72 19 -111 65.5t-39 112.5
q0 195 292 195zM369 -250h-124l37 195h153z" />
    <glyph glyph-name="scommaaccent" unicode="&#x219;" horiz-adv-x="547" 
d="M288 524q112 0 191 -33v-120q-99 34 -181 34q-117 0 -117 -37q0 -15 11 -20.5t50 -14.5l15 -3l104 -23q79 -18 115 -54.5t36 -95.5q0 -78 -63 -123.5t-199 -45.5q-47 0 -108.5 10.5t-96.5 22.5v124q105 -35 201 -35q67 0 91.5 10t24.5 32q0 15 -15 25t-63 20l-112 23
q-78 16 -107.5 53.5t-29.5 94.5q0 80 68 118t185 38zM294 -250h-124l37 195h153z" />
    <glyph glyph-name="uni021A" unicode="&#x21a;" horiz-adv-x="623" 
d="M603 519h-214v-519h-155v519h-214v131h583v-131zM319 -250h-124l37 195h153z" />
    <glyph glyph-name="uni021B" unicode="&#x21b;" horiz-adv-x="413" 
d="M388 513v-120h-160v-200q0 -40 16.5 -60t60.5 -20q41 0 83 14v-120q-53 -19 -115 -19q-89 0 -142.5 41.5t-53.5 136.5v227h-87v120h93l17 131h128v-131h160zM252 -250h-124l37 195h153z" />
    <glyph glyph-name="dotlessj" unicode="&#x237;" horiz-adv-x="285" 
d="M220 513v-547q0 -91 -58.5 -134.5t-146.5 -43.5q-72 0 -125 19v124q39 -19 93 -19q49 0 67.5 17.5t18.5 53.5v530h151z" />
    <glyph glyph-name="schwa" unicode="&#x259;" horiz-adv-x="607" 
d="M280 524q138 0 215 -65.5t77 -200.5q0 -131 -81 -199.5t-200 -68.5q-130 0 -195.5 66.5t-65.5 206.5v50h387q-10 91 -141 91q-96 0 -219 -29v118q124 31 223 31zM286 108q117 0 130 111h-231q1 -52 27 -81.5t74 -29.5z" />
    <glyph glyph-name="uni02BC" unicode="&#x2bc;" horiz-adv-x="250" 
d="M154 496h-124l37 195h153z" />
    <glyph glyph-name="circumflex" unicode="&#x2c6;" horiz-adv-x="429" 
d="M215 664l-69 -73h-116l107 145h155l107 -145h-116z" />
    <glyph glyph-name="caron" unicode="&#x2c7;" horiz-adv-x="429" 
d="M292 591h-155l-107 145h116l69 -73l68 73h116z" />
    <glyph glyph-name="firsttonechinese" unicode="&#x2c9;" horiz-adv-x="382" 
d="M352 592h-322v106h322v-106z" />
    <glyph glyph-name="breve" unicode="&#x2d8;" horiz-adv-x="388" 
d="M257 723h101q-4 -60 -42 -99.5t-122 -39.5q-152 0 -164 139h101q6 -28 20 -41.5t43 -13.5q31 0 44 13t19 42z" />
    <glyph glyph-name="dotaccent" unicode="&#x2d9;" horiz-adv-x="209" 
d="M179 586h-149v129h149v-129z" />
    <glyph glyph-name="ring" unicode="&#x2da;" horiz-adv-x="278" 
d="M139 574q-52 0 -80.5 25t-28.5 67t28.5 67t80.5 25t80.5 -25t28.5 -67t-28.5 -67t-80.5 -25zM139 702q-49 0 -49 -36t49 -36t49 36t-49 36z" />
    <glyph glyph-name="ogonek" unicode="&#x2db;" horiz-adv-x="273" 
d="M136 6h107q-53 -20 -85.5 -44t-32.5 -43q0 -10 6 -14t23 -4q42 0 88 23l1 -86q-45 -20 -100 -20q-113 0 -113 76q0 38 34 69t72 43z" />
    <glyph glyph-name="tilde" unicode="&#x2dc;" horiz-adv-x="418" 
d="M300 724h88q-6 -56 -35 -91t-82 -35q-30 0 -66.5 19t-49.5 19q-17 0 -24 -8t-13 -28h-88q6 56 35 91t82 35q30 0 66.5 -19t49.5 -19q17 0 24 8t13 28z" />
    <glyph glyph-name="hungarumlaut" unicode="&#x2dd;" horiz-adv-x="473" 
d="M143 591h-113l74 145h143zM339 591h-113l74 145h143z" />
    <glyph glyph-name="uni0312" unicode="&#x312;" horiz-adv-x="0" 
d="M96 786h124l-37 -195h-153z" />
    <glyph glyph-name="uni0326" unicode="&#x326;" horiz-adv-x="0" 
d="M154 -250h-124l37 195h153z" />
    <glyph glyph-name="uni0374" unicode="&#x374;" horiz-adv-x="255" 
d="M30 522l34 215h161l-94 -215h-101z" />
    <glyph glyph-name="uni0375" unicode="&#x375;" horiz-adv-x="255" 
d="M225 71l-34 -215h-161l94 215h101z" />
    <glyph glyph-name="uni037E" unicode="&#x37e;" horiz-adv-x="286" 
d="M79 325v155h162v-155h-162zM21 -131l56 286h162l-86 -286h-132z" />
    <glyph glyph-name="tonos" unicode="&#x384;" horiz-adv-x="255" 
d="M30 592l34 165h161l-94 -165h-101z" />
    <glyph glyph-name="dieresistonos" unicode="&#x385;" horiz-adv-x="618" 
d="M230 592l24 165h161l-84 -165h-101zM30 592v129h149v-129h-149zM439 592v129h149v-129h-149z" />
    <glyph glyph-name="Alphatonos" unicode="&#x386;" horiz-adv-x="683" 
d="M-35 485l34 165h161l-94 -165h-101zM489 118h-307l-36 -118h-161q53 172 114.5 334.5t96.5 239.5l35 76h216q142 -296 251 -650h-171zM225 249h220q-55 157 -111 286q-54 -124 -109 -286z" />
    <glyph glyph-name="anoteleia" unicode="&#x387;" horiz-adv-x="252" 
d="M45 358v155h162v-155h-162z" />
    <glyph glyph-name="Epsilontonos" unicode="&#x388;" horiz-adv-x="627" 
d="M-195 485l34 165h161l-94 -165h-101zM225 519v-124h317v-126h-317v-138h357v-131h-512v650h505v-131h-350z" />
    <glyph glyph-name="Etatonos" unicode="&#x389;" horiz-adv-x="737" 
d="M-195 485l34 165h161l-94 -165h-101zM512 0v252h-287v-252h-155v650h155v-267h287v267h155v-650h-155z" />
    <glyph glyph-name="Iotatonos" unicode="&#x38a;" horiz-adv-x="295" 
d="M-195 485l34 165h161l-94 -165h-101zM70 0v650h155v-650h-155z" />
    <glyph glyph-name="Omicrontonos" unicode="&#x38c;" horiz-adv-x="781" 
d="M391 662q65 0 125.5 -20.5t111.5 -59.5t82 -104t31 -147q0 -90 -29 -158t-79.5 -107t-111.5 -58.5t-131 -19.5t-131 19.5t-111 58.5t-79 107t-29 158q0 82 31 147.5t82 104.5t112 59t126 20zM-98 485l34 165h161l-94 -165h-101zM390 524q-81 0 -134.5 -51.5t-53.5 -142.5
q0 -104 56 -155t133 -51t132.5 51t55.5 155q0 91 -54 142.5t-135 51.5z" />
    <glyph glyph-name="Upsilontonos" unicode="&#x38e;" horiz-adv-x="632" 
d="M-233 485l34 165h161l-94 -165h-101zM469 650h178q-26 -56 -102 -189.5t-154 -246.5v-214h-154v217q-31 42 -60 85.5t-52.5 83l-43 73.5t-36.5 67.5l-27 54l-21 43.5t-12 26h176q10 -31 63 -136t90 -153q53 69 155 289z" />
    <glyph glyph-name="Omegatonos" unicode="&#x38f;" horiz-adv-x="760" 
d="M730 336q0 -142 -95 -215h100v-121h-300v127q133 70 133 208q0 90 -49 139.5t-140 49.5q-84 0 -135.5 -46.5t-51.5 -144.5q0 -139 133 -206v-127h-300v121h100q-43 32 -69 88t-26 125q0 154 94.5 241t255.5 87q166 0 258 -90t92 -236zM-108 485l34 165h161l-94 -165h-101
z" />
    <glyph glyph-name="iotadieresistonos" unicode="&#x390;" horiz-adv-x="396" 
d="M72 592l24 165h161l-84 -165h-101zM-128 592v129h149v-129h-149zM281 592v129h149v-129h-149zM211 513v-320q0 -40 16.5 -60t60.5 -20q41 0 83 14v-120q-53 -19 -115 -19q-89 0 -142.5 41.5t-53.5 136.5v347h151z" />
    <glyph glyph-name="Alpha" unicode="&#x391;" horiz-adv-x="683" 
d="M489 118h-307l-36 -118h-161q53 172 114.5 334.5t96.5 239.5l35 76h216q142 -296 251 -650h-171zM225 249h220q-55 157 -111 286q-54 -124 -109 -286z" />
    <glyph glyph-name="Beta" unicode="&#x392;" horiz-adv-x="702" 
d="M70 650h267q291 0 291 -166q0 -46 -29 -86t-86 -60v-3q58 -9 101 -47.5t43 -97.5q0 -190 -282 -190h-305v650zM225 386h118q57 0 89.5 15t32.5 57q0 41 -32 54t-86 13h-122v-139zM225 125h149q62 0 91.5 16.5t29.5 56.5q0 45 -33.5 61t-98.5 16h-138v-150z" />
    <glyph glyph-name="Gamma" unicode="&#x393;" horiz-adv-x="595" 
d="M225 0h-155v650h485v-131h-330v-519z" />
    <glyph glyph-name="Delta" unicode="&#x394;" horiz-adv-x="728" 
d="M254 650h216q121 -254 223 -562v-88h-657v88q49 152 103.5 292.5t84.5 205.5zM209 131h299q-71 216 -151 404q-78 -181 -148 -404z" />
    <glyph glyph-name="Epsilon" unicode="&#x395;" horiz-adv-x="627" 
d="M225 519v-124h317v-126h-317v-138h357v-131h-512v650h505v-131h-350z" />
    <glyph glyph-name="Zeta" unicode="&#x396;" horiz-adv-x="625" 
d="M248 131h339v-131h-557v88l347 431h-332v131h550v-88z" />
    <glyph glyph-name="Eta" unicode="&#x397;" horiz-adv-x="737" 
d="M512 0v252h-287v-252h-155v650h155v-267h287v267h155v-650h-155z" />
    <glyph glyph-name="Theta" unicode="&#x398;" horiz-adv-x="781" 
d="M391 662q65 0 125.5 -20.5t111.5 -59.5t82 -104t31 -147q0 -90 -29 -158t-79.5 -108t-111.5 -59.5t-131 -19.5t-131 19.5t-111 59.5t-79 108t-29 158q0 82 31 147.5t82 104.5t112 59t126 20zM390 524q-81 0 -134.5 -51.5t-53.5 -142.5q0 -104 56 -156t133 -52t132.5 52
t55.5 156q0 91 -54 142.5t-135 51.5zM262 379h256v-108h-256v108z" />
    <glyph glyph-name="Iota" unicode="&#x399;" horiz-adv-x="295" 
d="M70 0v650h155v-650h-155z" />
    <glyph glyph-name="Kappa" unicode="&#x39a;" horiz-adv-x="695" 
d="M70 0v650h155v-650h-155zM474 650h208q-187 -214 -262 -326q42 -40 92 -96t83.5 -97.5l67.5 -84.5t37 -46h-205q-114 155 -256 313q79 142 235 337z" />
    <glyph glyph-name="Lambda" unicode="&#x39b;" horiz-adv-x="703" 
d="M344 535q-94 -219 -188 -535h-161q53 172 114.5 334.5t96.5 239.5l35 76h216q142 -296 251 -650h-171q-98 316 -193 535z" />
    <glyph glyph-name="Mu" unicode="&#x39c;" horiz-adv-x="910" 
d="M564 650h224q50 -259 87 -650h-151q-25 283 -60 496q-80 -232 -136 -435h-146q-56 203 -136 435q-35 -213 -60 -496h-151q37 391 87 650h224q95 -302 109 -365q16 71 109 365z" />
    <glyph glyph-name="Nu" unicode="&#x39d;" horiz-adv-x="749" 
d="M525 0l-303 438v-438h-152v649h179l278 -407v407h152v-649h-154z" />
    <glyph glyph-name="Xi" unicode="&#x39e;" horiz-adv-x="651" 
d="M52 650h547v-141h-547v141zM85 400h481v-136h-481v136zM45 141h561v-141h-561v141z" />
    <glyph glyph-name="Omicron" unicode="&#x39f;" horiz-adv-x="781" 
d="M391 662q65 0 125.5 -20.5t111.5 -59.5t82 -104t31 -147q0 -90 -29 -158t-79.5 -107t-111.5 -58.5t-131 -19.5t-131 19.5t-111 58.5t-79 107t-29 158q0 82 31 147.5t82 104.5t112 59t126 20zM390 524q-81 0 -134.5 -51.5t-53.5 -142.5q0 -104 56 -155t133 -51t132.5 51
t55.5 155q0 91 -54 142.5t-135 51.5z" />
    <glyph glyph-name="Pi" unicode="&#x3a0;" horiz-adv-x="727" 
d="M502 0v519h-277v-519h-155v650h587v-650h-155z" />
    <glyph glyph-name="Rho" unicode="&#x3a1;" horiz-adv-x="689" 
d="M70 650h302q285 0 285 -235q0 -65 -26 -113t-69 -73.5t-90 -37.5t-99 -12h-148v-179h-155v650zM225 310h134q66 0 101 22.5t35 86.5q0 57 -36 78.5t-103 21.5h-131v-209z" />
    <glyph glyph-name="Sigma" unicode="&#x3a3;" horiz-adv-x="617" 
d="M243 136h344v-136h-553v115l169 189l-173 218v128h557v-137h-339l153 -186z" />
    <glyph glyph-name="Tau" unicode="&#x3a4;" horiz-adv-x="623" 
d="M389 519v-519h-155v519h-214v131h583v-131h-214z" />
    <glyph glyph-name="Upsilon" unicode="&#x3a5;" horiz-adv-x="632" 
d="M469 650h178q-26 -56 -102 -189.5t-154 -246.5v-214h-154v217q-31 42 -60 85.5t-52.5 83l-43 73.5t-36.5 67.5l-27 54l-21 43.5t-12 26h176q10 -31 63 -136t90 -153q53 69 155 289z" />
    <glyph glyph-name="Phi" unicode="&#x3a6;" horiz-adv-x="911" 
d="M533 -51h-155v53q-175 7 -261.5 90.5t-86.5 233.5q0 144 86 228.5t262 91.5v54h155v-54q172 -8 260 -89t88 -231q0 -308 -348 -324v-53zM191 325q0 -56 16 -96t44.5 -60t59 -28.5t67.5 -8.5v384q-84 0 -135.5 -45.5t-51.5 -145.5zM720 325q0 56 -16.5 95.5t-45.5 59.5
t-59.5 28t-65.5 8v-384q84 0 135.5 45t51.5 148z" />
    <glyph glyph-name="Chi" unicode="&#x3a7;" horiz-adv-x="652" 
d="M672 0h-193l-154 213l-158 -213h-187l247 327l-246 323h198l144 -216l143 216h194l-236 -323z" />
    <glyph glyph-name="Psi" unicode="&#x3a8;" horiz-adv-x="893" 
d="M369 0v120q-150 0 -227 58.5t-77 189.5v282h155v-263q0 -65 29.5 -97t119.5 -32v392h155v-392q82 0 115.5 28.5t33.5 100.5v263h155v-279q0 -124 -70 -187.5t-234 -63.5v-120h-155z" />
    <glyph glyph-name="Omega" unicode="&#x3a9;" horiz-adv-x="760" 
d="M730 336q0 -142 -95 -215h100v-121h-300v127q133 70 133 208q0 90 -49 139.5t-140 49.5q-84 0 -135.5 -46.5t-51.5 -144.5q0 -139 133 -206v-127h-300v121h100q-43 32 -69 88t-26 125q0 154 94.5 241t255.5 87q166 0 258 -90t92 -236z" />
    <glyph glyph-name="Iotadieresis" unicode="&#x3aa;" horiz-adv-x="295" 
d="M107 706h-149v129h149v-129zM337 706h-149v129h149v-129zM225 0h-155v650h155v-650z" />
    <glyph glyph-name="Upsilondieresis" unicode="&#x3ab;" horiz-adv-x="632" 
d="M275 706h-149v129h149v-129zM505 706h-149v129h149v-129zM469 650h178q-26 -56 -102 -189.5t-154 -246.5v-214h-154v217q-31 42 -60 85.5t-52.5 83l-43 73.5t-36.5 67.5l-27 54l-21 43.5t-12 26h176q10 -31 63 -136t90 -153q53 69 155 289z" />
    <glyph glyph-name="alphatonos" unicode="&#x3ac;" horiz-adv-x="671" 
d="M273 592l34 165h161l-94 -165h-101zM487 0l-14 45q-28 -25 -75.5 -41t-91.5 -16q-114 0 -192.5 73.5t-78.5 197.5q0 131 78.5 198t198.5 67q90 0 170 -50l12 39h112v-513h-119zM334 113q63 0 121 39v211q-60 37 -125 37q-63 0 -100.5 -36t-37.5 -104q0 -73 40 -110
t102 -37z" />
    <glyph glyph-name="epsilontonos" unicode="&#x3ad;" horiz-adv-x="554" 
d="M244 592l34 165h161l-94 -165h-101zM499 138v-127q-101 -23 -210 -23q-132 0 -193 43.5t-61 116.5q0 44 22.5 76.5t66.5 42.5q-73 29 -73 105q0 40 17.5 69t42.5 44.5t63 24.5t69 11.5t71 2.5q116 0 185 -29v-129q-70 30 -185 30q-108 0 -108 -48q0 -34 54 -34h127v-115
h-144q-51 0 -51 -38q0 -28 31.5 -38t104.5 -10q95 0 171 25z" />
    <glyph glyph-name="etatonos" unicode="&#x3ae;" horiz-adv-x="663" 
d="M256 592l34 165h161l-94 -165h-101zM407 524q92 -2 141.5 -48t49.5 -157v-519h-151v500q0 50 -20.5 74.5t-68.5 24.5q-75 0 -142 -48v-351h-151v513h122l16 -54q102 67 204 65z" />
    <glyph glyph-name="iotatonos" unicode="&#x3af;" horiz-adv-x="396" 
d="M71 592l34 165h161l-94 -165h-101zM211 513v-320q0 -40 16.5 -60t60.5 -20q41 0 83 14v-120q-53 -19 -115 -19q-89 0 -142.5 41.5t-53.5 136.5v347h151z" />
    <glyph glyph-name="upsilondieresistonos" unicode="&#x3b0;" horiz-adv-x="650" 
d="M236 592l24 165h161l-84 -165h-101zM36 592v129h149v-129h-149zM445 592v129h149v-129h-149zM315 -12q-66 0 -114 14.5t-73.5 35.5t-40.5 54.5t-18.5 61t-3.5 65.5v294h151v-287q0 -114 105 -114q127 0 127 167q0 138 -63 234h166q54 -94 54 -224q0 -301 -290 -301z" />
    <glyph glyph-name="alpha" unicode="&#x3b1;" horiz-adv-x="671" 
d="M487 0l-14 45q-28 -25 -75.5 -41t-91.5 -16q-114 0 -192.5 73.5t-78.5 197.5q0 131 78.5 198t198.5 67q90 0 170 -50l12 39h112v-513h-119zM334 113q63 0 121 39v211q-60 37 -125 37q-63 0 -100.5 -36t-37.5 -104q0 -73 40 -110t102 -37z" />
    <glyph glyph-name="beta" unicode="&#x3b2;" horiz-adv-x="681" 
d="M589 541q0 -55 -26 -97.5t-65 -57.5q66 -5 107 -53.5t41 -118.5q0 -97 -62.5 -161.5t-199.5 -64.5q-97 0 -168 31v-219h-151v672q0 36 3 63.5t18.5 65t42 62t78.5 42.5t124 18q75 0 128 -15.5t80 -43t38.5 -57.5t11.5 -66zM335 599q-119 0 -119 -114v-341q54 -32 145 -32
q67 0 97.5 31t30.5 78q0 17 -3 30.5t-11 22.5l-14 15.5t-20 10.5t-20.5 6t-25 3t-23.5 1h-25h-60v120h59q56 0 81 21.5t25 65.5q0 82 -117 82z" />
    <glyph glyph-name="gamma" unicode="&#x3b3;" horiz-adv-x="636" 
d="M244 -200v144q0 21 -87.5 235t-141.5 334h165q87 -211 150 -406q113 200 119 406h162q-2 -148 -64 -289.5t-152 -254.5v-169h-151z" />
    <glyph glyph-name="delta" unicode="&#x3b4;" horiz-adv-x="641" 
d="M313 -11q-141 0 -212 72.5t-71 174.5q0 83 43 146.5t126 87.5q-33 24 -50 48t-17 63q0 67 60.5 104.5t166.5 37.5q113 0 189 -26v-122q-64 25 -157 25q-80 0 -80 -33q0 -16 30.5 -33.5t73.5 -38.5t86.5 -50.5t74 -81t30.5 -118.5q0 -103 -74 -179.5t-219 -76.5zM318 109
q61 0 95 39t34 92t-27 88.5t-88 61.5l-12 5q-133 -25 -133 -152q0 -64 34.5 -99t96.5 -35z" />
    <glyph glyph-name="epsilon" unicode="&#x3b5;" horiz-adv-x="554" 
d="M499 138v-127q-101 -23 -210 -23q-132 0 -193 43.5t-61 116.5q0 44 22.5 76.5t66.5 42.5q-73 29 -73 105q0 40 17.5 69t42.5 44.5t63 24.5t69 11.5t71 2.5q116 0 185 -29v-129q-70 30 -185 30q-108 0 -108 -48q0 -34 54 -34h127v-115h-144q-51 0 -51 -38q0 -28 31.5 -38
t104.5 -10q95 0 171 25z" />
    <glyph glyph-name="zeta" unicode="&#x3b6;" horiz-adv-x="546" 
d="M201 265q0 -61 36 -93.5t109 -44.5q94 -15 133 -47t39 -113q0 -71 -41 -167h-156q40 76 40 122q0 40 -18.5 53t-77.5 23q-42 7 -78.5 22t-73 43t-57.5 76.5t-21 112.5q0 98 51 179.5t141 129.5h-152v130h446v-112q-320 -99 -320 -314z" />
    <glyph glyph-name="eta" unicode="&#x3b7;" horiz-adv-x="663" 
d="M407 524q92 -2 141.5 -48t49.5 -157v-519h-151v500q0 50 -20.5 74.5t-68.5 24.5q-75 0 -142 -48v-351h-151v513h122l16 -54q102 67 204 65z" />
    <glyph glyph-name="theta" unicode="&#x3b8;" horiz-adv-x="658" 
d="M328 -12q-159 0 -226 94t-67 279q0 173 71.5 267.5t221.5 94.5q295 0 295 -363q0 -191 -70 -281.5t-225 -90.5zM182 420h294q-1 86 -40 132t-108 46q-74 0 -109 -49t-37 -129zM476 300h-294q0 -93 32.5 -140t113.5 -47q80 0 114 45.5t34 141.5z" />
    <glyph glyph-name="iota" unicode="&#x3b9;" horiz-adv-x="396" 
d="M211 513v-320q0 -40 16.5 -60t60.5 -20q41 0 83 14v-120q-53 -19 -115 -19q-89 0 -142.5 41.5t-53.5 136.5v347h151z" />
    <glyph glyph-name="kappa" unicode="&#x3ba;" horiz-adv-x="614" 
d="M65 0v513h151v-513h-151zM413 513h182q-128 -148 -201 -247q85 -78 230 -266h-184q-83 122 -214 257q96 152 187 256z" />
    <glyph glyph-name="lambda" unicode="&#x3bb;" horiz-adv-x="615" 
d="M126 598q-26 0 -64 -14v120q50 19 92 19q86 0 135.5 -40.5t108.5 -161.5q144 -293 207 -521h-161q-67 237 -129 348q-27 -50 -69 -153t-70 -195h-161q30 111 97 260.5t125 242.5q-31 59 -52.5 77t-58.5 18z" />
    <glyph glyph-name="mu" unicode="&#x3bc;" horiz-adv-x="658" 
d="M593 513v-513h-122l-16 54q-102 -67 -199 -65q-19 0 -40 7v-196h-151v713h151v-300q0 -50 20.5 -74.5t68.5 -24.5q70 0 137 48v351h151z" />
    <glyph glyph-name="nu" unicode="&#x3bd;" horiz-adv-x="570" 
d="M419 513h161q-14 -45 -36.5 -109.5t-76 -190.5t-104.5 -213h-156q-51 87 -104.5 213t-76 190.5t-36.5 109.5h161q15 -53 58 -183t76 -202q33 72 76 202t58 183z" />
    <glyph glyph-name="xi" unicode="&#x3be;" horiz-adv-x="570" 
d="M35 195q0 67 37 118t115 67q-121 32 -121 155q0 94 71.5 141t207.5 47q121 0 185 -29v-129q-66 33 -163 33q-71 0 -105 -17.5t-34 -64.5q0 -48 37 -64.5t111 -16.5h107v-130h-140q-74 0 -108 -17.5t-34 -62.5q0 -44 36 -63.5t122 -34.5q35 -6 56.5 -11.5t45.5 -17t37 -27
t21.5 -41.5t8.5 -61q0 -76 -41 -169h-156q40 76 40 124q0 39 -18.5 52t-75.5 22q-41 6 -72 14t-65 23t-55.5 35t-35.5 52t-14 73z" />
    <glyph glyph-name="omicron" unicode="&#x3bf;" horiz-adv-x="658" 
d="M330 524q133 0 213 -70.5t80 -198.5q0 -127 -80 -196.5t-213 -69.5q-134 0 -214.5 69.5t-80.5 196.5q0 128 80.5 198.5t214.5 70.5zM326 399q-60 0 -97 -39t-37 -105q0 -62 38.5 -101.5t101.5 -39.5q60 0 97 40.5t37 100.5q0 68 -38.5 106t-101.5 38z" />
    <glyph glyph-name="pi" unicode="&#x3c0;" horiz-adv-x="782" 
d="M747 513v-130h-135v-188q0 -42 10.5 -61t46.5 -19q19 0 61 14v-120q-53 -19 -103 -19q-84 0 -125 40t-41 138v215h-167v-383h-151v383h-123v130h727z" />
    <glyph glyph-name="rho" unicode="&#x3c1;" horiz-adv-x="656" 
d="M332 524q146 0 217.5 -74.5t71.5 -189.5q0 -125 -80 -198.5t-191 -73.5q-80 0 -149 31v-219h-151v446q0 57 13.5 104t44.5 88t88 63.5t136 22.5zM322 112q62 0 102 38t40 110q0 67 -37.5 103t-96.5 36q-129 0 -129 -154v-101q52 -32 121 -32z" />
    <glyph glyph-name="sigmafinal" unicode="&#x3c2;" horiz-adv-x="558" 
d="M35 252q0 125 72 198.5t222 73.5q98 0 184 -29v-129q-76 33 -159 33q-76 0 -114.5 -31.5t-38.5 -102.5q0 -61 36 -93.5t109 -44.5q94 -15 133 -47t39 -113q0 -70 -41 -167h-156q40 73 40 122q0 40 -18.5 53.5t-86.5 24.5q-38 6 -73 20.5t-70.5 42.5t-56.5 76.5t-21 112.5
z" />
    <glyph glyph-name="sigma" unicode="&#x3c3;" horiz-adv-x="697" 
d="M327 -11q-137 0 -214.5 71t-77.5 191q0 124 79 193t213 69h345v-130h-101q40 -50 40 -132q0 -126 -79 -194t-205 -68zM325 112q59 0 95.5 39t36.5 100q0 87 -76 132h-57q-67 0 -101 -39t-34 -97q0 -67 37 -101t99 -34z" />
    <glyph glyph-name="tau" unicode="&#x3c4;" horiz-adv-x="593" 
d="M563 513v-130h-215v-188q0 -40 16.5 -60t60.5 -20q41 0 83 14v-120q-53 -19 -115 -19q-89 0 -142.5 41.5t-53.5 136.5v215h-172v130h538z" />
    <glyph glyph-name="upsilon" unicode="&#x3c5;" horiz-adv-x="650" 
d="M315 -12q-66 0 -114 14.5t-73.5 35.5t-40.5 54.5t-18.5 61t-3.5 65.5v294h151v-287q0 -114 105 -114q127 0 127 167q0 138 -63 234h166q54 -94 54 -224q0 -301 -290 -301z" />
    <glyph glyph-name="phi" unicode="&#x3c6;" horiz-adv-x="831" 
d="M491 -200h-151v183q-60 0 -112 14.5t-96.5 45t-70.5 86t-26 129.5q0 127 82 199.5t223 72.5v132h151v-132q141 0 223 -72.5t82 -199.5q0 -74 -26 -129.5t-70.5 -86t-96.5 -45t-112 -14.5v-183zM340 102v306q-63 0 -103.5 -39t-40.5 -113q0 -72 40.5 -113t103.5 -41z
M491 408v-306q63 0 103.5 41t40.5 113q0 74 -40.5 113t-103.5 39z" />
    <glyph glyph-name="chi" unicode="&#x3c7;" horiz-adv-x="599" 
d="M415 513h179l-210 -352l209 -361h-184l-116 225l-110 -225h-178l210 352l-208 361h183l115 -227z" />
    <glyph glyph-name="psi" unicode="&#x3c8;" horiz-adv-x="841" 
d="M340 -12h-13q-76 0 -129 17.5t-81 50t-40 71t-12 89.5v297h151v-281q0 -63 30.5 -91.5t93.5 -28.5v550h152v-550q82 0 114.5 44.5t32.5 129.5q0 131 -63 227h166q54 -95 54 -224q0 -139 -77.5 -219.5t-227.5 -81.5v-188h-151v188z" />
    <glyph glyph-name="omega" unicode="&#x3c9;" horiz-adv-x="826" 
d="M488 381v-193q0 -37 19 -55.5t51 -18.5q71 0 71 100q0 75 -28 158t-72 141h163q94 -128 94 -296q0 -105 -51 -166t-157 -61q-120 0 -164 92h-2q-44 -92 -164 -92q-106 0 -157 61t-51 166q0 168 94 296h163q-44 -58 -72 -141t-28 -158q0 -100 72 -100q30 0 49.5 18
t19.5 56v193h150z" />
    <glyph glyph-name="iotadieresis" unicode="&#x3ca;" horiz-adv-x="396" 
d="M90 715v-129h-149v129h149zM320 715v-129h-149v129h149zM211 513v-320q0 -40 16.5 -60t60.5 -20q41 0 83 14v-120q-53 -19 -115 -19q-89 0 -142.5 41.5t-53.5 136.5v347h151z" />
    <glyph glyph-name="upsilondieresis" unicode="&#x3cb;" horiz-adv-x="650" 
d="M264 715v-129h-149v129h149zM494 715v-129h-149v129h149zM315 -12q-66 0 -114 14.5t-73.5 35.5t-40.5 54.5t-18.5 61t-3.5 65.5v294h151v-287q0 -114 105 -114q127 0 127 167q0 138 -63 234h166q54 -94 54 -224q0 -301 -290 -301z" />
    <glyph glyph-name="omicrontonos" unicode="&#x3cc;" horiz-adv-x="658" 
d="M272 592l34 165h161l-94 -165h-101zM330 524q133 0 213 -70.5t80 -198.5q0 -127 -80 -196.5t-213 -69.5q-134 0 -214.5 69.5t-80.5 196.5q0 128 80.5 198.5t214.5 70.5zM326 399q-60 0 -97 -39t-37 -105q0 -62 38.5 -101.5t101.5 -39.5q60 0 97 40.5t37 100.5
q0 68 -38.5 106t-101.5 38z" />
    <glyph glyph-name="upsilontonos" unicode="&#x3cd;" horiz-adv-x="650" 
d="M250 592l34 165h161l-94 -165h-101zM315 -12q-66 0 -114 14.5t-73.5 35.5t-40.5 54.5t-18.5 61t-3.5 65.5v294h151v-287q0 -114 105 -114q127 0 127 167q0 138 -63 234h166q54 -94 54 -224q0 -301 -290 -301z" />
    <glyph glyph-name="omegatonos" unicode="&#x3ce;" horiz-adv-x="826" 
d="M361 592l34 165h161l-94 -165h-101zM488 381v-193q0 -37 19 -55.5t51 -18.5q71 0 71 100q0 75 -28 158t-72 141h163q94 -128 94 -296q0 -105 -51 -166t-157 -61q-120 0 -164 92h-2q-44 -92 -164 -92q-106 0 -157 61t-51 166q0 168 94 296h163q-44 -58 -72 -141t-28 -158
q0 -100 72 -100q30 0 49.5 18t19.5 56v193h150z" />
    <glyph glyph-name="uni0400" unicode="&#x400;" horiz-adv-x="627" 
d="M394 710h-116l-101 145h143zM575 519h-350v-124h317v-126h-317v-138h357v-131h-512v650h505v-131z" />
    <glyph glyph-name="uni0401" unicode="&#x401;" horiz-adv-x="627" 
d="M284 706h-149v129h149v-129zM514 706h-149v129h149v-129zM575 519h-350v-124h317v-126h-317v-138h357v-131h-512v650h505v-131z" />
    <glyph glyph-name="uni0402" unicode="&#x402;" horiz-adv-x="835" 
d="M583 444q101 -1 149 -53.5t48 -176.5v-40q0 -97 -59.5 -142.5t-149.5 -45.5q-72 0 -125 19v134q39 -19 93 -19q49 0 67.5 17.5t18.5 53.5v21q0 53 -22 76t-66 23q-81 0 -148 -48v-263h-155v519h-214v131h583v-131h-214v-135q98 61 194 60z" />
    <glyph glyph-name="uni0403" unicode="&#x403;" horiz-adv-x="535" 
d="M327 710h-116l74 145h143zM515 519h-290v-519h-155v650h445v-131z" />
    <glyph glyph-name="uni0404" unicode="&#x404;" horiz-adv-x="630" 
d="M384 124q99 1 206 32v-145q-109 -23 -218 -23q-156 0 -244 85.5t-88 255.5q0 85 27.5 150t75.5 104.5t109 59t132 19.5q114 0 205 -28v-138q-92 30 -192 30q-88 0 -133 -31.5t-58 -99.5h279v-126h-281q22 -147 180 -145z" />
    <glyph glyph-name="uni0405" unicode="&#x405;" horiz-adv-x="643" 
d="M332 662q89 0 226 -33v-136q-54 13 -80 18.5t-69 10.5t-88 5q-122 0 -122 -58q0 -36 67 -54l171 -45q166 -43 166 -176q0 -99 -73 -152.5t-215 -53.5q-130 0 -265 36v141q161 -42 246 -42q78 0 112.5 13t34.5 43q0 46 -88 68l-165 42q-72 19 -111 65.5t-39 112.5
q0 195 292 195z" />
    <glyph glyph-name="uni0406" unicode="&#x406;" horiz-adv-x="295" 
d="M225 0h-155v650h155v-650z" />
    <glyph glyph-name="uni0407" unicode="&#x407;" horiz-adv-x="295" 
d="M107 706h-149v129h149v-129zM337 706h-149v129h149v-129zM225 0h-155v650h155v-650z" />
    <glyph glyph-name="uni0408" unicode="&#x408;" horiz-adv-x="496" 
d="M431 650v-435q0 -107 -63.5 -166t-183.5 -59q-89 0 -179 22v136q81 -23 156 -23q69 0 92 28.5t23 91.5v405h155z" />
    <glyph glyph-name="uni0409" unicode="&#x409;" horiz-adv-x="1012" 
d="M588 434h127q135 0 206 -52t71 -155q0 -107 -71 -167t-209 -60h-279v519h-145q-20 -181 -45 -309q-11 -57 -26.5 -95.5t-41 -68.5t-65 -44t-95.5 -14q-14 0 -24 1l-1 122q8 -1 15 -1q46 0 65 28.5t37 116.5q25 122 44 395h437v-216zM588 131h123q63 0 91 21.5t28 72.5
q0 82 -119 82h-123v-176z" />
    <glyph glyph-name="uni040A" unicode="&#x40a;" horiz-adv-x="1081" 
d="M657 404h139q265 0 265 -195q0 -97 -67.5 -153t-200.5 -56h-291v277h-277v-277h-155v650h155v-246h277v246h155v-246zM657 131h135q60 0 83.5 18t23.5 58q0 70 -107 70h-135v-146z" />
    <glyph glyph-name="uni040B" unicode="&#x40b;" horiz-adv-x="835" 
d="M583 444q101 -1 149 -53.5t48 -176.5v-214h-155v212q0 53 -22 76t-66 23q-81 0 -148 -48v-263h-155v519h-214v131h583v-131h-214v-135q98 61 194 60z" />
    <glyph glyph-name="uni040C" unicode="&#x40c;" horiz-adv-x="689" 
d="M389 710h-116l74 145h143zM694 0h-195q-87 122 -206 252h-68v-252h-155v650h155v-268h59q74 117 199 268h193q-195 -210 -266 -316q145 -146 284 -334z" />
    <glyph glyph-name="uni040D" unicode="&#x40d;" horiz-adv-x="749" 
d="M438 710h-116l-101 145h143zM222 649v-420l284 420h173v-649h-152v441l-297 -441h-160v649h152z" />
    <glyph glyph-name="uni040E" unicode="&#x40e;" horiz-adv-x="637" 
d="M383 847h101q-4 -60 -42 -99.5t-122 -39.5q-152 0 -164 139h101q6 -28 20 -41.5t43 -13.5q31 0 44 13t19 42zM474 650h178q-230 -434 -387 -650h-175q81 102 153 217q-31 42 -60 85.5t-52.5 83.5l-43 73.5t-37 67.5l-27 53.5l-21 43.5l-12.5 26h176q10 -30 65 -137.5
t93 -155.5q43 63 150 293z" />
    <glyph glyph-name="uni040F" unicode="&#x40f;" horiz-adv-x="717" 
d="M647 0h-213v-169h-151v169h-213v650h155v-519h267v519h155v-650z" />
    <glyph glyph-name="uni0410" unicode="&#x410;" horiz-adv-x="683" 
d="M527 0l-38 118h-307l-36 -118h-161q112 365 246 650h216q145 -306 251 -650h-171zM225 249h220q-55 157 -111 286q-54 -124 -109 -286z" />
    <glyph glyph-name="uni0411" unicode="&#x411;" horiz-adv-x="669" 
d="M545 519h-320v-85h137q135 0 206 -52t71 -155q0 -107 -71 -167t-209 -60h-289v650h475v-131zM225 307v-176h133q63 0 91 21.5t28 72.5q0 82 -119 82h-133z" />
    <glyph glyph-name="uni0412" unicode="&#x412;" horiz-adv-x="702" 
d="M70 650h267q291 0 291 -166q0 -46 -29 -86t-86 -60v-3q58 -9 101 -47.5t43 -97.5q0 -190 -282 -190h-305v650zM225 525v-139h118q57 0 89.5 15t32.5 57q0 41 -32 54t-86 13h-122zM225 275v-150h149q62 0 91.5 16.5t29.5 56.5q0 45 -33.5 61t-98.5 16h-138z" />
    <glyph glyph-name="uni0413" unicode="&#x413;" horiz-adv-x="535" 
d="M515 519h-290v-519h-155v650h445v-131z" />
    <glyph glyph-name="uni0414" unicode="&#x414;" horiz-adv-x="690" 
d="M685 131v-300h-150v169h-390v-169h-150v300h68q24 26 43 124q25 122 44 396l454 -1v-519h81zM449 131v388h-162q-21 -190 -45 -306q-10 -46 -27 -82h234z" />
    <glyph glyph-name="uni0415" unicode="&#x415;" horiz-adv-x="627" 
d="M575 519h-350v-124h317v-126h-317v-138h357v-131h-512v650h505v-131z" />
    <glyph glyph-name="uni0416" unicode="&#x416;" horiz-adv-x="1014" 
d="M1014 0h-194q-75 127 -173 251h-65v-251h-150v251h-65q-98 -124 -173 -251h-194q173 245 242 334q-69 120 -224 316h186q96 -132 170 -268h58v268h150v-268h58q74 136 170 268h186q-155 -196 -224 -316q69 -89 242 -334z" />
    <glyph glyph-name="uni0417" unicode="&#x417;" horiz-adv-x="618" 
d="M267 662q136 0 206.5 -45t70.5 -125q0 -106 -114 -148v-3q67 -13 105 -52t38 -94q0 -207 -316 -207q-98 0 -207 23v146q114 -33 212 -33q80 0 114.5 20t34.5 61q0 36 -30 53t-101 17h-141v111h121q68 0 95 18t27 54q0 34 -29.5 51t-102.5 17q-101 0 -193 -30v138
q91 28 210 28z" />
    <glyph glyph-name="uni0418" unicode="&#x418;" horiz-adv-x="749" 
d="M222 649v-420l284 420h173v-649h-152v441l-297 -441h-160v649h152z" />
    <glyph glyph-name="uni0419" unicode="&#x419;" horiz-adv-x="749" 
d="M537 835h-89q-11 -31 -29 -44t-48 -13q-49 0 -58 57h-116q14 -141 165 -141q72 0 118.5 37t56.5 104zM222 649v-420l284 420h173v-649h-152v441l-297 -441h-160v649h152z" />
    <glyph glyph-name="uni041A" unicode="&#x41a;" horiz-adv-x="689" 
d="M694 0h-195q-87 122 -206 252h-68v-252h-155v650h155v-268h59q74 117 199 268h193q-195 -210 -266 -316q145 -146 284 -334z" />
    <glyph glyph-name="uni041B" unicode="&#x41b;" horiz-adv-x="665" 
d="M595 650h-444q-19 -273 -44 -395q-18 -88 -37 -116.5t-65 -28.5q-7 0 -15 1l1 -122q10 -1 24 -1q56 0 95.5 14t65 44t41 68.5t26.5 95.5q25 128 45 309h152v-519h155v650z" />
    <glyph glyph-name="uni041C" unicode="&#x41c;" horiz-adv-x="910" 
d="M564 650h224q50 -259 87 -650h-151q-25 283 -60 496q-80 -232 -136 -435h-146q-56 203 -136 435q-35 -213 -60 -496h-151q37 391 87 650h224q95 -302 109 -365q16 71 109 365z" />
    <glyph glyph-name="uni041D" unicode="&#x41d;" horiz-adv-x="737" 
d="M667 0h-155v252h-287v-252h-155v650h155v-267h287v267h155v-650z" />
    <glyph glyph-name="uni041E" unicode="&#x41e;" horiz-adv-x="781" 
d="M391 662q65 0 125.5 -20.5t111.5 -59.5t82 -104t31 -147q0 -90 -29 -158t-79.5 -107t-111.5 -58.5t-131 -19.5t-131 19.5t-111 58.5t-79 107t-29 158q0 82 31 147.5t82 104.5t112 59t126 20zM390 524q-81 0 -134.5 -51.5t-53.5 -142.5q0 -104 56 -155t133 -51t132.5 51
t55.5 155q0 91 -54 142.5t-135 51.5z" />
    <glyph glyph-name="uni041F" unicode="&#x41f;" horiz-adv-x="732" 
d="M662 0h-155v519h-282v-519h-155v650h592v-650z" />
    <glyph glyph-name="uni0420" unicode="&#x420;" horiz-adv-x="689" 
d="M70 650h302q285 0 285 -235q0 -65 -26 -113t-69 -73.5t-90 -37.5t-99 -12h-148v-179h-155v650zM225 519v-209h134q66 0 101 22.5t35 86.5q0 57 -36 78.5t-103 21.5h-131z" />
    <glyph glyph-name="uni0421" unicode="&#x421;" horiz-adv-x="657" 
d="M421 662q104 0 195 -28v-138q-92 30 -182 30q-113 0 -172.5 -52t-59.5 -148q0 -100 64 -151.5t165 -50.5q79 1 186 32v-146q-104 -22 -198 -22q-168 0 -273.5 83.5t-105.5 253.5q0 84 32 150.5t86 106t121 60t142 20.5z" />
    <glyph glyph-name="uni0422" unicode="&#x422;" horiz-adv-x="623" 
d="M603 519h-214v-519h-155v519h-214v131h583v-131z" />
    <glyph glyph-name="uni0423" unicode="&#x423;" horiz-adv-x="637" 
d="M474 650h178q-230 -434 -387 -650h-175q81 102 153 217q-31 42 -60 85.5t-52.5 83.5l-43 73.5t-37 67.5l-27 53.5l-21 43.5l-12.5 26h176q10 -30 65 -137.5t93 -155.5q43 63 150 293z" />
    <glyph glyph-name="uni0424" unicode="&#x424;" horiz-adv-x="827" 
d="M787 329q0 -154 -80 -236t-219 -99v-43l-149 -1v44q-139 17 -219 99t-80 236q0 143 82.5 225.5t216.5 100.5v45h149v-45q133 -18 216 -101t83 -225zM200 328q0 -161 144 -194v381q-144 -31 -144 -187zM483 515v-382q144 31 144 195q0 156 -144 187z" />
    <glyph glyph-name="uni0425" unicode="&#x425;" horiz-adv-x="652" 
d="M424 327l248 -327h-193l-154 213l-158 -213h-187l247 327l-246 323h198l144 -216l143 216h194z" />
    <glyph glyph-name="uni0426" unicode="&#x426;" horiz-adv-x="732" 
d="M727 131v-300h-150v169h-507v650h155v-519h267v519h155v-519h80z" />
    <glyph glyph-name="uni0427" unicode="&#x427;" horiz-adv-x="671" 
d="M601 650v-650h-155v216q-98 -61 -194 -60q-101 1 -149 53.5t-48 176.5v264h155v-262q0 -53 22 -76t66 -23q81 0 148 48v313h155z" />
    <glyph glyph-name="uni0428" unicode="&#x428;" horiz-adv-x="966" 
d="M896 650v-650h-826v650h155v-519h183v519h150v-519h183v519h155z" />
    <glyph glyph-name="uni0429" unicode="&#x429;" horiz-adv-x="981" 
d="M976 131v-300h-150v169h-756v650h155v-519h183v519h150v-519h183v519h155v-519h80z" />
    <glyph glyph-name="uni042A" unicode="&#x42a;" horiz-adv-x="774" 
d="M340 434h137q135 0 206 -52t71 -155q0 -107 -71 -167t-209 -60h-289v519h-180v131h335v-216zM340 131h133q63 0 91 21.5t28 72.5q0 82 -119 82h-133v-176z" />
    <glyph glyph-name="uni042B" unicode="&#x42b;" horiz-adv-x="950" 
d="M225 434h137q135 0 206 -52t71 -155q0 -107 -71 -167t-209 -60h-289v650h155v-216zM880 0h-155v650h155v-650zM225 307v-176h133q63 0 91 21.5t28 72.5q0 82 -119 82h-133z" />
    <glyph glyph-name="uni042C" unicode="&#x42c;" horiz-adv-x="659" 
d="M225 434h137q135 0 206 -52t71 -155q0 -107 -71 -167t-209 -60h-289v650h155v-216zM225 131h133q63 0 91 21.5t28 72.5q0 82 -119 82h-133v-176z" />
    <glyph glyph-name="uni042D" unicode="&#x42d;" horiz-adv-x="630" 
d="M246 662q71 0 132 -19.5t109 -58.5t75.5 -104.5t27.5 -150.5q0 -171 -92.5 -256t-249.5 -85q-109 0 -208 21v146q104 -30 196 -31q163 -2 189 145h-280v126h279q-12 68 -57.5 99.5t-133.5 31.5q-100 0 -192 -30v138q91 28 205 28z" />
    <glyph glyph-name="uni042E" unicode="&#x42e;" horiz-adv-x="1018" 
d="M638 660q61 0 119.5 -20.5t109 -59t81 -104t30.5 -147.5q0 -88 -29 -155t-78 -106t-108.5 -58.5t-125.5 -19.5q-123 0 -214 65t-113 197h-85v-252h-155v650h155v-267h82q12 91 65 155.5t121.5 93t144.5 28.5zM638 128q70 0 124 50t54 150q0 90 -52 142t-127 52
q-73 0 -123 -51.5t-50 -142.5q0 -100 52 -150t122 -50z" />
    <glyph glyph-name="uni042F" unicode="&#x42f;" horiz-adv-x="699" 
d="M629 650v-650h-155v206h-107q-72 -74 -153 -206h-194q85 131 180 231q-66 15 -107 66.5t-41 123.5q0 229 301 229h276zM471 519h-118q-139 0 -139 -95q0 -47 31 -67t105 -20h121v182z" />
    <glyph glyph-name="uni0430" unicode="&#x430;" horiz-adv-x="629" 
d="M298 524q266 0 266 -212v-312h-119l-14 45q-85 -57 -186 -57q-95 0 -150 48.5t-55 122.5q0 57 34.5 94.5t80.5 51t100 13.5q84 0 158 -27v20q0 95 -160 95q-63 0 -171 -30v123q84 25 216 25zM196 156q0 -26 24.5 -41.5t71.5 -15.5q49 0 121 35v62q-46 22 -124 22
q-93 0 -93 -62z" />
    <glyph glyph-name="uni0431" unicode="&#x431;" horiz-adv-x="660" 
d="M385 484q114 0 177 -61t63 -178q0 -124 -80.5 -190.5t-215.5 -66.5q-143 0 -216 71t-73 231v2q0 72 5.5 122.5t21 95t42 73.5t69 52t100.5 36t138 20q54 5 78 11t41 23l28 -122q-31 -39 -156 -45q-114 -5 -160 -37t-52 -107q82 70 190 70zM333 113q63 0 99 34.5t36 97.5
q0 119 -121 119q-47 0 -87 -24t-66 -61q-3 -87 31 -126.5t108 -39.5z" />
    <glyph glyph-name="uni0432" unicode="&#x432;" horiz-adv-x="609" 
d="M65 513h282q104 0 155 -34t51 -93q0 -91 -110 -118v-3q67 -8 103 -39t36 -80q0 -146 -222 -146h-295v513zM216 396v-87h124q24 0 40 11.5t16 33.5q0 19 -15 30.5t-41 11.5h-124zM216 215v-98h143q66 0 66 51q0 22 -16.5 34.5t-45.5 12.5h-147z" />
    <glyph glyph-name="uni0433" unicode="&#x433;" horiz-adv-x="462" 
d="M442 392h-226v-392h-151v513h377v-121z" />
    <glyph glyph-name="uni0434" unicode="&#x434;" horiz-adv-x="612" 
d="M622 125v-294h-147v169h-328v-169h-147v294h65q29 33 45 125.5t25 263.5l404 -1v-388h83zM388 125v268h-120q-17 -192 -62 -268h182z" />
    <glyph glyph-name="uni0435" unicode="&#x435;" horiz-adv-x="612" 
d="M577 201h-387q5 -36 32 -58t56.5 -28.5t63.5 -6.5q95 0 208 35v-118q-117 -37 -212 -37q-143 0 -223 67.5t-80 204.5q0 128 83 196t202 68q126 0 191.5 -65t65.5 -188v-70zM191 295h231q-1 52 -27 81.5t-74 29.5q-118 0 -130 -111z" />
    <glyph glyph-name="uni0436" unicode="&#x436;" horiz-adv-x="867" 
d="M877 0h-181q-57 93 -135 199h-52v-199h-151v199h-57q-58 -80 -130 -199h-181q125 183 190 266q-61 113 -161 247h171q38 -54 112 -194h56v194h151v-194h54q68 129 114 194h171q-100 -134 -161 -247q65 -83 190 -266z" />
    <glyph glyph-name="uni0437" unicode="&#x437;" horiz-adv-x="487" 
d="M240 524q104 0 152.5 -35.5t48.5 -92.5q0 -98 -107 -128v-3q126 -23 126 -125q0 -70 -59.5 -111t-182.5 -41q-94 0 -188 23v120q79 -25 192 -25q81 0 81 62q0 22 -16.5 34.5t-45.5 12.5h-157v94h134q30 0 48 12t18 35q0 51 -71 51q-86 0 -173 -32v121q95 28 200 28z" />
    <glyph glyph-name="uni0438" unicode="&#x438;" horiz-adv-x="633" 
d="M215 513v-294l187 294h166v-513h-150v311l-199 -311h-154v513h150z" />
    <glyph glyph-name="uni0439" unicode="&#x439;" horiz-adv-x="633" 
d="M482 725h-89q-11 -31 -29 -44t-48 -13q-49 0 -58 57h-116q14 -141 165 -141q72 0 118.5 37t56.5 104zM215 513v-294l187 294h166v-513h-150v311l-199 -311h-154v513h150z" />
    <glyph glyph-name="uni043A" unicode="&#x43a;" horiz-adv-x="614" 
d="M624 0h-184q-62 93 -159 199h-65v-199h-151v513h151v-194h50q78 115 147 194h182q-128 -148 -201 -247q85 -78 230 -266z" />
    <glyph glyph-name="uni043B" unicode="&#x43b;" horiz-adv-x="576" 
d="M511 513h-404q-12 -219 -36 -313.5t-76 -94.5q-7 0 -15 1l1 -117q10 -1 27 -1q73 0 117.5 34.5t72.5 122.5t42 248h120v-393h151v513z" />
    <glyph glyph-name="uni043C" unicode="&#x43c;" horiz-adv-x="778" 
d="M477 513h208q45 -286 69 -513h-147q-29 297 -38 359q-36 -99 -108 -318h-142q-45 152 -108 318q-20 -134 -40 -359h-147q22 230 70 513h208q72 -229 88 -295q23 91 87 295z" />
    <glyph glyph-name="uni043D" unicode="&#x43d;" horiz-adv-x="633" 
d="M417 0v194h-201v-194h-151v513h151v-194h201v194h151v-513h-151z" />
    <glyph glyph-name="uni043E" unicode="&#x43e;" horiz-adv-x="658" 
d="M330 524q133 0 213 -70t80 -198t-80 -198t-213 -70q-134 0 -214.5 69.5t-80.5 198.5q0 128 80.5 198t214.5 70zM326 399q-60 0 -97 -38.5t-37 -104.5q0 -63 38.5 -103t101.5 -40q60 0 97 40.5t37 102.5q0 68 -38.5 105.5t-101.5 37.5z" />
    <glyph glyph-name="uni043F" unicode="&#x43f;" horiz-adv-x="648" 
d="M583 0h-151v388h-216v-388h-151v513h518v-513z" />
    <glyph glyph-name="uni0440" unicode="&#x440;" horiz-adv-x="671" 
d="M359 524q118 0 197.5 -67t79.5 -197q0 -125 -80 -198.5t-191 -73.5q-80 0 -149 31v-219h-151v713h112l11 -37q90 48 171 48zM337 112q62 0 102 38t40 110q0 68 -37.5 104t-100.5 36q-66 0 -125 -33v-223q52 -32 121 -32z" />
    <glyph glyph-name="uni0441" unicode="&#x441;" horiz-adv-x="553" 
d="M323 524q104 0 190 -29v-129q-76 33 -163 33q-68 0 -113 -35.5t-45 -105.5q0 -72 48.5 -108.5t110.5 -36.5q89 0 162 23v-127q-98 -21 -168 -21q-138 0 -224 66.5t-86 199.5q0 129 83.5 199.5t204.5 70.5z" />
    <glyph glyph-name="uni0442" unicode="&#x442;" horiz-adv-x="562" 
d="M542 393h-186v-393h-150v393h-186v120h522v-120z" />
    <glyph glyph-name="uni0443" unicode="&#x443;" horiz-adv-x="590" 
d="M436 513h164q-35 -99 -147 -346t-197 -367h-157q72 116 118 199q-70 131 -140.5 297.5t-86.5 216.5h164q17 -60 138 -370q76 159 144 370z" />
    <glyph glyph-name="uni0444" unicode="&#x444;" horiz-adv-x="831" 
d="M519 523q118 0 197.5 -66.5t79.5 -196.5q0 -125 -80 -197.5t-191 -72.5q-23 0 -34 1v-191h-151v191q-11 -1 -34 -1q-111 0 -191 72.5t-80 197.5q0 130 79.5 196.5t197.5 66.5q19 0 28 -1v169h151v-169q9 1 28 1zM192 260q0 -72 40 -110t102 -38h9v289h-13
q-63 0 -100.5 -36.5t-37.5 -104.5zM488 112h9q62 0 102 38t40 110q0 68 -37.5 104.5t-100.5 36.5h-13v-289z" />
    <glyph glyph-name="uni0445" unicode="&#x445;" horiz-adv-x="583" 
d="M384 253l209 -253h-183l-124 159l-113 -159h-182l198 253l-199 260h188l110 -171l115 171h180z" />
    <glyph glyph-name="uni0446" unicode="&#x446;" horiz-adv-x="646" 
d="M656 125v-294h-147v169h-444v513h151v-388h206v388h151v-388h83z" />
    <glyph glyph-name="uni0447" unicode="&#x447;" horiz-adv-x="607" 
d="M542 513v-513h-151v168q-83 -60 -170 -59q-95 2 -138 52t-43 167v185h151v-181q0 -52 18.5 -75t60.5 -23q66 0 121 51v228h151z" />
    <glyph glyph-name="uni0448" unicode="&#x448;" horiz-adv-x="888" 
d="M823 513v-513h-758v513h151v-388h155v388h146v-388h155v388h151z" />
    <glyph glyph-name="uni0449" unicode="&#x449;" horiz-adv-x="896" 
d="M906 125v-294h-147v169h-694v513h151v-388h155v388h146v-388h155v388h151v-388h83z" />
    <glyph glyph-name="uni044A" unicode="&#x44a;" horiz-adv-x="739" 
d="M502 366q102 0 157 -48t55 -132q0 -99 -60 -147.5t-205 -48.5q-115 0 -259 19v379h-175v125h327v-179q88 32 160 32zM457 107q101 0 101 72q0 34 -21.5 50.5t-68.5 16.5q-73 0 -127 -22v-104q63 -13 116 -13z" />
    <glyph glyph-name="uni044B" unicode="&#x44b;" horiz-adv-x="875" 
d="M373 366q98 0 152 -48.5t54 -131.5q0 -98 -61.5 -147t-197.5 -49q-111 0 -255 19v504h152v-179q88 32 156 32zM810 0h-151v513h151v-513zM328 107q95 0 95 72q0 67 -84 67q-69 0 -123 -22v-104q63 -13 112 -13z" />
    <glyph glyph-name="uni044C" unicode="&#x44c;" horiz-adv-x="614" 
d="M377 366q102 0 157 -48t55 -132q0 -99 -60 -147.5t-205 -48.5q-115 0 -259 19v504h152v-179q88 32 160 32zM332 107q101 0 101 72q0 34 -21.5 50.5t-68.5 16.5q-73 0 -127 -22v-104q63 -13 116 -13z" />
    <glyph glyph-name="uni044D" unicode="&#x44d;" horiz-adv-x="530" 
d="M231 524q120 0 192 -67t72 -197q0 -134 -76.5 -202t-209.5 -68q-79 0 -172 20v127q75 -22 166 -22q107 0 130 95h-217v94h218q-19 95 -130 95q-73 0 -167 -30v129q102 26 194 26z" />
    <glyph glyph-name="uni044E" unicode="&#x44e;" horiz-adv-x="871" 
d="M552 524q122 0 203 -70t81 -198t-81 -197t-203 -69q-107 0 -183 53t-95 153h-58v-196h-151v513h151v-197h58q19 101 95 154.5t183 53.5zM554 116q52 0 88 40.5t36 99.5q0 67 -37 104t-93 37q-53 0 -88.5 -38t-35.5 -103q0 -60 37.5 -100t92.5 -40z" />
    <glyph glyph-name="uni044F" unicode="&#x44f;" horiz-adv-x="634" 
d="M569 513v-513h-152v157q-48 -6 -103 -8q-59 -67 -115 -149h-184q55 72 141 167q-102 40 -102 152q0 86 61 140t185 54h269zM286 267q72 0 132 5v123h-123q-86 0 -86 -67q0 -61 77 -61z" />
    <glyph glyph-name="uni0450" unicode="&#x450;" horiz-adv-x="612" 
d="M271 591l-101 145h143l74 -145h-116zM577 201h-387q5 -36 32 -58t56.5 -28.5t63.5 -6.5q95 0 208 35v-118q-117 -37 -212 -37q-143 0 -223 67.5t-80 204.5q0 128 83 196t202 68q126 0 191.5 -65t65.5 -188v-70zM191 295h231q-1 52 -27 81.5t-74 29.5q-118 0 -130 -111z
" />
    <glyph glyph-name="uni0451" unicode="&#x451;" horiz-adv-x="612" 
d="M276 586h-149v129h149v-129zM506 586h-149v129h149v-129zM577 201h-387q5 -36 32 -58t56.5 -28.5t63.5 -6.5q95 0 208 35v-118q-117 -37 -212 -37q-143 0 -223 67.5t-80 204.5q0 128 83 196t202 68q126 0 191.5 -65t65.5 -188v-70zM191 295h231q-1 52 -27 81.5t-74 29.5
q-118 0 -130 -111z" />
    <glyph glyph-name="uni0452" unicode="&#x452;" horiz-adv-x="668" 
d="M412 524q92 -2 141.5 -48t49.5 -157v-353q0 -91 -58.5 -134.5t-146.5 -43.5q-72 0 -125 19v124q39 -19 93 -19q49 0 67.5 17.5t18.5 53.5v317q0 50 -20.5 74.5t-68.5 24.5q-81 0 -146 -48l-1 -351h-151v560h-86v90h86v41h152v-41h130v-90h-130v-92q97 58 195 56z" />
    <glyph glyph-name="uni0453" unicode="&#x453;" horiz-adv-x="462" 
d="M338 591h-116l74 145h143zM442 392h-226v-392h-151v513h377v-121z" />
    <glyph glyph-name="uni0454" unicode="&#x454;" horiz-adv-x="530" 
d="M326 399q-111 0 -130 -95h218v-94h-217q20 -95 130 -95q91 0 166 22v-127q-93 -20 -172 -20q-133 0 -209.5 68t-76.5 202q0 130 72 197t192 67q92 0 194 -26v-129q-94 30 -167 30z" />
    <glyph glyph-name="uni0455" unicode="&#x455;" horiz-adv-x="547" 
d="M288 524q112 0 191 -33v-120q-99 34 -181 34q-117 0 -117 -37q0 -15 11 -20.5t50 -14.5l15 -3l104 -23q79 -18 115 -54.5t36 -95.5q0 -78 -63 -123.5t-199 -45.5q-47 0 -108.5 10.5t-96.5 22.5v124q105 -35 201 -35q67 0 91.5 10t24.5 32q0 15 -15 25t-63 20l-112 23
q-78 16 -107.5 53.5t-29.5 94.5q0 80 68 118t185 38z" />
    <glyph glyph-name="uni0456" unicode="&#x456;" horiz-adv-x="281" 
d="M225 586h-169v129h169v-129zM216 0h-151v513h151v-513z" />
    <glyph glyph-name="uni0457" unicode="&#x457;" horiz-adv-x="281" 
d="M100 586h-149v129h149v-129zM330 586h-149v129h149v-129zM216 0h-151v513h151v-513z" />
    <glyph glyph-name="uni0458" unicode="&#x458;" horiz-adv-x="285" 
d="M229 586h-169v129h169v-129zM220 513v-547q0 -91 -58.5 -134.5t-146.5 -43.5q-72 0 -125 19v124q39 -19 93 -19q49 0 67.5 17.5t18.5 53.5v530h151z" />
    <glyph glyph-name="uni0459" unicode="&#x459;" horiz-adv-x="890" 
d="M658 366q99 0 153 -48t54 -132q0 -99 -59.5 -147.5t-200.5 -48.5q-110 0 -254 19v384h-111q-14 -160 -42 -248t-72.5 -122.5t-117.5 -34.5q-17 0 -27 1l-1 117q8 -1 15 -1q52 0 76 94.5t36 313.5h396v-179q88 32 155 32zM613 107q96 0 96 72q0 67 -85 67q-68 0 -122 -22
v-104q63 -13 111 -13z" />
    <glyph glyph-name="uni045A" unicode="&#x45a;" horiz-adv-x="955" 
d="M723 366q99 0 153 -48t54 -132q0 -99 -59.5 -147.5t-200.5 -48.5q-109 0 -253 19v185h-201v-194h-151v513h151v-194h201v194h151v-179q88 32 155 32zM678 107q96 0 96 72q0 67 -85 67q-67 0 -121 -22v-104q63 -13 110 -13z" />
    <glyph glyph-name="uni045B" unicode="&#x45b;" horiz-adv-x="668" 
d="M412 524q92 -2 141.5 -48t49.5 -157v-319h-151v300q0 50 -20.5 74.5t-68.5 24.5q-81 0 -146 -48l-1 -351h-151v560h-86v90h86v41h152v-41h130v-90h-130v-92q97 58 195 56z" />
    <glyph glyph-name="uni045C" unicode="&#x45c;" horiz-adv-x="614" 
d="M353 591h-116l74 145h143zM624 0h-184q-62 93 -159 199h-65v-199h-151v513h151v-194h50q78 115 147 194h182q-128 -148 -201 -247q85 -78 230 -266z" />
    <glyph glyph-name="uni045D" unicode="&#x45d;" horiz-adv-x="633" 
d="M387 591h-116l-101 145h143zM215 513v-294l187 294h166v-513h-150v311l-199 -311h-154v513h150z" />
    <glyph glyph-name="uni045E" unicode="&#x45e;" horiz-adv-x="590" 
d="M295 584q-152 0 -164 139h101q6 -28 20 -41.5t43 -13.5q31 0 44 13t19 42h101q-4 -60 -42 -99.5t-122 -39.5zM436 513h164q-35 -99 -147 -346t-197 -367h-157q72 116 118 199q-70 131 -140.5 297.5t-86.5 216.5h164q17 -60 138 -370q76 159 144 370z" />
    <glyph glyph-name="uni045F" unicode="&#x45f;" horiz-adv-x="638" 
d="M573 0h-180v-169h-148v169h-180v513h151v-388h206v388h151v-513z" />
    <glyph glyph-name="uni0490" unicode="&#x490;" horiz-adv-x="535" 
d="M515 819v-300h-290v-519h-155v650h295v169h150z" />
    <glyph glyph-name="uni0491" unicode="&#x491;" horiz-adv-x="462" 
d="M442 682v-294h-226v-388h-151v513h230v169h147z" />
    <glyph glyph-name="uni0492" unicode="&#x492;" horiz-adv-x="535" 
d="M225 519v-130h115v-131h-115v-258h-155v258h-70v131h70v261h445v-131h-290z" />
    <glyph glyph-name="uni0493" unicode="&#x493;" horiz-adv-x="474" 
d="M228 392v-89h130v-120h-130v-183h-151v183h-87v120h87v210h377v-121h-226z" />
    <glyph glyph-name="uni0496" unicode="&#x496;" horiz-adv-x="1019" 
d="M1034 131v-300h-150v169h-64q-75 127 -173 251h-65v-251h-150v251h-65q-98 -124 -173 -251h-194q173 245 242 334q-69 120 -224 316h186q96 -132 170 -268h58v268h150v-268h58q74 136 170 268h186q-155 -196 -224 -316l150 -203h112z" />
    <glyph glyph-name="uni0497" unicode="&#x497;" horiz-adv-x="867" 
d="M886 125v-294h-147v169h-43q-57 93 -135 199h-52v-199h-151v199h-57q-58 -80 -130 -199h-181q125 183 190 266q-61 113 -161 247h171q38 -54 112 -194h56v194h151v-194h54q68 129 114 194h171q-100 -134 -161 -247q41 -51 103 -141h96z" />
    <glyph glyph-name="uni049A" unicode="&#x49a;" horiz-adv-x="684" 
d="M704 131v-300h-150v169h-55q-87 122 -206 252h-68v-252h-155v650h155v-268h59q74 117 199 268h193q-195 -210 -266 -316q98 -100 182 -203h112z" />
    <glyph glyph-name="uni049B" unicode="&#x49b;" horiz-adv-x="614" 
d="M624 125v-294h-147v169h-37q-62 93 -159 199h-65v-199h-151v513h151v-194h50q78 115 147 194h182q-128 -148 -201 -247q45 -41 131 -141h99z" />
    <glyph glyph-name="uni049C" unicode="&#x49c;" horiz-adv-x="693" 
d="M693 0h-194q-71 119 -174 252h-16v-172h-61v172h-23v-252h-155v650h155v-268h23v131h61v-131h10q74 136 170 268h186q-155 -196 -224 -316q69 -89 242 -334z" />
    <glyph glyph-name="uni049D" unicode="&#x49d;" horiz-adv-x="613" 
d="M623 0h-181q-57 93 -135 199h-9v-149h-56v149h-26v-199h-151v513h151v-194h26v104h56v-104h11q68 129 114 194h171q-100 -134 -161 -247q65 -83 190 -266z" />
    <glyph glyph-name="uni04A2" unicode="&#x4a2;" horiz-adv-x="752" 
d="M747 131v-300h-150v169h-85v252h-287v-252h-155v650h155v-267h287v267h155v-519h80z" />
    <glyph glyph-name="uni04A3" unicode="&#x4a3;" horiz-adv-x="641" 
d="M651 125v-294h-147v169h-87v194h-201v-194h-151v513h151v-194h201v194h151v-388h83z" />
    <glyph glyph-name="uni04AE" unicode="&#x4ae;" horiz-adv-x="632" 
d="M469 650h178q-26 -56 -102 -189.5t-154 -246.5v-214h-154v217q-31 42 -60 85.5t-52.5 83l-43 73.5t-36.5 67.5l-27 54l-21 43.5t-12 26h176q10 -31 63 -136t90 -153q53 69 155 289z" />
    <glyph glyph-name="uni04AF" unicode="&#x4af;" horiz-adv-x="570" 
d="M419 513h161q-13 -41 -37 -108.5t-77.5 -192.5t-104.5 -212v-200h-151v200q-51 87 -104.5 211.5t-78 193t-37.5 108.5h161q15 -53 58 -183t76 -202q33 72 76 202t58 183z" />
    <glyph glyph-name="uni04B2" unicode="&#x4b2;" horiz-adv-x="672" 
d="M692 131v-300h-150v169h-63l-154 213l-158 -213h-187l247 327l-246 323h198l144 -216l143 216h194l-236 -323l149 -196h119z" />
    <glyph glyph-name="uni04B3" unicode="&#x4b3;" horiz-adv-x="583" 
d="M593 125v-294h-147v169h-36l-124 159l-113 -159h-182l198 253l-199 260h188l110 -171l115 171h180l-199 -260l106 -128h103z" />
    <glyph glyph-name="uni04B8" unicode="&#x4b8;" horiz-adv-x="671" 
d="M601 650v-650h-155v216q-25 -15 -59 -31v-105h-121v76h-14q-101 1 -149 53.5t-48 176.5v264h155v-262q0 -81 56 -95v220h121v-208q31 12 59 32v313h155z" />
    <glyph glyph-name="uni04B9" unicode="&#x4b9;" horiz-adv-x="607" 
d="M542 513v-513h-151v168q-33 -22 -50 -31v-87h-101v59h-19q-95 2 -138 52t-43 167v185h151v-181q0 -81 49 -94v175h101v-164q22 10 50 36v228h151z" />
    <glyph glyph-name="uni04BA" unicode="&#x4ba;" horiz-adv-x="671" 
d="M419 474q101 -1 149 -53.5t48 -176.5v-244h-155v242q0 53 -22 76t-66 23q-81 0 -148 -48v-293h-155v650h155v-236q98 61 194 60z" />
    <glyph glyph-name="uni04BB" unicode="&#x4bb;" horiz-adv-x="668" 
d="M412 514q92 -2 141.5 -48t49.5 -157v-309h-151v290q0 50 -20.5 74.5t-68.5 24.5q-80 0 -147 -48v-341h-151v691h152v-233q97 58 195 56z" />
    <glyph glyph-name="uni04C0" unicode="&#x4c0;" horiz-adv-x="295" 
d="M225 0h-155v650h155v-650z" />
    <glyph glyph-name="uni04CF" unicode="&#x4cf;" horiz-adv-x="281" 
d="M216 0h-151v691h151v-691z" />
    <glyph glyph-name="uni04D8" unicode="&#x4d8;" horiz-adv-x="761" 
d="M375 662q159 0 252.5 -82.5t93.5 -246.5q0 -89 -27 -157t-74.5 -108t-107 -60t-129.5 -20q-153 0 -248 84.5t-95 259.5v62h515q-24 130 -181 130q-106 0 -251 -30v141q143 27 252 27zM384 124q68 0 115 33.5t55 105.5h-342q0 -49 29 -82t65.5 -45t77.5 -12z" />
    <glyph glyph-name="uni04D9" unicode="&#x4d9;" horiz-adv-x="607" 
d="M280 524q138 0 215 -65.5t77 -200.5q0 -131 -81 -199.5t-200 -68.5q-130 0 -195.5 66.5t-65.5 206.5v50h387q-10 91 -141 91q-96 0 -219 -29v118q124 31 223 31zM286 108q117 0 130 111h-231q1 -52 27 -81.5t74 -29.5z" />
    <glyph glyph-name="uni04E8" unicode="&#x4e8;" horiz-adv-x="781" 
d="M391 662q65 0 125.5 -20.5t111.5 -59.5t82 -104t31 -147q0 -90 -29 -158t-79.5 -107t-111.5 -58.5t-131 -19.5t-131 19.5t-111 58.5t-79 107t-29 158q0 82 31 147.5t82 104.5t112 59t126 20zM390 524q-68 0 -118.5 -38t-64.5 -107h367q-14 69 -64.5 107t-119.5 38z
M391 124q64 0 114.5 35.5t66.5 108.5h-364q16 -73 67 -108.5t116 -35.5z" />
    <glyph glyph-name="uni04E9" unicode="&#x4e9;" horiz-adv-x="658" 
d="M330 524q133 0 213 -70t80 -198t-80 -198t-213 -70q-134 0 -214.5 69.5t-80.5 198.5q0 128 80.5 198t214.5 70zM326 399q-46 0 -79.5 -23.5t-46.5 -66.5h259q-13 43 -48.5 66.5t-84.5 23.5zM332 113q46 0 79 25t47 66h-258q14 -42 48.5 -66.5t83.5 -24.5z" />
    <glyph glyph-name="Wgrave" unicode="&#x1e80;" horiz-adv-x="938" 
d="M538 710h-116l-101 145h143zM779 650h154q-59 -322 -141 -650h-215q-78 241 -108 371q-27 -108 -112 -371h-210q-79 319 -142 650h155q38 -262 99 -492q89 250 126 403h170q36 -146 125 -403q61 230 99 492z" />
    <glyph glyph-name="wgrave" unicode="&#x1e81;" horiz-adv-x="880" 
d="M510 591h-116l-101 145h143zM726 513h159q-9 -39 -28.5 -108t-64 -193.5t-88.5 -211.5h-164q-71 180 -100 290q-32 -121 -100 -290h-165q-44 87 -88.5 212t-63 192.5t-28.5 108.5h159q13 -63 44.5 -184t59.5 -193q20 49 43 129t43 163t20 85h152q0 -2 20 -85t43 -163
t43 -129q28 72 59.5 193t44.5 184z" />
    <glyph glyph-name="Wacute" unicode="&#x1e82;" horiz-adv-x="938" 
d="M513 710h-116l74 145h143zM779 650h154q-59 -322 -141 -650h-215q-78 241 -108 371q-27 -108 -112 -371h-210q-79 319 -142 650h155q38 -262 99 -492q89 250 126 403h170q36 -146 125 -403q61 230 99 492z" />
    <glyph glyph-name="wacute" unicode="&#x1e83;" horiz-adv-x="880" 
d="M486 591h-116l74 145h143zM726 513h159q-9 -39 -28.5 -108t-64 -193.5t-88.5 -211.5h-164q-71 180 -100 290q-32 -121 -100 -290h-165q-44 87 -88.5 212t-63 192.5t-28.5 108.5h159q13 -63 44.5 -184t59.5 -193q20 49 43 129t43 163t20 85h152q0 -2 20 -85t43 -163
t43 -129q28 72 59.5 193t44.5 184z" />
    <glyph glyph-name="Wdieresis" unicode="&#x1e84;" horiz-adv-x="938" 
d="M428 706h-149v129h149v-129zM658 706h-149v129h149v-129zM779 650h154q-59 -322 -141 -650h-215q-78 241 -108 371q-27 -108 -112 -371h-210q-79 319 -142 650h155q38 -262 99 -492q89 250 126 403h170q36 -146 125 -403q61 230 99 492z" />
    <glyph glyph-name="wdieresis" unicode="&#x1e85;" horiz-adv-x="880" 
d="M399 586h-149v129h149v-129zM629 586h-149v129h149v-129zM726 513h159q-9 -39 -28.5 -108t-64 -193.5t-88.5 -211.5h-164q-71 180 -100 290q-32 -121 -100 -290h-165q-44 87 -88.5 212t-63 192.5t-28.5 108.5h159q13 -63 44.5 -184t59.5 -193q20 49 43 129t43 163t20 85
h152q0 -2 20 -85t43 -163t43 -129q28 72 59.5 193t44.5 184z" />
    <glyph glyph-name="uni1E9E" unicode="&#x1e9e;" horiz-adv-x="770" 
d="M687 529l-118 -122q169 -49 169 -204q0 -93 -64.5 -154t-183.5 -61q-112 0 -217 37v141q116 -42 216 -42q48 0 67.5 16.5t19.5 55.5q0 48 -42 73t-154 33v95l106 107q-45 23 -104 23q-85 0 -121 -42.5t-36 -148.5v-336h-155v336q0 167 77.5 246.5t235.5 79.5
q96 0 180 -37t124 -96z" />
    <glyph glyph-name="Ygrave" unicode="&#x1ef2;" horiz-adv-x="632" 
d="M385 710h-116l-101 145h143zM469 650h178q-26 -56 -102 -189.5t-154 -246.5v-214h-154v217q-31 42 -60 85.5t-52.5 83l-43 73.5t-36.5 67.5l-27 54l-21 43.5t-12 26h176q10 -31 63 -136t90 -153q53 69 155 289z" />
    <glyph glyph-name="ygrave" unicode="&#x1ef3;" horiz-adv-x="590" 
d="M249 591l-101 145h143l74 -145h-116zM436 513h164q-35 -99 -147 -346t-197 -367h-157q72 116 118 199q-70 131 -140.5 297.5t-86.5 216.5h164q17 -60 138 -370q76 159 144 370z" />
    <glyph glyph-name="hyphentwo" unicode="&#x2010;" horiz-adv-x="460" 
d="M425 223h-390v145h390v-145z" />
    <glyph glyph-name="endash" unicode="&#x2013;" horiz-adv-x="560" 
d="M525 223h-490v145h490v-145z" />
    <glyph glyph-name="emdash" unicode="&#x2014;" horiz-adv-x="860" 
d="M825 223h-790v145h790v-145z" />
    <glyph glyph-name="uni2015" unicode="&#x2015;" horiz-adv-x="860" 
d="M825 223h-790v145h790v-145z" />
    <glyph glyph-name="underscoredbl" unicode="&#x2017;" horiz-adv-x="520" 
d="M520 -54h-520v136h520v-136zM520 -300h-520v136h520v-136z" />
    <glyph glyph-name="quoteleft" unicode="&#x2018;" horiz-adv-x="195" 
d="M91 663h109l-46 -236h-134z" />
    <glyph glyph-name="quoteright" unicode="&#x2019;" horiz-adv-x="195" 
d="M104 427h-109l46 236h134z" />
    <glyph glyph-name="quotesinglbase" unicode="&#x201a;" horiz-adv-x="195" 
d="M104 -81h-109l46 236h134z" />
    <glyph glyph-name="quotereversed" unicode="&#x201b;" horiz-adv-x="195" 
d="M154 663l46 -236h-109l-71 236h134z" />
    <glyph glyph-name="quotedblleft" unicode="&#x201c;" horiz-adv-x="392" 
d="M154 427h-134l71 236h109zM351 427h-134l71 236h109z" />
    <glyph glyph-name="quotedblright" unicode="&#x201d;" horiz-adv-x="392" 
d="M104 427h-109l46 236h134zM301 427h-109l46 236h134z" />
    <glyph glyph-name="quotedblbase" unicode="&#x201e;" horiz-adv-x="392" 
d="M104 -81h-109l46 236h134zM301 -81h-109l46 236h134z" />
    <glyph glyph-name="dagger" unicode="&#x2020;" horiz-adv-x="547" 
d="M346 0h-145v359h-166v145h166v166h145v-166h166v-145h-166v-359z" />
    <glyph glyph-name="daggerdbl" unicode="&#x2021;" horiz-adv-x="547" 
d="M346 359v-65h166v-145h-166v-149h-145v149h-166v145h166v65h-166v145h166v166h145v-166h166v-145h-166z" />
    <glyph glyph-name="bullet" unicode="&#x2022;" horiz-adv-x="322" 
d="M277 184h-232v221h232v-221z" />
    <glyph glyph-name="ellipsis" unicode="&#x2026;" horiz-adv-x="756" 
d="M207 0h-162v155h162v-155zM459 0h-162v155h162v-155zM711 0h-162v155h162v-155z" />
    <glyph glyph-name="perthousand" unicode="&#x2030;" horiz-adv-x="1255" 
d="M180 663q81 0 123 -51t42 -136q0 -87 -42 -140.5t-126 -53.5q-83 0 -125 53.5t-42 138.5q0 86 42.5 137.5t127.5 51.5zM326 0h-122l337 650h120zM179 579q-61 0 -61 -113q0 -99 59 -99t59 104q0 108 -57 108zM688 368q83 0 125 -53.5t42 -138.5q0 -86 -42.5 -137.5
t-127.5 -51.5q-81 0 -123 51t-42 136q0 87 42 140.5t126 53.5zM1078 368q83 0 125 -53.5t42 -138.5q0 -86 -42.5 -137.5t-127.5 -51.5q-81 0 -123 51t-42 136q0 87 42 140.5t126 53.5zM688 283q-59 0 -59 -104q0 -108 57 -108q61 0 61 113q0 99 -59 99zM1078 283
q-59 0 -59 -104q0 -108 57 -108q61 0 61 113q0 99 -59 99z" />
    <glyph glyph-name="minute" unicode="&#x2032;" horiz-adv-x="316" 
d="M209 478h-101l-23 245h146z" />
    <glyph glyph-name="second" unicode="&#x2033;" horiz-adv-x="316" 
d="M231 723l-22 -245h-101l-23 245h146z" />
    <glyph glyph-name="guilsinglleft" unicode="&#x2039;" horiz-adv-x="345" 
d="M181 265l109 -194h-118l-117 196l116 194h119z" />
    <glyph glyph-name="guilsinglright" unicode="&#x203a;" horiz-adv-x="345" 
d="M290 267l-117 -196h-118l109 194l-109 196h119z" />
    <glyph glyph-name="exclamdbl" unicode="&#x203c;" horiz-adv-x="522" 
d="M45 650h169l-12 -416h-145zM308 650h169l-12 -416h-145zM211 155v-155h-162v155h162zM474 155v-155h-162v155h162z" />
    <glyph glyph-name="uni203D" unicode="&#x203d;" horiz-adv-x="535" 
d="M241 660q133 0 206 -45t73 -130q0 -45 -17.5 -79.5t-46.5 -55.5t-58 -36l-59.5 -30t-44.5 -28q-9 -9 -10 -26h-147l-9 236h163l-2 -56q60 29 60 60q0 30 -27 41.5t-84 11.5q-90 0 -227 -33v139q131 31 230 31zM298 155v-155h-162v155h162z" />
    <glyph glyph-name="overline" unicode="&#x203e;" horiz-adv-x="520" 
d="M520 614h-520v136h520v-136z" />
    <glyph glyph-name="fraction" unicode="&#x2044;" horiz-adv-x="197" 
d="M-8 0h-122l337 650h120z" />
    <glyph glyph-name="zerosuperior" unicode="&#x2070;" 
d="M198 754q86 0 131 -51t45 -141q0 -86 -46.5 -136.5t-130.5 -50.5q-81 0 -126 50t-45 137q0 91 43.5 141.5t128.5 50.5zM198 674q-35 0 -55 -29t-20 -83t20.5 -80.5t54.5 -26.5t56.5 26.5t22.5 80.5q0 52 -22.5 82t-56.5 30z" />
    <glyph glyph-name="foursuperior" unicode="&#x2074;" 
d="M384 453h-59v-69h-95v69h-207v70q74 116 159 221h116q-99 -113 -161 -212h93v86h95v-86h59v-79z" />
    <glyph glyph-name="fivesuperior" unicode="&#x2075;" 
d="M321 665h-165l-4 -47q22 5 53 5q72 0 112.5 -33t40.5 -86q0 -59 -44.5 -94t-128.5 -35q-68 0 -131 19v81q80 -20 122 -20q85 0 85 50q0 39 -77 39q-60 0 -124 -14l16 214h245v-79z" />
    <glyph glyph-name="sixsuperior" unicode="&#x2076;" 
d="M331 754v-83q-60 3 -101 -4.5t-77 -37.5q38 18 76 18q65 0 100.5 -37t35.5 -95q0 -63 -43 -101.5t-115 -38.5q-77 0 -123 39t-46 119q0 103 70.5 164t222.5 57zM207 574q-72 0 -72 -63q0 -57 69 -57q32 0 48 17.5t16 42.5t-15.5 42.5t-45.5 17.5z" />
    <glyph glyph-name="sevensuperior" unicode="&#x2077;" 
d="M354 744v-63q-129 -185 -172 -297h-102q37 84 83 163.5t74 117.5h-181v79h298z" />
    <glyph glyph-name="eightsuperior" unicode="&#x2078;" 
d="M200 754q66 0 106.5 -27.5t40.5 -79.5q0 -50 -47 -78q24 -10 40.5 -33.5t16.5 -49.5q0 -111 -157 -111q-156 0 -156 111q0 27 16 49.5t41 33.5q-48 29 -48 78q0 52 40.5 79t106.5 28zM201 681q-25 0 -38.5 -12t-13.5 -28t14 -28.5t37 -12.5t37 12.5t14 28.5t-13.5 28
t-36.5 12zM201 532q-32 0 -46 -12.5t-14 -27.5q0 -19 16 -29.5t43 -10.5q26 0 43 10.5t17 29.5q0 15 -14 27.5t-45 12.5z" />
    <glyph glyph-name="ninesuperior" unicode="&#x2079;" 
d="M71 375v83q60 -3 101 4.5t77 37.5q-38 -18 -76 -18q-65 0 -100.5 37t-35.5 95q0 63 43 101.5t115 38.5q76 0 122.5 -39.5t46.5 -118.5q0 -103 -70.5 -164t-222.5 -57zM195 555q72 0 72 63q0 26 -16.5 41.5t-50.5 15.5q-33 0 -49.5 -17.5t-16.5 -42.5t15.5 -42.5
t45.5 -17.5z" />
    <glyph glyph-name="plussuperior" unicode="&#x207a;" horiz-adv-x="298" 
d="M194 518v-94h-90v94h-94v90h94v94h90v-94h94v-90h-94z" />
    <glyph glyph-name="uni207B" unicode="&#x207b;" horiz-adv-x="305" 
d="M295 518h-285v90h285v-90z" />
    <glyph glyph-name="equalsuperior" unicode="&#x207c;" horiz-adv-x="305" 
d="M295 676v-90h-285v90h285zM295 536v-90h-285v90h285z" />
    <glyph glyph-name="parenleftsuperior" unicode="&#x207d;" horiz-adv-x="170" 
d="M91 792h98q-72 -141 -72 -246t73 -248h-99q-66 125 -66 248q0 121 66 246z" />
    <glyph glyph-name="parenrightsuperior" unicode="&#x207e;" horiz-adv-x="170" 
d="M-19 792h98q66 -125 66 -246q0 -123 -66 -248h-99q73 143 73 248t-72 246z" />
    <glyph glyph-name="nsuperior" unicode="&#x207f;" horiz-adv-x="668" 
d="M412 524q91 0 141 -47t50 -158v-319h-151v300q0 50 -20.5 74.5t-68.5 24.5q-80 0 -147 -48v-351h-151v513h122l16 -54q99 65 209 65z" />
    <glyph glyph-name="zeroinferior" unicode="&#x2080;" 
d="M198 270q86 0 131 -51t45 -141q0 -86 -46.5 -136.5t-130.5 -50.5q-81 0 -126 50t-45 137q0 91 43.5 141.5t128.5 50.5zM198 190q-35 0 -55 -29t-20 -83t20.5 -80.5t54.5 -26.5t56.5 26.5t22.5 80.5q0 52 -22.5 82t-56.5 30z" />
    <glyph glyph-name="oneinferior" unicode="&#x2081;" 
d="M194 -100v261l-119 -17v82l214 42v-368h-95z" />
    <glyph glyph-name="twoinferior" unicode="&#x2082;" 
d="M206 270q57 0 97.5 -31.5t40.5 -89.5q0 -52 -38.5 -90.5t-113.5 -79.5h146v-79h-287v80q101 57 148.5 93t47.5 65q0 52 -69 52q-33 0 -113 -22v80q73 22 141 22z" />
    <glyph glyph-name="threeinferior" unicode="&#x2083;" 
d="M334 199l-82 -83q45 -8 69 -36t24 -68q0 -121 -171 -121q-59 0 -127 18v80q69 -18 121 -18q36 0 58 11t22 31q0 26 -27 37t-88 11h-9v39l83 82h-157v78h284v-61z" />
    <glyph glyph-name="fourinferior" unicode="&#x2084;" 
d="M384 -31h-59v-69h-95v69h-207v70q74 116 159 221h116q-99 -113 -161 -212h93v86h95v-86h59v-79z" />
    <glyph glyph-name="fiveinferior" unicode="&#x2085;" 
d="M321 181h-165l-4 -47q22 5 53 5q72 0 112.5 -33t40.5 -86q0 -59 -44.5 -94t-128.5 -35q-68 0 -131 19v81q80 -20 122 -20q85 0 85 50q0 39 -77 39q-60 0 -124 -14l16 214h245v-79z" />
    <glyph glyph-name="sixinferior" unicode="&#x2086;" 
d="M331 270v-83q-60 3 -101 -4.5t-77 -37.5q38 18 76 18q65 0 100.5 -37t35.5 -95q0 -63 -43 -101.5t-115 -38.5q-77 0 -123 39t-46 119q0 103 70.5 164t222.5 57zM207 90q-72 0 -72 -63q0 -57 69 -57q32 0 48 17.5t16 42.5t-15.5 42.5t-45.5 17.5z" />
    <glyph glyph-name="seveninferior" unicode="&#x2087;" 
d="M354 260v-63q-129 -185 -172 -297h-102q37 84 83 163.5t74 117.5h-181v79h298z" />
    <glyph glyph-name="eightinferior" unicode="&#x2088;" 
d="M200 270q66 0 106.5 -27.5t40.5 -79.5q0 -50 -47 -78q24 -10 40.5 -33.5t16.5 -49.5q0 -111 -157 -111q-156 0 -156 111q0 27 16 49.5t41 33.5q-48 29 -48 78q0 52 40.5 79t106.5 28zM201 197q-25 0 -38.5 -12t-13.5 -28t14 -28.5t37 -12.5t37 12.5t14 28.5t-13.5 28
t-36.5 12zM201 48q-32 0 -46 -12.5t-14 -27.5q0 -19 16 -29.5t43 -10.5q26 0 43 10.5t17 29.5q0 15 -14 27.5t-45 12.5z" />
    <glyph glyph-name="nineinferior" unicode="&#x2089;" 
d="M71 -109v83q60 -3 101 4.5t77 37.5q-38 -18 -76 -18q-65 0 -100.5 37t-35.5 95q0 63 43 101.5t115 38.5q76 0 122.5 -39.5t46.5 -118.5q0 -103 -70.5 -164t-222.5 -57zM195 71q72 0 72 63q0 26 -16.5 41.5t-50.5 15.5q-33 0 -49.5 -17.5t-16.5 -42.5t15.5 -42.5
t45.5 -17.5z" />
    <glyph glyph-name="uni208A" unicode="&#x208a;" horiz-adv-x="298" 
d="M194 28v-94h-90v94h-94v90h94v94h90v-94h94v-90h-94z" />
    <glyph glyph-name="uni208B" unicode="&#x208b;" horiz-adv-x="305" 
d="M295 28h-285v90h285v-90z" />
    <glyph glyph-name="uni208C" unicode="&#x208c;" horiz-adv-x="305" 
d="M295 186v-90h-285v90h285zM295 46v-90h-285v90h285z" />
    <glyph glyph-name="uni208D" unicode="&#x208d;" horiz-adv-x="170" 
d="M91 302h98q-72 -141 -72 -246t73 -248h-99q-66 125 -66 248q0 121 66 246z" />
    <glyph glyph-name="uni208E" unicode="&#x208e;" horiz-adv-x="170" 
d="M-19 302h98q66 -125 66 -246q0 -123 -66 -248h-99q73 143 73 248t-72 246z" />
    <glyph glyph-name="franc" unicode="&#x20a3;" horiz-adv-x="605" 
d="M225 519v-115h307v-131h-307v-59h115v-121h-115v-93h-155v93h-70v121h70v436h495v-131h-340z" />
    <glyph glyph-name="lira" unicode="&#x20a4;" horiz-adv-x="556" 
d="M551 0h-481v88q36 29 55.5 67t19.5 73v10h-89v90h89v41h-89v90h89v11q0 192 202 192q75 0 134 -17v-122q-50 15 -102 15q-48 0 -63.5 -15.5t-15.5 -51.5v-12h124v-90h-124v-41h124v-90h-124v-2q0 -36 -11 -58.5t-38 -46.5h300v-131z" />
    <glyph glyph-name="peseta" unicode="&#x20a7;" horiz-adv-x="1327" 
d="M70 650h272q285 0 285 -235q0 -65 -26 -113t-69 -73.5t-90 -37.5t-99 -12h-118v-179h-155v650zM225 519v-209h104q66 0 101 22.5t35 86.5q0 57 -36 78.5t-103 21.5h-101zM757 291h90v-76h-90v-108q0 -21 8 -31t31 -10q19 0 51 10v-77q-29 -11 -69 -11q-114 0 -114 103
v124h-50v76h50l5 72h88v-72zM1014 297q60 0 112 -14v-77q-69 16 -113 16q-31 0 -43 -3t-12 -14t40 -19l59 -11q88 -17 88 -90q0 -97 -156 -97q-57 0 -116 17v79q66 -20 120 -20q59 0 59 18q0 10 -6.5 14t-34.5 9l-63 12q-46 9 -63 31.5t-17 56.5q0 92 146 92z" />
    <glyph glyph-name="Euro" unicode="&#x20ac;" horiz-adv-x="691" 
d="M465 126q83 1 186 31v-146q-99 -21 -198 -21q-269 0 -325 213h-118l34 90h71l-1 29v11h-84l34 90h61q28 117 117.5 177t212.5 60q104 0 195 -28v-138q-92 30 -182 30q-140 0 -177 -101h232l-34 -90h-213v-10q0 -20 1 -30h226l-34 -90h-166q45 -79 162 -77z" />
    <glyph glyph-name="uni20B9" unicode="&#x20b9;" horiz-adv-x="590" 
d="M557 560h-110q30 -37 36 -81h92l-18 -90h-85q-19 -54 -66 -97.5t-119 -65.5l167 -226h-153l-180 239l33 81q117 0 155 69h-282l18 90h283q-2 37 -32.5 59t-84.5 22h-186l18 90h532z" />
    <glyph glyph-name="uni20BA" unicode="&#x20ba;" horiz-adv-x="638" 
d="M448 364h155q0 -159 -115 -261.5t-262 -102.5q-68 0 -110 3v210l-76 -41v101l76 41v56l-76 -41v101l76 41v180h155v-97l133 72v-101l-133 -72v-56l133 72v-101l-133 -72v-158q83 9 130 66t47 160z" />
    <glyph glyph-name="uni20BC" unicode="&#x20bc;" horiz-adv-x="664" 
d="M70 650h292q270 0 270 -201q0 -59 -23.5 -102t-64 -65.5t-85 -32.5t-96.5 -10h-138v-45h115v-111h-115v-83h-155v83h-70v111h70v45h-70v121h70v290zM225 360h134q27 0 44 2.5t34 11t25 26.5t8 47q0 72 -114 72h-131v-159z" />
    <glyph glyph-name="uni20BD" unicode="&#x20bd;" horiz-adv-x="664" 
d="M70 650h292q270 0 270 -201q0 -59 -23.5 -102t-64 -65.5t-85 -32.5t-96.5 -10h-138v-45h115v-111h-115v-83h-155v83h-70v111h70v45h-70v121h70v290zM225 360h134q27 0 44 2.5t34 11t25 26.5t8 47q0 72 -114 72h-131v-159z" />
    <glyph glyph-name="uni2105" unicode="&#x2105;" horiz-adv-x="884" 
d="M197 662q58 0 112 -18v-83q-51 22 -97 22q-37 0 -61 -19t-24 -56q0 -38 26 -57.5t60 -19.5q44 0 96 14v-80q-65 -13 -99 -13q-80 0 -130 38.5t-50 114.5q0 75 48.5 116t118.5 41zM322 0h-122l337 650h120zM685 295q76 0 122.5 -40.5t46.5 -115.5q0 -73 -46.5 -113.5
t-122.5 -40.5q-78 0 -124.5 40t-46.5 114q0 75 46.5 115.5t124.5 40.5zM682 216q-33 0 -52 -20.5t-19 -56.5q0 -33 20 -54t55 -21q32 0 51.5 21.5t19.5 53.5q0 36 -20.5 56.5t-54.5 20.5z" />
    <glyph glyph-name="uni2113" unicode="&#x2113;" horiz-adv-x="479" 
d="M324 122q52 0 90 12l1 -124q-44 -14 -100 -14q-113 0 -163.5 36t-50.5 123v47l-54 -26l-37 81l91 51v207q0 220 206 220q76 0 124 -38.5t48 -108.5q0 -153 -227 -300v-77q0 -51 15 -70t57 -19zM252 515v-108q106 85 106 168q0 56 -49 56q-30 0 -43.5 -26.5t-13.5 -89.5z
" />
    <glyph glyph-name="uni2116" unicode="&#x2116;" horiz-adv-x="1310" 
d="M1031 663q110 0 177 -59t67 -166q0 -106 -66.5 -164.5t-177.5 -58.5q-112 0 -179.5 58t-67.5 165q0 108 67.5 166.5t179.5 58.5zM679 0h-154l-303 438v-438h-152v649h179l278 -407v407h152v-649zM1028 543q-44 0 -71 -28.5t-27 -76.5q0 -45 28 -74t75 -29q43 0 70 29.5
t27 73.5q0 50 -28 77.5t-74 27.5zM1250 0h-440v145h440v-145z" />
    <glyph glyph-name="uni2117" unicode="&#x2117;" horiz-adv-x="832" 
d="M792 362q0 159 -107.5 267.5t-268.5 108.5t-268.5 -108.5t-107.5 -267.5q0 -160 107 -266.5t269 -106.5q160 0 268 108t108 265zM738 362q0 -135 -94 -227t-228 -92q-136 0 -228.5 93.5t-92.5 225.5q0 135 93 228t228 93q134 0 228 -94t94 -227zM374 278v-122h-106v403
h188q75 0 120.5 -35t45.5 -102q0 -144 -176 -144h-72zM376 468v-99h63q39 0 55.5 11.5t16.5 41.5q0 46 -74 46h-61z" />
    <glyph glyph-name="trademark" unicode="&#x2122;" horiz-adv-x="811" 
d="M336 561h-113v-273h-100v273h-113v89h326v-89zM619 650h133q32 -169 49 -362h-99q-13 156 -26 238q-25 -73 -60 -206h-92q-40 146 -61 208q-15 -88 -25 -240h-100q18 197 49 362h133q39 -122 50 -172l27.5 96t21.5 76z" />
    <glyph glyph-name="Ohm" unicode="&#x2126;" horiz-adv-x="780" 
d="M740 338q0 -129 -85 -207h80v-131h-301v122q65 0 104.5 57.5t39.5 157.5q0 88 -54 137.5t-135 49.5t-134 -49.5t-53 -137.5q0 -100 39 -157.5t104 -57.5v-122h-300v131h80q-85 78 -85 207q0 80 31 144t82 102t111.5 58t125.5 20t125.5 -20t111.5 -58t82 -102t31 -144z
" />
    <glyph glyph-name="estimated" unicode="&#x212e;" horiz-adv-x="828" 
d="M414 662q169 0 268.5 -100.5t99.5 -247.5h-587q-13 0 -13 -11v-161q0 -29 14 -42q90 -88 218 -88q69 0 130 29t100 77h66q-38 -53 -113 -91t-183 -38q-166 0 -267.5 94t-101.5 241q0 146 100 242t269 96zM414 637q-128 0 -218 -90q-14 -13 -14 -39v-161q0 -11 13 -11h437
q13 0 13 11v161q0 25 -15 39q-91 90 -216 90z" />
    <glyph glyph-name="oneeighth" unicode="&#x215b;" horiz-adv-x="933" 
d="M194 284v261l-119 -17v82l214 42v-368h-95zM343 0h-122l337 650h120zM733 370q66 0 106.5 -27.5t40.5 -79.5q0 -50 -47 -78q24 -10 40.5 -33.5t16.5 -49.5q0 -111 -157 -111q-156 0 -156 111q0 27 16 49.5t41 33.5q-48 29 -48 78q0 52 40.5 79t106.5 28zM734 297
q-25 0 -38.5 -12t-13.5 -28t14 -28.5t37 -12.5t37 12.5t14 28.5t-13.5 28t-36.5 12zM734 148q-32 0 -46 -12.5t-14 -27.5q0 -19 16 -29.5t43 -10.5q26 0 43 10.5t17 29.5q0 15 -14 27.5t-45 12.5z" />
    <glyph glyph-name="threeeighths" unicode="&#x215c;" horiz-adv-x="942" 
d="M334 589l-82 -83q45 -8 69 -36t24 -68q0 -121 -171 -121q-59 0 -127 18v80q69 -18 121 -18q36 0 58 11t22 31q0 26 -27 37t-88 11h-9v39l83 82h-157v78h284v-61zM228 0h122l335 650h-120zM742 370q66 0 106.5 -27.5t40.5 -79.5q0 -50 -47 -78q24 -10 40.5 -33.5
t16.5 -49.5q0 -111 -157 -111q-156 0 -156 111q0 27 16 49.5t41 33.5q-48 29 -48 78q0 52 40.5 79t106.5 28zM743 297q-25 0 -38.5 -12t-13.5 -28t14 -28.5t37 -12.5t37 12.5t14 28.5t-13.5 28t-36.5 12zM743 148q-32 0 -46 -12.5t-14 -27.5q0 -19 16 -29.5t43 -10.5
q26 0 43 10.5t17 29.5q0 15 -14 27.5t-45 12.5z" />
    <glyph glyph-name="fiveeighths" unicode="&#x215d;" horiz-adv-x="953" 
d="M321 571h-165l-4 -47q22 5 53 5q72 0 112.5 -33t40.5 -86q0 -59 -44.5 -94t-128.5 -35q-68 0 -131 19v81q80 -20 122 -20q85 0 85 50q0 39 -77 39q-60 0 -124 -14l16 214h245v-79zM238 0h122l335 650h-120zM753 370q66 0 106.5 -27.5t40.5 -79.5q0 -50 -47 -78
q24 -10 40.5 -33.5t16.5 -49.5q0 -111 -157 -111q-156 0 -156 111q0 27 16 49.5t41 33.5q-48 29 -48 78q0 52 40.5 79t106.5 28zM754 297q-25 0 -38.5 -12t-13.5 -28t14 -28.5t37 -12.5t37 12.5t14 28.5t-13.5 28t-36.5 12zM754 148q-32 0 -46 -12.5t-14 -27.5
q0 -19 16 -29.5t43 -10.5q26 0 43 10.5t17 29.5q0 15 -14 27.5t-45 12.5z" />
    <glyph glyph-name="seveneighths" unicode="&#x215e;" horiz-adv-x="887" 
d="M354 650v-63q-129 -185 -172 -297h-102q37 84 83 163.5t74 117.5h-181v79h298zM173 0h122l335 650h-120zM687 370q66 0 106.5 -27.5t40.5 -79.5q0 -50 -47 -78q24 -10 40.5 -33.5t16.5 -49.5q0 -111 -157 -111q-156 0 -156 111q0 27 16 49.5t41 33.5q-48 29 -48 78
q0 52 40.5 79t106.5 28zM688 297q-25 0 -38.5 -12t-13.5 -28t14 -28.5t37 -12.5t37 12.5t14 28.5t-13.5 28t-36.5 12zM688 148q-32 0 -46 -12.5t-14 -27.5q0 -19 16 -29.5t43 -10.5q26 0 43 10.5t17 29.5q0 15 -14 27.5t-45 12.5z" />
    <glyph glyph-name="Sevenroman" unicode="&#x2166;" horiz-adv-x="1263" 
d="M518 650h170q-111 -374 -243 -650h-225q-144 308 -235 650h167q102 -351 182 -528q86 193 184 528zM898 0h-155v650h155v-650zM1193 0h-155v650h155v-650z" />
    <glyph glyph-name="partialdiff" unicode="&#x2202;" horiz-adv-x="658" 
d="M166 603l41 120q60 -8 113 -23t110.5 -46.5t98.5 -75t67.5 -114t26.5 -158.5q0 -156 -79.5 -237t-213.5 -81q-132 0 -213.5 67t-81.5 181q0 123 71.5 185.5t173.5 62.5q98 0 164 -47q-30 77 -99.5 114.5t-178.5 51.5zM332 113q60 0 95.5 46t38.5 134q-66 66 -147 66
q-127 0 -127 -123q0 -48 39.5 -85.5t100.5 -37.5z" />
    <glyph glyph-name="increment" unicode="&#x2206;" horiz-adv-x="683" 
d="M231 650h216q130 -278 223 -562v-88h-658v88q107 328 219 562zM186 131h299q-71 216 -151 404q-78 -181 -148 -404z" />
    <glyph glyph-name="product" unicode="&#x220f;" horiz-adv-x="732" 
d="M662 -200h-155v760h-282v-760h-155v891h592v-891z" />
    <glyph glyph-name="summation" unicode="&#x2211;" horiz-adv-x="617" 
d="M248 -69h339v-131h-557v88l287 357l-287 358v88h557v-131h-339l212 -265v-101z" />
    <glyph glyph-name="minus" unicode="&#x2212;" horiz-adv-x="560" 
d="M525 243h-490v145h490v-145z" />
    <glyph glyph-name="divisionslash" unicode="&#x2215;" horiz-adv-x="548" 
d="M210 0h-155l279 650h159z" />
    <glyph glyph-name="bulletoperator" unicode="&#x2219;" horiz-adv-x="252" 
d="M277 184h-232v221h232v-221z" />
    <glyph glyph-name="radical" unicode="&#x221a;" horiz-adv-x="551" 
d="M352 -199h-119l-142 300l-41 -20l-50 109l156 71l107 -240l147 728h136z" />
    <glyph glyph-name="infinity" unicode="&#x221e;" horiz-adv-x="668" 
d="M484 465q71 0 112.5 -45t41.5 -117q0 -70 -41 -116t-109 -46q-49 0 -81 18t-73 62q-41 -44 -73 -62t-81 -18q-68 0 -109 46t-41 116q0 72 41.5 117t112.5 45q45 0 79.5 -22.5t70.5 -63.5q36 41 70.5 63.5t79.5 22.5zM186 352q-18 0 -29.5 -14.5t-11.5 -36.5
q0 -21 11 -34.5t29 -13.5q16 0 30.5 10.5t42.5 39.5q-42 49 -72 49zM482 352q-30 0 -72 -49q28 -29 42.5 -39.5t30.5 -10.5q18 0 29 13.5t11 34.5q0 22 -11.5 36.5t-29.5 14.5z" />
    <glyph glyph-name="integral" unicode="&#x222b;" horiz-adv-x="385" 
d="M288 750q52 0 97 -10v-121q-45 6 -66 6q-29 0 -40 -11t-11 -43v-600q0 -86 -43.5 -134.5t-127.5 -48.5q-52 0 -97 10v121q45 -6 66 -6q27 0 39 12t12 42v600q0 87 44 135t127 48z" />
    <glyph glyph-name="approxequal" unicode="&#x2248;" horiz-adv-x="559" 
d="M417 510h107q0 -68 -40.5 -114t-105.5 -46q-41 0 -97 21.5t-82 21.5q-48 0 -63 -47h-101q0 68 43 114t109 46q42 0 98 -23t83 -23q40 0 49 50zM417 277h107q0 -68 -40.5 -114t-105.5 -46q-41 0 -97 21.5t-82 21.5q-48 0 -63 -47h-101q0 68 43 114t109 46q42 0 98 -23
t83 -23q40 0 49 50z" />
    <glyph glyph-name="notequal" unicode="&#x2260;" horiz-adv-x="560" 
d="M525 363h-149l-46 -105h195v-145h-254l-43 -99h-155l43 99h-81v145h147l45 105h-192v145h250l43 100h159l-43 -100h81v-145z" />
    <glyph glyph-name="lessequal" unicode="&#x2264;" horiz-adv-x="595" 
d="M560 500l-391 -95l391 -94v-140l-524 156v157l524 156v-140zM560 145v-145h-525v145h525z" />
    <glyph glyph-name="greaterequal" unicode="&#x2265;" horiz-adv-x="595" 
d="M559 484v-157l-524 -156v140l391 94l-391 95v140zM560 0h-525v145h525v-145z" />
    <glyph glyph-name="lozenge" unicode="&#x25ca;" horiz-adv-x="565" 
d="M555 326l-200 -341h-145l-200 341l200 337h145zM179 326l103 -203l104 203l-104 202z" />
    <glyph glyph-name="uni5143" unicode="&#x5143;" horiz-adv-x="869" 
d="M725 519h-637v131h637v-131zM770 307h-181v-145q0 -18 7.5 -26t26.5 -8q28 0 37 16t17 64q1 9 2 14l130 -21q-20 -120 -60 -160.5t-153 -40.5q-162 0 -162 132v175h-78v-66q0 -59 -16.5 -100.5t-52.5 -70t-79 -46t-111 -35.5l-39 139q45 13 66 20.5t42 22t28 35.5t7 55
v46h-158v131h727v-131z" />
    <glyph glyph-name="Kanji" unicode="&#x5186;" horiz-adv-x="833" 
d="M763 650v-504q0 -72 -42.5 -114t-129.5 -42q-12 0 -117 3v124q46 -2 74 -2q40 0 51.5 10.5t11.5 39.5v82h-386v-247h-155v650h693zM350 519h-125v-141h125v141zM608 519h-127v-141h127v141z" />
    <glyph glyph-name="uniF8FF" unicode="&#xf8ff;" horiz-adv-x="542" 
d="M542 750v-750h-542v750h542zM394 145v460h-246v-460h246z" />
    <glyph glyph-name="fi" unicode="&#xfb01;" horiz-adv-x="671" 
d="M294 723q62 0 109 -17v-122q-37 15 -77 15q-48 0 -63.5 -13.5t-15.5 -49.5v-23h159v-120h-159v-393h-151v393h-106v120h106v32q0 91 55.5 134.5t142.5 43.5zM615 586h-169v129h169v-129zM606 0h-151v513h151v-513z" />
    <glyph glyph-name="fl" unicode="&#xfb02;" horiz-adv-x="671" 
d="M294 723q62 0 109 -17v-122q-37 15 -77 15q-48 0 -63.5 -13.5t-15.5 -49.5v-23h159v-120h-159v-393h-151v393h-106v120h106v32q0 91 55.5 134.5t142.5 43.5zM606 0h-151v691h151v-691z" />
    <glyph glyph-name="uniFEFF" unicode="&#xfeff;" horiz-adv-x="600" 
 />
    <glyph glyph-name="NULL" horiz-adv-x="600" 
 />
    <glyph glyph-name="zero.dnom" 
d="M198 370q86 0 131 -51t45 -141q0 -86 -46.5 -136.5t-130.5 -50.5q-81 0 -126 50t-45 137q0 91 43.5 141.5t128.5 50.5zM198 290q-35 0 -55 -29t-20 -83t20.5 -80.5t54.5 -26.5t56.5 26.5t22.5 80.5q0 52 -22.5 82t-56.5 30z" />
    <glyph glyph-name="one.dnom" 
d="M194 0v261l-119 -17v82l214 42v-368h-95z" />
    <glyph glyph-name="two.dnom" 
d="M206 370q57 0 97.5 -31.5t40.5 -89.5q0 -52 -38.5 -90.5t-113.5 -79.5h146v-79h-287v80q101 57 148.5 93t47.5 65q0 52 -69 52q-33 0 -113 -22v80q73 22 141 22z" />
    <glyph glyph-name="three.dnom" 
d="M334 299l-82 -83q45 -8 69 -36t24 -68q0 -121 -171 -121q-59 0 -127 18v80q69 -18 121 -18q36 0 58 11t22 31q0 26 -27 37t-88 11h-9v39l83 82h-157v78h284v-61z" />
    <glyph glyph-name="four.dnom" 
d="M384 69h-59v-69h-95v69h-207v70q74 116 159 221h116q-99 -113 -161 -212h93v86h95v-86h59v-79z" />
    <glyph glyph-name="five.dnom" 
d="M321 281h-165l-4 -47q22 5 53 5q72 0 112.5 -33t40.5 -86q0 -59 -44.5 -94t-128.5 -35q-68 0 -131 19v81q80 -20 122 -20q85 0 85 50q0 39 -77 39q-60 0 -124 -14l16 214h245v-79z" />
    <glyph glyph-name="six.dnom" 
d="M331 370v-83q-60 3 -101 -4.5t-77 -37.5q38 18 76 18q65 0 100.5 -37t35.5 -95q0 -63 -43 -101.5t-115 -38.5q-77 0 -123 39t-46 119q0 103 70.5 164t222.5 57zM207 190q-72 0 -72 -63q0 -57 69 -57q32 0 48 17.5t16 42.5t-15.5 42.5t-45.5 17.5z" />
    <glyph glyph-name="seven.dnom" 
d="M354 360v-63q-129 -185 -172 -297h-102q37 84 83 163.5t74 117.5h-181v79h298z" />
    <glyph glyph-name="eight.dnom" 
d="M200 370q66 0 106.5 -27.5t40.5 -79.5q0 -50 -47 -78q24 -10 40.5 -33.5t16.5 -49.5q0 -111 -157 -111q-156 0 -156 111q0 27 16 49.5t41 33.5q-48 29 -48 78q0 52 40.5 79t106.5 28zM201 297q-25 0 -38.5 -12t-13.5 -28t14 -28.5t37 -12.5t37 12.5t14 28.5t-13.5 28
t-36.5 12zM201 148q-32 0 -46 -12.5t-14 -27.5q0 -19 16 -29.5t43 -10.5q26 0 43 10.5t17 29.5q0 15 -14 27.5t-45 12.5z" />
    <glyph glyph-name="nine.dnom" 
d="M71 -9v83q60 -3 101 4.5t77 37.5q-38 -18 -76 -18q-65 0 -100.5 37t-35.5 95q0 63 43 101.5t115 38.5q76 0 122.5 -39.5t46.5 -118.5q0 -103 -70.5 -164t-222.5 -57zM195 171q72 0 72 63q0 26 -16.5 41.5t-50.5 15.5q-33 0 -49.5 -17.5t-16.5 -42.5t15.5 -42.5
t45.5 -17.5z" />
    <glyph glyph-name="zero.numr" 
d="M198 660q86 0 131 -51t45 -141q0 -86 -46.5 -136.5t-130.5 -50.5q-81 0 -126 50t-45 137q0 91 43.5 141.5t128.5 50.5zM198 580q-35 0 -55 -29t-20 -83t20.5 -80.5t54.5 -26.5t56.5 26.5t22.5 80.5q0 52 -22.5 82t-56.5 30z" />
    <glyph glyph-name="one.numr" 
d="M194 290v261l-119 -17v82l214 42v-368h-95z" />
    <glyph glyph-name="two.numr" 
d="M206 660q57 0 97.5 -31.5t40.5 -89.5q0 -52 -38.5 -90.5t-113.5 -79.5h146v-79h-287v80q101 57 148.5 93t47.5 65q0 52 -69 52q-33 0 -113 -22v80q73 22 141 22z" />
    <glyph glyph-name="three.numr" 
d="M334 589l-82 -83q45 -8 69 -36t24 -68q0 -121 -171 -121q-59 0 -127 18v80q69 -18 121 -18q36 0 58 11t22 31q0 26 -27 37t-88 11h-9v39l83 82h-157v78h284v-61z" />
    <glyph glyph-name="four.numr" 
d="M384 359h-59v-69h-95v69h-207v70q74 116 159 221h116q-99 -113 -161 -212h93v86h95v-86h59v-79z" />
    <glyph glyph-name="five.numr" 
d="M321 571h-165l-4 -47q22 5 53 5q72 0 112.5 -33t40.5 -86q0 -59 -44.5 -94t-128.5 -35q-68 0 -131 19v81q80 -20 122 -20q85 0 85 50q0 39 -77 39q-60 0 -124 -14l16 214h245v-79z" />
    <glyph glyph-name="six.numr" 
d="M331 660v-83q-60 3 -101 -4.5t-77 -37.5q38 18 76 18q65 0 100.5 -37t35.5 -95q0 -63 -43 -101.5t-115 -38.5q-77 0 -123 39t-46 119q0 103 70.5 164t222.5 57zM207 480q-72 0 -72 -63q0 -57 69 -57q32 0 48 17.5t16 42.5t-15.5 42.5t-45.5 17.5z" />
    <glyph glyph-name="seven.numr" 
d="M354 650v-63q-129 -185 -172 -297h-102q37 84 83 163.5t74 117.5h-181v79h298z" />
    <glyph glyph-name="eight.numr" 
d="M200 660q66 0 106.5 -27.5t40.5 -79.5q0 -50 -47 -78q24 -10 40.5 -33.5t16.5 -49.5q0 -111 -157 -111q-156 0 -156 111q0 27 16 49.5t41 33.5q-48 29 -48 78q0 52 40.5 79t106.5 28zM201 587q-25 0 -38.5 -12t-13.5 -28t14 -28.5t37 -12.5t37 12.5t14 28.5t-13.5 28
t-36.5 12zM201 438q-32 0 -46 -12.5t-14 -27.5q0 -19 16 -29.5t43 -10.5q26 0 43 10.5t17 29.5q0 15 -14 27.5t-45 12.5z" />
    <glyph glyph-name="nine.numr" 
d="M71 281v83q60 -3 101 4.5t77 37.5q-38 -18 -76 -18q-65 0 -100.5 37t-35.5 95q0 63 43 101.5t115 38.5q76 0 122.5 -39.5t46.5 -118.5q0 -103 -70.5 -164t-222.5 -57zM195 461q72 0 72 63q0 26 -16.5 41.5t-50.5 15.5q-33 0 -49.5 -17.5t-16.5 -42.5t15.5 -42.5
t45.5 -17.5z" />
    <glyph glyph-name="ampersand.001" horiz-adv-x="729" 
d="M319 668q95 0 146 -50t51 -117q0 -90 -133 -165q33 -37 95 -89q33 35 71 100h162q-75 -131 -134 -190q29 -30 61 -59l69 -61.5t42 -36.5h-207l-68 62q-57 -41 -106 -59t-115 -18q-110 0 -166.5 48.5t-56.5 131.5q0 113 145 199q-57 75 -57 134q0 66 53.5 118t147.5 52z
M318 552q-27 0 -44.5 -16t-17.5 -39q0 -33 38 -80q79 42 79 81q0 24 -15.5 39t-39.5 15zM263 265q-45 -22 -64 -42t-19 -48q0 -60 81 -60q36 0 60.5 10.5t53.5 35.5q-70 62 -112 104z" />
    <glyph glyph-name="acute.case" horiz-adv-x="277" 
d="M146 710h-116l74 145h143z" />
    <glyph glyph-name="breve.case" horiz-adv-x="388" 
d="M257 847h101q-4 -60 -42 -99.5t-122 -39.5q-152 0 -164 139h101q6 -28 20 -41.5t43 -13.5q31 0 44 13t19 42z" />
    <glyph glyph-name="caron.alt" horiz-adv-x="250" 
d="M154 496h-124l37 195h153z" />
    <glyph glyph-name="caron.case" horiz-adv-x="429" 
d="M292 710h-155l-107 145h116l69 -73l68 73h116z" />
    <glyph glyph-name="circumflex.case" horiz-adv-x="429" 
d="M399 710h-116l-68 73l-69 -73h-116l107 145h155z" />
    <glyph glyph-name="dieresis.case" horiz-adv-x="439" 
d="M179 706h-149v129h149v-129zM409 706h-149v129h149v-129z" />
    <glyph glyph-name="dotaccent.case" horiz-adv-x="209" 
d="M179 706h-149v129h149v-129z" />
    <glyph glyph-name="grave.case" horiz-adv-x="277" 
d="M247 710h-116l-101 145h143z" />
    <glyph glyph-name="hungarumlaut.case" horiz-adv-x="473" 
d="M143 711h-113l74 145h143zM339 711h-113l74 145h143z" />
    <glyph glyph-name="macron.case" horiz-adv-x="382" 
d="M352 722h-322v106h322v-106z" />
    <glyph glyph-name="ring.case" horiz-adv-x="278" 
d="M139 693q-52 0 -80.5 25t-28.5 67t28.5 67t80.5 25t80.5 -25t28.5 -67t-28.5 -67t-80.5 -25zM139 821q-49 0 -49 -36t49 -36t49 36t-49 36z" />
    <glyph glyph-name="tilde.case" horiz-adv-x="418" 
d="M300 844h88q-6 -56 -35 -91t-82 -35q-30 0 -66.5 19t-49.5 19q-17 0 -24 -8t-13 -28h-88q6 56 35 91t82 35q30 0 66.5 -19t49.5 -19q17 0 24 8t13 28z" />
    <glyph glyph-name="brevecy" horiz-adv-x="0" 
d="M370 725h-89q-11 -31 -29 -44t-48 -13q-49 0 -58 57h-116q14 -141 165 -141q72 0 118.5 37t56.5 104z" />
    <glyph glyph-name="brevecy.case" horiz-adv-x="0" 
d="M370 835h-89q-11 -31 -29 -44t-48 -13q-49 0 -58 57h-116q14 -141 165 -141q72 0 118.5 37t56.5 104z" />
    <glyph glyph-name="tonos.cap" horiz-adv-x="255" 
d="M30 485l34 165h161l-94 -165h-101z" />
    </font>
</defs>
</svg>
